<svg xmlns="http://www.w3.org/2000/svg" xmlns:xlink="http://www.w3.org/1999/xlink" fill="none" version="1.1" width="14" height="14" viewBox="0 0 14 14"><g><g><path d="M1.9417,3.40748C1.85468,3.4481,1.78312,3.50823,1.73477,3.58135C1.58972,3.79911,1.68449,4.07536,1.94364,4.19724L6.36276,6.2594C6.6838,6.4089,7.07252,6.41052,7.39743,6.26427L11.9751,4.19236C12.0641,4.15174,12.1376,4.09161,12.1879,4.01849C12.3349,3.80073,12.244,3.52448,11.9867,3.40098L7.52894,1.26732C7.20017,1.10969,6.7979,1.10969,6.46719,1.26569L1.9417,3.40748ZM7.5096,0.113549L13.4701,2.93622C13.7969,3.0906,13.9981,3.38148,14,3.69511L14,9.30307C14,9.61832,13.7969,9.90758,13.472,10.062L7.5096,12.8879C7.19243,13.0374,6.80564,13.0374,6.48847,12.8879L0.527973,10.062C0.201133,9.90758,0,9.6167,0,9.30144L0,3.69511C0,3.37985,0.203067,3.08897,0.529907,2.93459L6.4904,0.111924C6.80564,-0.0375778,7.19243,-0.0375778,7.5096,0.113549Z" fill="#1296DB" fill-opacity="1"/></g><g><rect x="0" y="7" width="14" height="7" rx="0" fill="#F57C00" fill-opacity="1"/></g><g><path d="M0.80225,13L2.62875,13C3.68175,13,4.52025,12.558,4.52025,11.57C4.52025,10.9265,4.14975,10.5625,3.66225,10.432500000000001L3.66225,10.406500000000001C4.05225,10.257,4.29275,9.789,4.29275,9.36C4.29275,8.4305,3.49325,8.1575,2.49225,8.1575L0.80225,8.1575L0.80225,13ZM1.96575,10.0815L1.96575,9.048L2.44675,9.048C2.93425,9.048,3.16175,9.190999999999999,3.16175,9.535499999999999C3.16175,9.867,2.94075,10.0815,2.44675,10.0815L1.96575,10.0815ZM1.96575,12.1095L1.96575,10.933L2.54425,10.933C3.10975,10.933,3.38925,11.095500000000001,3.38925,11.492C3.38925,11.908000000000001,3.10325,12.1095,2.54425,12.1095L1.96575,12.1095ZM7.31525,13.091000000000001C8.63475,13.091000000000001,9.53175,12.142,9.53175,10.556000000000001C9.53175,8.9765,8.63475,8.073,7.31525,8.073C5.99575,8.073,5.09875,8.97,5.09875,10.556000000000001C5.09875,12.142,5.99575,13.091000000000001,7.31525,13.091000000000001ZM7.31525,12.09C6.67825,12.09,6.28825,11.492,6.28825,10.556000000000001C6.28825,9.620000000000001,6.67825,9.067499999999999,7.31525,9.067499999999999C7.95225,9.067499999999999,8.34875,9.620000000000001,8.34875,10.556000000000001C8.34875,11.492,7.95225,12.09,7.31525,12.09ZM10.4288,13L13.4773,13L13.4773,12.025L11.5922,12.025L11.5922,8.1575L10.4288,8.1575L10.4288,13Z" fill="#FFFFFF" fill-opacity="1"/></g></g></svg>