<svg xmlns="http://www.w3.org/2000/svg" xmlns:xlink="http://www.w3.org/1999/xlink" fill="none" version="1.1" width="14" height="14" viewBox="0 0 14 14"><g><g><path d="M2.2330744263744355,3.46187C2.1510444263744355,3.50315,2.0835944263744355,3.56423,2.0380244263744354,3.63853C1.9013044263744354,3.85976,1.9906244263744355,4.14042,2.2348944263744355,4.26425L6.400264426374435,6.35932C6.702864426374435,6.51121,7.069274426374435,6.51286,7.375524426374436,6.36428L11.690364426374435,4.25929C11.774264426374435,4.21802,11.843464426374435,4.15693,11.890864426374435,4.08264C12.029464426374435,3.86141,11.943764426374436,3.58074,11.701264426374436,3.45527L7.499484426374435,1.28755C7.189584426374435,1.12741,6.810414426374435,1.12741,6.498694426374436,1.2859L2.2330744263744355,3.46187ZM7.481254426374435,0.115362L13.099464426374436,2.98309C13.407564426374435,3.13994,13.597164426374436,3.43546,13.598964426374435,3.7541L13.598964426374435,9.45159C13.598964426374435,9.77187,13.407564426374435,10.0657,13.101264426374435,10.2226L7.481254426374435,13.0936C7.182294426374435,13.2455,6.817704426374435,13.2455,6.518754426374436,13.0936L0.9005204263744354,10.2226C0.5924484263744354,10.0657,0.4028644263744354,9.77022,0.4028644263744354,9.44994L0.4028644263744354,3.7541C0.4028644263744354,3.43381,0.5942704263744354,3.13829,0.9023434263744354,2.98144L6.520574426374435,0.113711C6.817704426374435,-0.0381778,7.182294426374435,-0.0381778,7.481254426374435,0.115362Z" fill="#1296DB" fill-opacity="1"/></g><g><rect x="0" y="8" width="14" height="6" rx="3" fill="#F57C00" fill-opacity="1"/></g><g style="mix-blend-mode:passthrough"><path d="M2.429688,13L3.8343100000000003,13C4.6448599999999995,13,5.28939,12.66146,5.28939,11.87858C5.28939,11.35938,5.00456,11.07943,4.63021,10.97852L4.63021,10.95898C4.92969,10.84342,5.11523,10.49023,5.11523,10.169599999999999C5.11523,9.461590000000001,4.5,9.25,3.73014,9.25L2.429688,9.25L2.429688,13ZM3.3248699999999998,10.70833L3.3248699999999998,9.935220000000001L3.69434,9.935220000000001C4.0686800000000005,9.935220000000001,4.24447,10.04264,4.24447,10.2998C4.24447,10.54883,4.07357,10.70833,3.69434,10.70833L3.3248699999999998,10.70833ZM3.3248699999999998,12.316410000000001L3.3248699999999998,11.36426L3.76921,11.36426C4.20378,11.36426,4.418620000000001,11.496089999999999,4.418620000000001,11.81673C4.418620000000001,12.15202,4.1988900000000005,12.316410000000001,3.76921,12.316410000000001L3.3248699999999998,12.316410000000001ZM6.76237,10.94108L6.76237,9.96126L7.16113,9.96126C7.58756,9.96126,7.81706,10.07357,7.81706,10.41699C7.81706,10.76042,7.58756,10.94108,7.16113,10.94108L6.76237,10.94108ZM7.87728,13L8.876629999999999,13L8.04655,11.481449999999999C8.43229,11.30241,8.6862,10.950849999999999,8.6862,10.41699C8.6862,9.52507,8.02702,9.25,7.23112,9.25L5.86719,9.25L5.86719,13L6.76237,13L6.76237,11.64583L7.19206,11.64583L7.87728,13ZM9.408850000000001,13L10.30404,13L10.30404,12.018550000000001L10.70931,11.46517L11.58822,13L12.5632,13L11.22852,10.75553L12.3532,9.25L11.37337,9.25L10.31868,10.736L10.30404,10.736L10.30404,9.25L9.408850000000001,9.25L9.408850000000001,13Z" fill="#FFFFFF" fill-opacity="1"/></g></g></svg>