<svg xmlns="http://www.w3.org/2000/svg" xmlns:xlink="http://www.w3.org/1999/xlink" fill="none" version="1.1" width="14" height="14" viewBox="0 0 14 14"><g><g><path d="M1.9417,3.40748C1.85468,3.4481,1.78312,3.50823,1.73477,3.58135C1.58972,3.79911,1.68449,4.07536,1.94364,4.19724L6.36276,6.2594C6.6838,6.4089,7.07252,6.41052,7.39743,6.26427L11.9751,4.19236C12.0641,4.15174,12.1376,4.09161,12.1879,4.01849C12.3349,3.80073,12.244,3.52448,11.9867,3.40098L7.52894,1.26732C7.20017,1.10969,6.7979,1.10969,6.46719,1.26569L1.9417,3.40748ZM7.5096,0.113549L13.4701,2.93622C13.7969,3.0906,13.9981,3.38148,14,3.69511L14,9.30307C14,9.61832,13.7969,9.90758,13.472,10.062L7.5096,12.8879C7.19243,13.0374,6.80564,13.0374,6.48847,12.8879L0.527973,10.062C0.201133,9.90758,0,9.6167,0,9.30144L0,3.69511C0,3.37985,0.203067,3.08897,0.529907,2.93459L6.4904,0.111924C6.80564,-0.0375778,7.19243,-0.0375778,7.5096,0.113549Z" fill="#1296DB" fill-opacity="1"/></g><g><rect x="0" y="7" width="14" height="7" rx="2" fill="#F57C00" fill-opacity="1"/></g><g style="mix-blend-mode:passthrough"><path d="M0.887207,13L2.60319,13C3.66325,13,4.46305,12.553550000000001,4.46305,11.573889999999999C4.46305,10.920079999999999,4.08643,10.54769,3.56592,10.42497L3.56592,10.39958C3.97428,10.24935,4.22184,9.7902,4.22184,9.32894C4.22184,8.41911,3.46859,8.125,2.48047,8.125L0.887207,8.125L0.887207,13ZM1.84993,10.126629999999999L1.84993,8.86768L2.42122,8.86768C3.00098,8.86768,3.28662,9.04118,3.28662,9.47705C3.28662,9.87061,3.02637,10.126629999999999,2.41488,10.126629999999999L1.84993,10.126629999999999ZM1.84993,12.25944L1.84993,10.83333L2.51855,10.83333C3.18294,10.83333,3.52572,11.03857,3.52572,11.51465C3.52572,12.022459999999999,3.16813,12.25944,2.51855,12.25944L1.84993,12.25944ZM6.31869,10.42708L6.31869,8.89307L6.94287,8.89307C7.56071,8.89307,7.89714,9.07715,7.89714,9.62093C7.89714,10.15625,7.56071,10.42708,6.94287,10.42708L6.31869,10.42708ZM7.97542,13L9.04818,13L7.92464,11.03857C8.47689,10.82487,8.84082,10.374189999999999,8.84082,9.62093C8.84082,8.48258,8.04102,8.125,7.02751,8.125L5.35596,8.125L5.35596,13L6.31869,13L6.31869,11.1888L6.9873,11.1888L7.97542,13ZM9.82471,13L10.7874,13L10.7874,11.633140000000001L11.418,10.81006L12.6663,13L13.7179,13L11.9893,10.04622L13.4577,8.125L12.3997,8.125L10.8065,10.24512L10.7874,10.24512L10.7874,8.125L9.82471,8.125L9.82471,13Z" fill="#FFFFFF" fill-opacity="1"/></g></g></svg>