<svg xmlns="http://www.w3.org/2000/svg" xmlns:xlink="http://www.w3.org/1999/xlink" fill="none" version="1.1" width="16" height="16" viewBox="0 0 16 16"><defs><clipPath id="master_svg0_5_1038"><rect x="0" y="0" width="16" height="16" rx="0"/></clipPath><clipPath id="master_svg1_5_1040"><rect x="3" y="3" width="10" height="10" rx="0"/></clipPath></defs><g clip-path="url(#master_svg0_5_1038)"><g><rect x="2.5" y="2.5" width="11" height="11" rx="1.5199999809265137" fill="#25324D" fill-opacity="1"/><rect x="2.5" y="2.5" width="11" height="11" rx="1.5199999809265137" fill-opacity="0" stroke-opacity="1" stroke="#538AF7" fill="none" stroke-width="1"/></g><g clip-path="url(#master_svg1_5_1040)"><g><path d="M5.96045,6.662459999999999C6.10491,7.19313,6.59022,7.58333,7.16667,7.58333L8.83333,7.58333C9.86263,7.58333,10.71758,8.32979,10.886420000000001,9.310880000000001C11.38763,9.47363,11.75,9.9445,11.75,10.5C11.75,11.190380000000001,11.190380000000001,11.75,10.5,11.75C9.80963,11.75,9.25,11.190380000000001,9.25,10.5C9.25,9.972249999999999,9.57704,9.52087,10.039539999999999,9.33754C9.89508,8.80687,9.409790000000001,8.41667,8.83333,8.41667L7.16667,8.41667C6.69766,8.41667,6.2648600000000005,8.26171,5.91667,8.00017L5.91667,9.32113C6.40216,9.492709999999999,6.75,9.95575,6.75,10.5C6.75,11.190380000000001,6.1903500000000005,11.75,5.5,11.75C4.809646,11.75,4.25,11.190380000000001,4.25,10.5C4.25,9.95575,4.597838,9.492709999999999,5.083333,9.32113L5.083333,6.67887C4.597838,6.50728,4.25,6.0442599999999995,4.25,5.5C4.25,4.809646,4.809646,4.25,5.5,4.25C6.1903500000000005,4.25,6.75,4.809646,6.75,5.5C6.75,6.02775,6.4229400000000005,6.47912,5.96045,6.662459999999999ZM5.5,5.91667C5.73012,5.91667,5.91667,5.73012,5.91667,5.5C5.91667,5.26988,5.73012,5.083333,5.5,5.083333C5.26988,5.083333,5.083333,5.26988,5.083333,5.5C5.083333,5.73012,5.26988,5.91667,5.5,5.91667ZM5.5,10.91667C5.73012,10.91667,5.91667,10.730129999999999,5.91667,10.5C5.91667,10.26988,5.73012,10.08333,5.5,10.08333C5.26988,10.08333,5.083333,10.26988,5.083333,10.5C5.083333,10.730129999999999,5.26988,10.91667,5.5,10.91667ZM10.5,10.91667C10.730129999999999,10.91667,10.91667,10.730129999999999,10.91667,10.5C10.91667,10.26988,10.730129999999999,10.08333,10.5,10.08333C10.26988,10.08333,10.08333,10.26988,10.08333,10.5C10.08333,10.730129999999999,10.26988,10.91667,10.5,10.91667Z" fill="#538AF7" fill-opacity="1"/></g></g></g></svg>