<svg xmlns="http://www.w3.org/2000/svg" xmlns:xlink="http://www.w3.org/1999/xlink" fill="none" version="1.1" width="14" height="13.999588012695312" viewBox="0 0 14 13.999588012695312"><g style="mix-blend-mode:passthrough"><g><path d="M7,0C3.13426,0,0,3.13384,0,7C0,10.8666,3.13426,13.9996,7,13.9996C10.8657,13.9996,14,10.8666,14,7C14,3.13384,10.8657,0,7,0ZM9.26782,8.18603C9.22169,8.18603,9.18236,8.16467,9.13795,8.15954L8.15355,10.3445C8.42357,10.5436,8.61156,10.8495,8.61156,11.2105C8.61156,11.8138,8.1211,12.3043,7.51781,12.3043C6.91452,12.3043,6.42405,11.8138,6.42405,11.2105C6.42405,10.6077,6.91452,10.1172,7.51781,10.1172C7.60155,10.1172,7.67675,10.1471,7.75536,10.165L8.72264,8.01856C8.46628,7.86731,8.28855,7.62121,8.22191,7.32385L5.74558,7.00341C5.58835,7.41443,5.19701,7.70922,4.73045,7.70922C4.12718,7.70922,3.6367,7.21876,3.6367,6.61547C3.6367,6.01218,4.12717,5.52171,4.73045,5.52171C4.86717,5.52171,4.99534,5.55334,5.11668,5.59947L6.42577,3.56793C6.22411,3.36924,6.09594,3.09453,6.09594,2.78906C6.09594,2.18579,6.5864,1.69531,7.18969,1.69531C7.79298,1.69531,8.28344,2.18577,8.28344,2.78906C8.28344,3.39235,7.79298,3.88281,7.18969,3.88281C7.04955,3.88281,6.91796,3.85119,6.79492,3.80292L5.48755,5.83105C5.68408,6.01989,5.80371,6.28135,5.81568,6.57104L8.21679,6.88123C8.31933,6.3822,8.73973,5.99852,9.26781,5.99852C9.87108,5.99852,10.3616,6.489,10.3616,7.09227C10.3616,7.69554,9.8711,8.18603,9.26782,8.18603Z" fill="#1296DB" fill-opacity="1"/></g></g></svg>