<svg xmlns="http://www.w3.org/2000/svg" xmlns:xlink="http://www.w3.org/1999/xlink" fill="none" version="1.1" width="12" height="12" viewBox="0 0 14 14"><g><g><path d="M1.9417,3.66959C1.85468,3.71334,1.78312,3.77809,1.73477,3.85684C1.58972,4.09135,1.68449,4.38885,1.94364,4.5201L6.36276,6.74089C6.6838,6.90189,7.07252,6.90364,7.39743,6.74614L11.9751,4.51485C12.0641,4.4711,12.1376,4.40635,12.1879,4.3276C12.3349,4.0931,12.244,3.79559,11.9867,3.66259L7.52894,1.3648C7.20017,1.19505,6.7979,1.19505,6.46719,1.36305L1.9417,3.66959ZM7.5096,0.122283L13.4701,3.16208C13.7969,3.32833,13.9981,3.64159,14,3.97934L14,10.0187C14,10.3582,13.7969,10.6697,13.472,10.836L7.5096,13.8792C7.19243,14.0403,6.80564,14.0403,6.48847,13.8792L0.527974,10.836C0.201133,10.6697,0,10.3564,0,10.0169L0,3.97934C0,3.63984,0.203067,3.32658,0.529907,3.16033L6.4904,0.120534C6.80564,-0.0404685,7.19243,-0.0404685,7.5096,0.122283Z" fill="#1296DB" fill-opacity="1"/></g></g></svg>