<?xml version="1.0" standalone="no"?><!DOCTYPE svg PUBLIC "-//W3C//DTD SVG 1.1//EN" "http://www.w3.org/Graphics/SVG/1.1/DTD/svg11.dtd"><svg t="1652884444932" class="icon" viewBox="0 0 1024 1024" version="1.1" xmlns="http://www.w3.org/2000/svg" p-id="12671" xmlns:xlink="http://www.w3.org/1999/xlink" width="12" height="12"><defs><style type="text/css"></style></defs><path d="M927.430605 225.935943L548.441281 7.288256c-21.864769-7.288256-51.017794-7.288256-72.882562 0l-378.989324 218.647687c-21.864769 14.576512-36.441281 36.441281-36.441281 65.594306v437.295374c0 29.153025 14.576512 51.017794 36.441281 65.594306l378.989324 218.647687c21.864769 14.576512 51.017794 14.576512 72.882562 0l378.989324-218.647687c21.864769-14.576512 36.441281-36.441281 36.441281-65.594306V291.530249c0-29.153025-14.576512-51.017794-36.441281-65.594306M803.530249 357.124555c0 14.576512-7.288256 21.864769-21.864769 29.153025L555.729537 517.466192v269.665481c0 21.864769-21.864769 43.729537-43.729537 43.729537s-43.729537-21.864769-43.729537-43.729537V517.466192L235.046263 386.27758c-7.288256-7.288256-14.576512-14.576512-14.576512-29.153025v-36.441281c7.288256-14.576512 21.864769-21.864769 36.441281-21.864769 7.288256 0 14.576512 0 21.864769 7.288257L512 444.58363l233.224199-131.188612c7.288256-7.288256 14.576512-7.288256 21.864769-7.288256 14.576512 0 29.153025 7.288256 36.441281 21.864768 7.288256 7.288256 7.288256 21.864769 0 29.153025" p-id="12672" fill="#6db23f"></path></svg>