<svg xmlns="http://www.w3.org/2000/svg" xmlns:xlink="http://www.w3.org/1999/xlink" fill="none" version="1.1" width="16" height="16" viewBox="0 0 16 16"><defs><clipPath id="master_svg0_22_031"><rect x="0" y="0" width="16" height="16" rx="0"/></clipPath><clipPath id="master_svg1_22_035"><rect x="3" y="0" width="10" height="16" rx="0"/></clipPath><linearGradient x1="0.5" y1="0" x2="0.5" y2="1" id="master_svg2_18_001"><stop offset="0%" stop-color="#FF5D34" stop-opacity="1"/><stop offset="100%" stop-color="#FF3466" stop-opacity="1"/></linearGradient><mask id="master_svg3_22_050"><g><g><path d="M11.66056,-5.78592e-15C12.11611,-5.78592e-15,12.56344,0.0335267,13,0.0981328L12.99993,8.17002L12.99255,8.17005C12.80548,12.5245,9.04285,16,4.42859,16C3.941854,16,3.46459,15.9613,3.000000390557,15.887L2.9999999999999845,7.65965L3.02221,7.65958C3.342413,3.3784,7.08758,-5.78592e-15,11.66056,-5.78592e-15Z" fill="#FFFFFF" fill-opacity="1"/></g></g></mask><mask id="master_svg4_22_042"><g><g><path d="M11.66056,-5.78592e-15C12.11611,-5.78592e-15,12.56344,0.0335267,13,0.0981328L12.99993,8.17002L12.99255,8.17005C12.80548,12.5245,9.04285,16,4.42859,16C3.941854,16,3.46459,15.9613,3.000000390557,15.887L2.9999999999999845,7.65965L3.02221,7.65958C3.342413,3.3784,7.08758,-5.78592e-15,11.66056,-5.78592e-15Z" fill="#FFFFFF" fill-opacity="1"/></g></g></mask><clipPath id="master_svg5_22_35"><rect x="0" y="0" width="16" height="16" rx="0"/></clipPath></defs><g clip-path="url(#master_svg0_22_031)"><g clip-path="url(#master_svg1_22_035)"><g><g><g><g><path d="M11.66056,-5.78592e-15C12.11611,-5.78592e-15,12.56344,0.0335267,13,0.0981328L12.99993,8.17002L12.99255,8.17005C12.80548,12.5245,9.04285,16,4.42859,16C3.941854,16,3.46459,15.9613,3.000000390557,15.887L2.9999999999999845,7.65965L3.02221,7.65958C3.342413,3.3784,7.08758,-5.78592e-15,11.66056,-5.78592e-15Z" fill-rule="evenodd" fill="url(#master_svg2_18_001)" fill-opacity="1"/></g></g><g mask="url(#master_svg3_22_050)"><g><g><g><path d="M5.86956673828125,1.251708984375L5.86956673828125,8.532188984375C5.86956673828125,9.472218984375,6.66903673828125,10.234268984375,7.65523673828125,10.234268984375C7.86418673828125,10.234268984375,8.07131673828125,10.199328984375,8.267306738281249,10.131168984375L8.332196738281251,10.107228984375L13.98751673828125,7.898808984375L14.39368673828125,8.843838984375001L8.73832673828125,11.052248984375C8.39460673828125,11.186458984375,8.02670673828125,11.255508984375,7.65523673828125,11.255508984375C6.0960967382812505,11.255508984375,4.82865533828125,10.065088984375,4.79869889828125,8.585758984375001L4.79815673828125,8.532188984375L4.79815673828125,1.251708984375L5.86956673828125,1.251708984375Z" fill="#FFFFFF" fill-opacity="1"/></g></g></g></g><g mask="url(#master_svg4_22_042)"><g><g><g><path d="M14.00333421875,2.702392578125L14.377944218749999,3.659192578125L10.70927421875,4.964192578125C9.54220421875,5.379342578125,8.76177421875,6.4308425781250005,8.73565421875,7.613812578125L8.73498421875,7.675132578125L8.73498421875,16.365992578125002L7.66357421875,16.365992578125002L7.66357421875,7.675132578125C7.66357421875,6.063992578125,8.69869421875,4.619972578125,10.26713421875,4.032062578125L10.33467421875,4.007392578125L14.00333421875,2.702392578125Z" fill="#FFFFFF" fill-opacity="1"/></g></g></g></g></g></g></g><g clip-path="url(#master_svg5_22_35)"><g><path d="M12.99761962890625,12Q12.99761962890625,12.09849,12.97840962890625,12.19509Q12.95918962890625,12.29169,12.92149962890625,12.38268Q12.88380962890625,12.47368,12.82908962890625,12.55557Q12.77436962890625,12.63746,12.70472962890625,12.70711Q12.63507962890625,12.77675,12.55318962890625,12.83147Q12.47129962890625,12.88619,12.38029962890625,12.92388Q12.28930962890625,12.96157,12.19270962890625,12.98079Q12.09610962890625,13,11.99761962890625,13Q11.89912862890625,13,11.80252962890625,12.98079Q11.70593062890625,12.96157,11.61493562890625,12.92388Q11.52394162890625,12.88619,11.44204962890625,12.83147Q11.36015662890625,12.77675,11.29051262890625,12.70711Q11.22086862890625,12.63746,11.16614962890625,12.55557Q11.11143062890625,12.47368,11.07374012890625,12.38268Q11.03604902890625,12.29169,11.01683432890625,12.19509Q10.99761962890625,12.09849,10.99761962890625,12Q10.99761962890625,11.901509,11.01683432890625,11.80491Q11.03604902890625,11.708311,11.07374012890625,11.617316Q11.11143062890625,11.526322,11.16614962890625,11.44443Q11.22086862890625,11.362537,11.29051262890625,11.292893Q11.36015662890625,11.223249,11.44204962890625,11.16853Q11.52394162890625,11.113811,11.61493562890625,11.0761205Q11.70593062890625,11.0384294,11.80252962890625,11.0192147Q11.89912862890625,11,11.99761962890625,11Q12.09610962890625,11,12.19270962890625,11.0192147Q12.28930962890625,11.0384294,12.38029962890625,11.0761205Q12.47129962890625,11.113811,12.55318962890625,11.16853Q12.63507962890625,11.223249,12.70472962890625,11.292893Q12.77436962890625,11.362537,12.82908962890625,11.44443Q12.88380962890625,11.526322,12.92149962890625,11.617316Q12.95918962890625,11.708311,12.97840962890625,11.80491Q12.99761962890625,11.901509,12.99761962890625,12Z" fill="#548AF7" fill-opacity="1"/></g><g><path d="M13.1191984375,15.6756C13.0459984375,15.8707,12.859398437500001,16,12.6509984375,16L11.3439984375,16C11.1355984375,16,10.9489984375,15.8707,10.8757984375,15.6756L10.626298437500001,15.010200000000001C10.542398437500001,14.7865,10.3118984375,14.653400000000001,10.0760984375,14.692599999999999L9.3752084375,14.8092C9.169608437499999,14.843399999999999,8.9643694375,14.746400000000001,8.8601594375,14.5659L8.2066602375,13.4341C8.1024503375,13.253599999999999,8.1211300375,13.0273,8.2535494375,12.866399999999999L8.7049794375,12.3177C8.8568094375,12.133099999999999,8.8568094375,11.8669,8.7049794375,11.6824L8.2535294375,11.1336C8.1211099375,10.9727,8.1024303375,10.7464,8.2066402375,10.5659L8.860139437499999,9.43405C8.9643494375,9.25355,9.1695984375,9.15663,9.3751884375,9.19083L10.0760984375,9.30742C10.3118984375,9.34664,10.542398437500001,9.21353,10.626298437500001,8.98976L10.8757984375,8.32444C10.9489984375,8.12929,11.1355984375,8,11.3439984375,8L12.6509984375,8C12.859398437500001,8,13.0459984375,8.12929,13.1191984375,8.32444L13.3686984375,8.98976C13.4525984375,9.21353,13.6830984375,9.34664,13.918898437500001,9.30742L14.6197984375,9.19083C14.825398437499999,9.15663,15.0306984375,9.25355,15.1348984375,9.43405L15.7883984375,10.5659C15.8925984375,10.7464,15.8738984375,10.9727,15.741498437499999,11.1336L15.2899984375,11.6824C15.1381984375,11.8669,15.1381984375,12.133099999999999,15.2899984375,12.3177L15.741498437499999,12.866399999999999C15.8738984375,13.0273,15.8925984375,13.253599999999999,15.7882984375,13.4341L15.134798437499999,14.5659C15.0305984375,14.746400000000001,14.825398437499999,14.843399999999999,14.6197984375,14.8092L13.918898437500001,14.692599999999999C13.6830984375,14.653400000000001,13.4525984375,14.7865,13.3686984375,15.010200000000001L13.1191984375,15.6756ZM11.6904984375,15L12.304498437500001,15L12.4322984375,14.659099999999999C12.684098437500001,13.9878,13.375698437499999,13.5885,14.082898437499999,13.7061L14.4420984375,13.7659L14.749098437499999,13.2341L14.5177984375,12.953C14.0622984375,12.3993,14.0622984375,11.6007,14.5177984375,11.047L14.749098437499999,10.7659L14.4420984375,10.2341L14.082898437499999,10.2939C13.375698437499999,10.4115,12.684098437500001,10.0122,12.4322984375,9.34088L12.304498437500001,9L11.6904984375,9L11.5626984375,9.34088C11.3108984375,10.0122,10.6192984375,10.4115,9.9120484375,10.2939L9.5529084375,10.2341L9.2459084375,10.7659L9.4772184375,11.047C9.9327284375,11.6007,9.9327284375,12.3993,9.4772184375,12.953L9.2459284375,13.2341L9.5529284375,13.7659L9.9120484375,13.7061C10.6192984375,13.5885,11.3108984375,13.9878,11.5626984375,14.659099999999999L11.6904984375,15Z" fill-rule="evenodd" fill="#548AF7" fill-opacity="1"/></g><g><path d="M12.3086,15L11.6946,15L11.5668,14.659099999999999C11.315,13.9878,10.6234,13.5885,9.91614,13.7061L9.55702,13.7659L9.2500200272,13.2341L9.48131,12.953C9.93681,12.3993,9.93681,11.6007,9.48131,11.047L9.25,10.7659L9.557,10.2341L9.91614,10.2939C10.6234,10.4115,11.315,10.0122,11.5668,9.34088L11.6946,9L12.3086,9L12.436399999999999,9.34088C12.6882,10.0122,13.3798,10.4115,14.087,10.2939L14.446200000000001,10.2341L14.7532,10.7659L14.521899999999999,11.047C14.0664,11.6007,14.0664,12.3993,14.521899999999999,12.953L14.7532,13.2341L14.446200000000001,13.7659L14.087,13.7061C13.3798,13.5885,12.6882,13.9878,12.436399999999999,14.659099999999999L12.3086,15ZM13.0016,12C13.0016,12.552299999999999,12.5539,13,12.0016,13C11.4494,13,11.0016,12.552299999999999,11.0016,12C11.0016,11.447700000000001,11.4494,11,12.0016,11C12.5539,11,13.0016,11.447700000000001,13.0016,12Z" fill-rule="evenodd" fill="#25324D" fill-opacity="1"/></g></g></g></svg>