<svg xmlns="http://www.w3.org/2000/svg" xmlns:xlink="http://www.w3.org/1999/xlink" fill="none" version="1.1" width="14" height="14" viewBox="0 0 14 14"><g><g><path d="M1.9417,3.40748C1.85468,3.4481,1.78312,3.50823,1.73477,3.58135C1.58972,3.79911,1.68449,4.07536,1.94364,4.19724L6.36276,6.2594C6.6838,6.4089,7.07252,6.41052,7.39743,6.26427L11.9751,4.19236C12.0641,4.15174,12.1376,4.09161,12.1879,4.01849C12.3349,3.80073,12.244,3.52448,11.9867,3.40098L7.52894,1.26732C7.20017,1.10969,6.7979,1.10969,6.46719,1.26569L1.9417,3.40748ZM7.5096,0.113549L13.4701,2.93622C13.7969,3.0906,13.9981,3.38148,14,3.69511L14,9.30307C14,9.61832,13.7969,9.90758,13.472,10.062L7.5096,12.8879C7.19243,13.0374,6.80564,13.0374,6.48847,12.8879L0.527973,10.062C0.201133,9.90758,0,9.6167,0,9.30144L0,3.69511C0,3.37985,0.203067,3.08897,0.529907,2.93459L6.4904,0.111924C6.80564,-0.0375778,7.19243,-0.0375778,7.5096,0.113549Z" fill="#1296DB" fill-opacity="1"/></g><g><path d="M0,9L0,12C0,13.104569999999999,0.895431,14,2,14L12,14C13.1046,14,14,13.104569999999999,14,12L14,9C14,7.895431,13.1046,7,12,7L2,7C0.895431,7,0,7.895431,0,9Z" fill="#F57C00" fill-opacity="1"/></g><g style="mix-blend-mode:passthrough"><path d="M0.720052,13L1.88379,13L1.88379,11.12533L3.53418,11.12533L3.53418,10.15625L1.88379,10.15625L1.88379,9.09408L3.80713,9.09408L3.80713,8.125L0.720052,8.125L0.720052,13ZM6.64242,13.13542C7.96273,13.13542,8.85986,12.1875,8.85986,10.53711C8.85986,8.89518,7.96273,7.98958,6.64242,7.98958C5.3221,7.98958,4.42497,8.88672,4.42497,10.53711C4.42497,12.1875,5.3221,13.13542,6.64242,13.13542ZM6.64242,12.134599999999999C6.00553,12.134599999999999,5.61409,11.51253,5.61409,10.53711C5.61409,9.56169,6.00553,8.98617,6.64242,8.98617C7.2793,8.98617,7.67497,9.56169,7.67497,10.53711C7.67497,11.51253,7.2793,12.134599999999999,6.64242,12.134599999999999ZM10.9567,10.3234L10.9567,9.04964L11.4751,9.04964C12.0295,9.04964,12.3278,9.195640000000001,12.3278,9.64209C12.3278,10.08854,12.0295,10.3234,11.4751,10.3234L10.9567,10.3234ZM12.4061,13L13.7052,13L12.6261,11.02588C13.1276,10.79313,13.4577,10.3361,13.4577,9.64209C13.4577,8.48258,12.6007,8.125,11.5661,8.125L9.79297,8.125L9.79297,13L10.9567,13L10.9567,11.23958L11.5153,11.23958L12.4061,13Z" fill="#FFFFFF" fill-opacity="1"/></g></g></svg>