<svg xmlns="http://www.w3.org/2000/svg" xmlns:xlink="http://www.w3.org/1999/xlink"  viewBox="0 0 512 512" width="16" height="16">
    <defs>
        <svg id="base" viewBox="0 0 512 512" width="384" height="384">
            <path d="M234.5 5.7c13.9-5 29.1-5 43.1 0l192 68.6C495 83.4 512 107.5 512 134.6V377.4c0 27-17 51.2-42.5 60.3l-192 68.6c-13.9 5-29.1 5-43.1 0l-192-68.6C17 428.6 0 404.5 0 377.4V134.6c0-27 17-51.2 42.5-60.3l192-68.6zM256 66L82.3 128 256 190l173.7-62L256 66zm32 368.6l160-57.1v-188L288 246.6v188z"/>
        </svg>
        <svg id="action" viewBox="0 0 512 512" x="128" y="128" width="384" height="384">
            <path d="M463.5 224H472c13.3 0 24-10.7 24-24V72c0-9.7-5.8-18.5-14.8-22.2s-19.3-1.7-26.2 5.2L413.4 96.6c-87.6-86.5-228.7-86.2-315.8 1c-87.5 87.5-87.5 229.3 0 316.8s229.3 87.5 316.8 0c12.5-12.5 12.5-32.8 0-45.3s-32.8-12.5-45.3 0c-62.5 62.5-163.8 62.5-226.3 0s-62.5-163.8 0-226.3c62.2-62.2 162.7-62.5 225.3-1L327 183c-6.9 6.9-8.9 17.2-5.2 26.2s12.5 14.8 22.2 14.8H463.5z"/>
        </svg>
        <mask id="mask">
            <use fill="#fff" xlink:href="#base"></use>
            <use stroke="#000" stroke-width="128" fill="#000" xlink:href="#action"></use>
            <use fill="#fff" xlink:href="#action"></use>
        </mask>
    </defs>
    <g mask="url(#mask)">
        <use fill="#689f38" fill-opacity="0.8" xlink:href="#base"></use>
        <use fill="#87939a" xlink:href="#action"></use>
    </g>
</svg>