<svg xmlns="http://www.w3.org/2000/svg" xmlns:xlink="http://www.w3.org/1999/xlink" fill="none" version="1.1" width="14" height="14" viewBox="0 0 14 14"><g><g><path d="M2.2330744263744355,3.46187C2.1510444263744355,3.50315,2.0835944263744355,3.56423,2.0380244263744354,3.63853C1.9013044263744354,3.85976,1.9906244263744355,4.14042,2.2348944263744355,4.26425L6.400264426374435,6.35932C6.702864426374435,6.51121,7.069274426374435,6.51286,7.375524426374436,6.36428L11.690364426374435,4.25929C11.774264426374435,4.21802,11.843464426374435,4.15693,11.890864426374435,4.08264C12.029464426374435,3.86141,11.943764426374436,3.58074,11.701264426374436,3.45527L7.499484426374435,1.28755C7.189584426374435,1.12741,6.810414426374435,1.12741,6.498694426374436,1.2859L2.2330744263744355,3.46187ZM7.481254426374435,0.115362L13.099464426374436,2.98309C13.407564426374435,3.13994,13.597164426374436,3.43546,13.598964426374435,3.7541L13.598964426374435,9.45159C13.598964426374435,9.77187,13.407564426374435,10.0657,13.101264426374435,10.2226L7.481254426374435,13.0936C7.182294426374435,13.2455,6.817704426374435,13.2455,6.518754426374436,13.0936L0.9005204263744354,10.2226C0.5924484263744354,10.0657,0.4028644263744354,9.77022,0.4028644263744354,9.44994L0.4028644263744354,3.7541C0.4028644263744354,3.43381,0.5942704263744354,3.13829,0.9023434263744354,2.98144L6.520574426374435,0.113711C6.817704426374435,-0.0381778,7.182294426374435,-0.0381778,7.481254426374435,0.115362Z" fill="#1296DB" fill-opacity="1"/></g><g><rect x="0" y="8" width="14" height="6" rx="3" fill="#F57C00" fill-opacity="1"/></g><g style="mix-blend-mode:passthrough"><path d="M2.429688,13L3.3248699999999998,13L3.3248699999999998,11.55794L4.5944,11.55794L4.5944,10.8125L3.3248699999999998,10.8125L3.3248699999999998,9.99544L4.80436,9.99544L4.80436,9.25L2.429688,9.25L2.429688,13ZM6.98535,13.10417C8.00098,13.10417,8.69108,12.375,8.69108,11.10547C8.69108,9.84245,8.00098,9.14583,6.98535,9.14583C5.96973,9.14583,5.2796199999999995,9.83594,5.2796199999999995,11.10547C5.2796199999999995,12.375,5.96973,13.10417,6.98535,13.10417ZM6.98535,12.33431C6.49544,12.33431,6.19434,11.855789999999999,6.19434,11.10547C6.19434,10.35514,6.49544,9.91244,6.98535,9.91244C7.47526,9.91244,7.77962,10.35514,7.77962,11.10547C7.77962,11.855789999999999,7.47526,12.33431,6.98535,12.33431ZM10.30404,10.94108L10.30404,9.96126L10.7028,9.96126C11.12923,9.96126,11.35872,10.07357,11.35872,10.41699C11.35872,10.76042,11.12923,10.94108,10.7028,10.94108L10.30404,10.94108ZM11.41895,13L12.4183,13L11.58822,11.481449999999999C11.97396,11.30241,12.2279,10.950849999999999,12.2279,10.41699C12.2279,9.52507,11.56868,9.25,10.77279,9.25L9.408850000000001,9.25L9.408850000000001,13L10.30404,13L10.30404,11.64583L10.73372,11.64583L11.41895,13Z" fill="#FFFFFF" fill-opacity="1"/></g></g></svg>