<svg xmlns="http://www.w3.org/2000/svg" xmlns:xlink="http://www.w3.org/1999/xlink" fill="none" version="1.1" width="14" height="14" viewBox="0 0 14 14"><g><g><path d="M1.9417,3.46187C1.85468,3.50315,1.78312,3.56423,1.73477,3.63853C1.58972,3.85976,1.68449,4.14042,1.94364,4.26425L6.36276,6.35932C6.6838,6.51121,7.07252,6.51286,7.39743,6.36428L11.9751,4.25929C12.0641,4.21802,12.1376,4.15693,12.1879,4.08264C12.3349,3.86141,12.244,3.58074,11.9867,3.45527L7.52894,1.28755C7.20017,1.12741,6.7979,1.12741,6.46719,1.2859L1.9417,3.46187ZM7.5096,0.115362L13.4701,2.98309C13.7969,3.13994,13.9981,3.43546,14,3.7541L14,9.45159C14,9.77187,13.7969,10.0657,13.472,10.2226L7.5096,13.0936C7.19243,13.2455,6.80564,13.2455,6.48847,13.0936L0.527973,10.2226C0.201133,10.0657,0,9.77022,0,9.44994L0,3.7541C0,3.43381,0.203067,3.13829,0.529907,2.98144L6.4904,0.113711C6.80564,-0.0381778,7.19243,-0.0381778,7.5096,0.115362Z" fill="#1296DB" fill-opacity="1"/></g><g style="mix-blend-mode:passthrough"><rect x="0" y="7" width="14" height="7" rx="2" fill="#F57C00" fill-opacity="1"/></g><g style="mix-blend-mode:passthrough"><path d="M4.8095300000000005,13L5.97327,13L5.97327,8.125L4.8095300000000005,8.125L4.8095300000000005,13ZM7.11161,13L8.27535,13L8.27535,11.12533L9.92574,11.12533L9.92574,10.15625L8.27535,10.15625L8.27535,9.09408L10.19869,9.09408L10.19869,8.125L7.11161,8.125L7.11161,13Z" fill="#FFFFFF" fill-opacity="1"/></g></g></svg>