<svg xmlns="http://www.w3.org/2000/svg" xmlns:xlink="http://www.w3.org/1999/xlink"  viewBox="0 0 512 512" width="16" height="16">
    <defs>
        <svg id="base" viewBox="0 0 512 512" width="384" height="384">
            <path d="M234.5 5.7c13.9-5 29.1-5 43.1 0l192 68.6C495 83.4 512 107.5 512 134.6V377.4c0 27-17 51.2-42.5 60.3l-192 68.6c-13.9 5-29.1 5-43.1 0l-192-68.6C17 428.6 0 404.5 0 377.4V134.6c0-27 17-51.2 42.5-60.3l192-68.6zM256 66L82.3 128 256 190l173.7-62L256 66zm32 368.6l160-57.1v-188L288 246.6v188z"/>
        </svg>
        <svg id="action" viewBox="0 0 512 512" x="128" y="128" width="384" height="384">
            <path d="M329.4 9.4c12.5-12.5 32.8-12.5 45.3 0l96 96c12.5 12.5 12.5 32.8 0 45.3l-96 96c-12.5 12.5-32.8 12.5-45.3 0s-12.5-32.8 0-45.3L370.7 160H160c-35.3 0-64 28.7-64 64v32c0 17.7-14.3 32-32 32s-32-14.3-32-32V224C32 153.3 89.3 96 160 96H370.7L329.4 54.6c-12.5-12.5-12.5-32.8 0-45.3zm-96 256c12.5-12.5 32.8-12.5 45.3 0l96 96c12.5 12.5 12.5 32.8 0 45.3l-96 96c-12.5 12.5-32.8 12.5-45.3 0s-12.5-32.8 0-45.3L274.7 416H128c-17.7 0-32 14.3-32 32v32c0 17.7-14.3 32-32 32s-32-14.3-32-32V448c0-53 43-96 96-96H274.7l-41.4-41.4c-12.5-12.5-12.5-32.8 0-45.3z"/>
        </svg>
        <mask id="mask">
            <use fill="#fff" xlink:href="#base"></use>
            <use stroke="#000" stroke-width="128" fill="#000" xlink:href="#action"></use>
            <use fill="#fff" xlink:href="#action"></use>
        </mask>
    </defs>
    <g mask="url(#mask)">
        <use fill="#689f38" fill-opacity="0.8" xlink:href="#base"></use>
        <use fill="#87939a" xlink:href="#action"></use>
    </g>
</svg>