<svg xmlns="http://www.w3.org/2000/svg" xmlns:xlink="http://www.w3.org/1999/xlink" fill="none" version="1.1" width="14" height="14" viewBox="0 0 14 14"><g><g><path d="M1.9417,3.40748C1.85468,3.4481,1.78312,3.50823,1.73477,3.58135C1.58972,3.79911,1.68449,4.07536,1.94364,4.19724L6.36276,6.2594C6.6838,6.4089,7.07252,6.41052,7.39743,6.26427L11.9751,4.19236C12.0641,4.15174,12.1376,4.09161,12.1879,4.01849C12.3349,3.80073,12.244,3.52448,11.9867,3.40098L7.52894,1.26732C7.20017,1.10969,6.7979,1.10969,6.46719,1.26569L1.9417,3.40748ZM7.5096,0.113549L13.4701,2.93622C13.7969,3.0906,13.9981,3.38148,14,3.69511L14,9.30307C14,9.61832,13.7969,9.90758,13.472,10.062L7.5096,12.8879C7.19243,13.0374,6.80564,13.0374,6.48847,12.8879L0.527973,10.062C0.201133,9.90758,0,9.6167,0,9.30144L0,3.69511C0,3.37985,0.203067,3.08897,0.529907,2.93459L6.4904,0.111924C6.80564,-0.0375778,7.19243,-0.0375778,7.5096,0.113549Z" fill="#1296DB" fill-opacity="1"/></g><g><rect x="0" y="7" width="14" height="7" rx="0" fill="#F57C00" fill-opacity="1"/></g><g style="mix-blend-mode:passthrough"><path d="M2.00651,13L3.17025,13L3.17025,8.125L2.00651,8.125L2.00651,13ZM5.24381,13L6.40755,13L6.40755,9.09408L7.72152,9.09408L7.72152,8.125L3.93831,8.125L3.93831,9.09408L5.24381,9.09408L5.24381,13ZM9.67025,10.3234L9.67025,9.04964L10.1886,9.04964C10.743,9.04964,11.0413,9.195640000000001,11.0413,9.64209C11.0413,10.08854,10.743,10.3234,10.1886,10.3234L9.67025,10.3234ZM11.1196,13L12.4188,13L11.3397,11.02588C11.8411,10.79313,12.1712,10.3361,12.1712,9.64209C12.1712,8.48258,11.3143,8.125,10.2796,8.125L8.50651,8.125L8.50651,13L9.67025,13L9.67025,11.23958L10.2288,11.23958L11.1196,13Z" fill="#FFFFFF" fill-opacity="1"/></g></g></svg>