<svg xmlns="http://www.w3.org/2000/svg" xmlns:xlink="http://www.w3.org/1999/xlink" fill="none" version="1.1" width="16" height="16" viewBox="0 0 16 16"><defs><clipPath id="master_svg0_5_1233"><rect x="0" y="0" width="16" height="16" rx="0"/></clipPath><clipPath id="master_svg1_5_0097"><rect x="3" y="3" width="10" height="10" rx="0"/></clipPath></defs><g clip-path="url(#master_svg0_5_1233)"><g><ellipse cx="8" cy="8" rx="7" ry="7" fill="#EFDFFF" fill-opacity="1"/><ellipse cx="8" cy="8" rx="6.5" ry="6.5" fill-opacity="0" stroke-opacity="1" stroke="#955AE0" fill="none" stroke-width="1"/></g><g clip-path="url(#master_svg1_5_0097)"><g><path d="M5.41668701171875,5.916673505859375Q5.41668701171875,6.016133505859375,5.45474701171875,6.108013505859375Q5.49280701171875,6.199903505859375,5.56313401171875,6.270233505859375L7.64646701171875,8.353563505859375Q7.68128701171875,8.388383505859375,7.72223701171875,8.415743505859375Q7.76317701171875,8.443103505859375,7.80867701171875,8.461953505859375Q7.85417701171875,8.480793505859374,7.90247701171875,8.490403505859376Q7.95077701171875,8.500013505859375,8.00001701171875,8.500013505859375Q8.04926701171875,8.500013505859375,8.09756701171875,8.490403505859376Q8.14586701171875,8.480793505859374,8.19135701171875,8.461953505859375Q8.236857011718751,8.443103505859375,8.27780701171875,8.415743505859375Q8.31874701171875,8.388383505859375,8.35357701171875,8.353563505859375L10.43690701171875,6.270233505859375Q10.50723701171875,6.199903505859375,10.54529701171875,6.108013505859375Q10.58335701171875,6.016133505859375,10.58335701171875,5.916673505859375Q10.58335701171875,4.846623505859375,9.82670701171875,4.089983505859375Q9.07006701171875,3.333343505859375,8.00001701171875,3.333343505859375Q6.92997701171875,3.333343505859375,6.17333201171875,4.089983505859375Q5.41668701171875,4.846623505859375,5.41668701171875,5.916673505859375ZM6.42754901171875,5.720433505859375L8.00001701171875,7.292903505859375L9.57248701171875,5.720433505859375Q9.51237701171875,5.189863505859375,9.11960701171875,4.797091505859375Q8.65585701171875,4.333343505859375,8.00001701171875,4.333343505859375Q7.34418701171875,4.333343505859375,6.88043801171875,4.797091505859375Q6.48766101171875,5.189863505859375,6.42754901171875,5.720433505859375Z" fill-rule="evenodd" fill="#955AE0" fill-opacity="1"/></g><g><path d="M4.08995298828125,6.173301494140625Q3.33331298828125,6.929946494140625,3.33331298828125,7.999986494140625Q3.33331298828125,9.070036494140625,4.08995298828125,9.826676494140624Q4.84659298828125,10.583326494140625,5.91664298828125,10.583326494140625Q6.01610298828125,10.583326494140625,6.10798298828125,10.545266494140625Q6.19987298828125,10.507206494140625,6.27020298828125,10.436876494140625L8.35353298828125,8.353546494140625Q8.38835298828125,8.318716494140626,8.41571298828125,8.277776494140625Q8.44307298828125,8.236826494140626,8.46192298828125,8.191326494140625Q8.48076298828125,8.145836494140624,8.490372988281251,8.097536494140625Q8.49998298828125,8.049236494140626,8.49998298828125,7.999986494140625Q8.49998298828125,7.950746494140625,8.490372988281251,7.902446494140625Q8.48076298828125,7.854146494140625,8.46192298828125,7.808646494140625Q8.44307298828125,7.763146494140625,8.41571298828125,7.722206494140625Q8.38835298828125,7.681256494140625,8.35353298828125,7.646436494140625L6.27020298828125,5.563103494140625Q6.19987298828125,5.492776494140625,6.10798298828125,5.454716494140625Q6.01610298828125,5.416656494140625,5.91664298828125,5.416656494140625Q4.84659298828125,5.416656494140625,4.08995298828125,6.173301494140625ZM4.79706098828125,9.119576494140626Q4.33331298828125,8.655826494140625,4.33331298828125,7.999986494140625Q4.33331298828125,7.344156494140625,4.79706098828125,6.880407494140625Q5.18983298828125,6.487630494140625,5.72040298828125,6.427518494140625L7.29287298828125,7.999986494140625L5.72040298828125,9.572456494140624Q5.18983298828125,9.512346494140624,4.79706098828125,9.119576494140626Z" fill-rule="evenodd" fill="#955AE0" fill-opacity="1"/></g><g><path d="M7.5,7.999986494140625Q7.5,8.099446494140626,7.53806,8.191336494140625Q7.57612,8.283216494140625,7.646447,8.353546494140625L9.72978,10.436876494140625Q9.80011,10.507206494140625,9.89199,10.545266494140625Q9.98388,10.583326494140625,10.08333,10.583326494140625Q11.15338,10.583326494140625,11.91002,9.826676494140624Q12.66667,9.070036494140625,12.66667,7.999986494140625Q12.66667,6.929946494140625,11.91002,6.173300494140625Q11.15338,5.416656494140625,10.08333,5.416656494140625Q9.98388,5.416656494140625,9.89199,5.454716494140625Q9.80011,5.492776494140625,9.72978,5.563103494140625L7.646447,7.646436494140625Q7.57612,7.716766494140625,7.53806,7.808646494140625Q7.5,7.900536494140625,7.5,7.999986494140625ZM8.707107,7.999986494140625L10.27958,9.572456494140624Q10.81014,9.512346494140624,11.20292,9.119576494140626Q11.66667,8.655816494140625,11.66667,7.999986494140625Q11.66667,7.344156494140625,11.20292,6.880407494140625Q10.81014,6.487631494140625,10.27958,6.427518494140625L8.707107,7.999986494140625Z" fill-rule="evenodd" fill="#955AE0" fill-opacity="1"/></g><g><path d="M5.56313401171875,9.72978Q5.49280701171875,9.80011,5.45474701171875,9.89199Q5.41668701171875,9.98388,5.41668701171875,10.08333Q5.41668701171875,11.15338,6.17333201171875,11.91002Q6.92997701171875,12.66667,8.00001701171875,12.66667Q9.07006701171875,12.66667,9.82670701171875,11.91002Q10.58335701171875,11.15338,10.58335701171875,10.08333Q10.58335701171875,9.98388,10.54529701171875,9.89199Q10.50723701171875,9.80011,10.43690701171875,9.72978L8.35357701171875,7.646447Q8.28324701171875,7.576121,8.19135701171875,7.53806Q8.09947701171875,7.5,8.00001701171875,7.5Q7.90056701171875,7.5,7.80867701171875,7.53806Q7.71679701171875,7.57612,7.64646701171875,7.646447L5.56313401171875,9.72978ZM6.42754901171875,10.27958Q6.48766201171875,10.81014,6.88043801171875,11.20292Q7.34418701171875,11.66667,8.00001701171875,11.66667Q8.65584701171875,11.66667,9.11960701171875,11.20292Q9.51237701171875,10.81014,9.57248701171875,10.27958L8.00001701171875,8.707107L6.42754901171875,10.27958Z" fill-rule="evenodd" fill="#955AE0" fill-opacity="1"/></g></g></g></svg>