<svg xmlns="http://www.w3.org/2000/svg" xmlns:xlink="http://www.w3.org/1999/xlink" fill="none" version="1.1" width="14" height="14" viewBox="0 0 14 14"><g><g><path d="M4.1095500000000005,2.25821C4.05981,2.28513,4.01893,2.32498,3.991297,2.37344C3.908413,2.51775,3.962564,2.70083,4.11065,2.7816L6.63586,4.14824C6.81931,4.24732,7.04144,4.24839,7.2271,4.15147L9.842929999999999,2.77837C9.89377,2.75145,9.93577,2.7116,9.964500000000001,2.66314C10.048490000000001,2.51883,9.99655,2.33575,9.84956,2.2539L7.30225,0.839879C7.11438,0.735416,6.88452,0.735416,6.695539999999999,0.838802L4.1095500000000005,2.25821ZM7.2912,0.0752513L10.697199999999999,1.9459C10.88396,2.04821,10.998899999999999,2.24098,11,2.44883L11,6.16535C11,6.37427,10.88396,6.56597,10.6983,6.66828L7.2912,8.54108C7.10996,8.64015,6.88894,8.64015,6.7077,8.54108L3.301699,6.66828C3.114933,6.56597,3,6.3732,3,6.16427L3,2.44883C3,2.2399,3.116038,2.04713,3.302804,1.94482L6.7088,0.0741748C6.88894,-0.0249037,7.10996,-0.0249037,7.2912,0.0752513Z" fill="#1296DB" fill-opacity="1"/></g><g><path d="M7.1095500000000005,7.642824944458008C7.05981,7.669744944458008,7.01893,7.709594944458008,6.991297,7.758054944458008C6.908413,7.902364944458007,6.962564,8.085444944458008,7.11065,8.166214944458009L9.635860000000001,9.532854944458009C9.81931,9.631934944458008,10.04144,9.633004944458008,10.2271,9.536084944458008L12.842929999999999,8.162984944458007C12.89377,8.136064944458008,12.93577,8.096214944458008,12.964500000000001,8.047754944458008C13.048490000000001,7.903444944458007,12.99655,7.720364944458008,12.84956,7.638514944458008L10.30225,6.224493944458008C10.11438,6.120030944458008,9.88452,6.120030944458008,9.69554,6.223416944458008L7.1095500000000005,7.642824944458008ZM10.2912,5.4598662444580075L13.697199999999999,7.330514944458008C13.88396,7.432824944458008,13.998899999999999,7.625594944458008,14,7.833444944458008L14,11.549964944458008C14,11.758884944458007,13.88396,11.950584944458008,13.6983,12.052894944458007L10.2912,13.925694944458007C10.109960000000001,14.024764944458008,9.88894,14.024764944458008,9.707699999999999,13.925694944458007L6.301699,12.052894944458007C6.114933,11.950584944458008,6,11.757814944458008,6,11.548884944458008L6,7.833444944458008C6,7.624514944458008,6.116038,7.431744944458008,6.302804,7.329434944458008L9.7088,5.458789744458008C9.88894,5.3597112444580075,10.109960000000001,5.3597112444580075,10.2912,5.4598662444580075Z" fill="#1296DB" fill-opacity="1"/></g><g><path d="M1.10955,7.642824944458008C1.05981,7.669744944458008,1.01893,7.709594944458008,0.991297,7.758054944458008C0.908413,7.902364944458007,0.962564,8.085444944458008,1.11065,8.166214944458009L3.63586,9.532854944458009C3.81931,9.631934944458008,4.04144,9.633004944458008,4.2271,9.536084944458008L6.84293,8.162984944458007C6.89377,8.136064944458008,6.93577,8.096214944458008,6.9645,8.047754944458008C7.04849,7.903444944458007,6.99655,7.720364944458008,6.84956,7.638514944458008L4.30225,6.224493944458008C4.11438,6.120030944458008,3.88452,6.120030944458008,3.69554,6.223416944458008L1.10955,7.642824944458008ZM4.2912,5.4598662444580075L7.6972,7.330514944458008C7.88396,7.432824944458008,7.9989,7.625594944458008,8,7.833444944458008L8,11.549964944458008C8,11.758884944458007,7.88396,11.950584944458008,7.6983,12.052894944458007L4.2912,13.925694944458007C4.10996,14.024764944458008,3.88894,14.024764944458008,3.7077,13.925694944458007L0.301699,12.052894944458007C0.114933,11.950584944458008,0,11.757814944458008,0,11.548884944458008L0,7.833444944458008C0,7.624514944458008,0.116038,7.431744944458008,0.302804,7.329434944458008L3.7088,5.458789744458008C3.88894,5.3597112444580075,4.10996,5.3597112444580075,4.2912,5.4598662444580075Z" fill="#1296DB" fill-opacity="1"/></g></g></svg>