<?xml version="1.0" standalone="no"?><!DOCTYPE svg PUBLIC "-//W3C//DTD SVG 1.1//EN" "http://www.w3.org/Graphics/SVG/1.1/DTD/svg11.dtd"><svg t="1652884340547" class="icon" viewBox="0 0 1024 1024" version="1.1" xmlns="http://www.w3.org/2000/svg" p-id="9464" xmlns:xlink="http://www.w3.org/1999/xlink" width="12" height="12"><defs><style type="text/css"></style></defs><path d="M511.9 0C229.2 0 0 229.2 0 511.9s229.2 511.9 511.9 511.9 511.9-229.2 511.9-511.9C1023.9 229.2 794.7 0 511.9 0z m47.4 580.8l-50.1 50.8c-16.7 16.3-31.7 31.2-45.1 44.8-13.4 13.6-24.4 24.7-33.2 33.5-8.8 8.8-14 13.8-15.7 15-4.2 3.8-9 7.7-14.4 11.9a77.4 77.4 0 0 1-16.9 10c-5.8 2.9-14.4 6.5-25.7 10.6-11.3 4.2-23.1 8.2-35.4 12.2-12.3 4-24 7.4-35.1 10.3-11.1 2.9-19.3 4.8-24.7 5.6-11.3 1.3-18.8-0.4-22.5-5-3.8-4.6-4.8-12.3-3.1-23.2 0.8-5.8 2.8-14.3 6-25.4 3.1-11.1 6.5-22.5 10-34.4 3.5-11.9 7-22.9 10.3-32.9 3.4-10 6.1-16.9 8.1-20.7 2.5-5.9 5.3-11.2 8.5-16 3.1-4.8 7.6-10.1 13.5-16 2.5-2.5 8.4-8.4 17.5-17.8 9.2-9.4 20.7-21 34.4-34.8l231.2-231.2 117.1 118-134.7 134.7z m224.9-229.3c-2.1 5.4-5.4 10.6-10 15.7-5 5-9.5 9.4-13.5 13.2-4 3.8-7.4 7.1-10.3 10-3.3 3.3-6.5 6.3-9.4 8.8L623.8 282c5-4.6 11-10.1 17.9-16.6 6.9-6.5 12.6-11.6 17.2-15.3 5.8-4.6 11.9-7.8 18.2-9.7 6.3-1.9 12.4-2.7 18.5-2.5 6.1 0.2 11.9 1.2 17.5 2.8 5.6 1.7 10.5 3.5 14.7 5.6 8.8 4.6 18.5 12.6 29.1 24.1 10.7 11.5 18.9 23.5 24.7 36 1.7 3.8 3 8.1 4.1 13.2 1 5 1.6 10.2 1.6 15.7 0 5.4-1 10.8-3.1 16.2z m0 0" p-id="9465" fill="#6db23f"></path></svg>