<svg xmlns="http://www.w3.org/2000/svg" xmlns:xlink="http://www.w3.org/1999/xlink" fill="none" version="1.1" width="14" height="14" viewBox="0 0 14 14"><g><g><path d="M1.9417,3.40748C1.85468,3.4481,1.78312,3.50823,1.73477,3.58135C1.58972,3.79911,1.68449,4.07536,1.94364,4.19724L6.36276,6.2594C6.6838,6.4089,7.07252,6.41052,7.39743,6.26427L11.9751,4.19236C12.0641,4.15174,12.1376,4.09161,12.1879,4.01849C12.3349,3.80073,12.244,3.52448,11.9867,3.40098L7.52894,1.26732C7.20017,1.10969,6.7979,1.10969,6.46719,1.26569L1.9417,3.40748ZM7.5096,0.113549L13.4701,2.93622C13.7969,3.0906,13.9981,3.38148,14,3.69511L14,9.30307C14,9.61832,13.7969,9.90758,13.472,10.062L7.5096,12.8879C7.19243,13.0374,6.80564,13.0374,6.48847,12.8879L0.527973,10.062C0.201133,9.90758,0,9.6167,0,9.30144L0,3.69511C0,3.37985,0.203067,3.08897,0.529907,2.93459L6.4904,0.111924C6.80564,-0.0375778,7.19243,-0.0375778,7.5096,0.113549Z" fill="#1296DB" fill-opacity="1"/></g><g><rect x="0" y="7" width="14" height="7" rx="2" fill="#F57C00" fill-opacity="1"/></g><g style="mix-blend-mode:passthrough"><path d="M2.55876,13.13542C3.72884,13.13542,4.40592,12.428709999999999,4.40592,11.59928C4.40592,10.888349999999999,4.04834,10.4694,3.44954,10.21761L2.84652,9.96794C2.41699,9.7902,2.11654,9.68229,2.11654,9.39876C2.11654,9.13428,2.33236,8.98617,2.68994,8.98617C3.06657,8.98617,3.36491,9.11947,3.68441,9.37126L4.26204,8.62858C3.84098,8.205400000000001,3.24853,7.98958,2.68994,7.98958C1.66162,7.98958,0.933756,8.64128,0.933756,9.47282C0.933756,10.204920000000001,1.40983,10.645019999999999,1.91553,10.85449L2.53337,11.12533C2.95019,11.30941,3.2168,11.404620000000001,3.2168,11.6945C3.2168,11.96533,3.01367,12.134599999999999,2.58626,12.134599999999999C2.20117,12.134599999999999,1.7526,11.92513,1.41618,11.62044L0.75179,12.441410000000001C1.25325,12.90267,1.92822,13.13542,2.55876,13.13542ZM6.42025,10.3234L6.42025,9.04964L6.93864,9.04964C7.493,9.04964,7.79134,9.195640000000001,7.79134,9.64209C7.79134,10.08854,7.493,10.3234,6.93864,10.3234L6.42025,10.3234ZM7.86963,13L9.16878,13L8.08968,11.02588C8.59115,10.79313,8.92122,10.3361,8.92122,9.64209C8.92122,8.48258,8.06429,8.125,7.02962,8.125L5.25651,8.125L5.25651,13L6.42025,13L6.42025,11.23958L6.97884,11.23958L7.86963,13ZM10.7959,13L11.9596,13L11.9596,9.09408L13.2736,9.09408L13.2736,8.125L9.4904,8.125L9.4904,9.09408L10.7959,9.09408L10.7959,13Z" fill="#FFFFFF" fill-opacity="1"/></g></g></svg>