<svg xmlns="http://www.w3.org/2000/svg" xmlns:xlink="http://www.w3.org/1999/xlink" fill="none" version="1.1" width="14" height="14" viewBox="0 0 14 14"><g><g><path d="M2.2330744263744355,3.46187C2.1510444263744355,3.50315,2.0835944263744355,3.56423,2.0380244263744354,3.63853C1.9013044263744354,3.85976,1.9906244263744355,4.14042,2.2348944263744355,4.26425L6.400264426374435,6.35932C6.702864426374435,6.51121,7.069274426374435,6.51286,7.375524426374436,6.36428L11.690364426374435,4.25929C11.774264426374435,4.21802,11.843464426374435,4.15693,11.890864426374435,4.08264C12.029464426374435,3.86141,11.943764426374436,3.58074,11.701264426374436,3.45527L7.499484426374435,1.28755C7.189584426374435,1.12741,6.810414426374435,1.12741,6.498694426374436,1.2859L2.2330744263744355,3.46187ZM7.481254426374435,0.115362L13.099464426374436,2.98309C13.407564426374435,3.13994,13.597164426374436,3.43546,13.598964426374435,3.7541L13.598964426374435,9.45159C13.598964426374435,9.77187,13.407564426374435,10.0657,13.101264426374435,10.2226L7.481254426374435,13.0936C7.182294426374435,13.2455,6.817704426374435,13.2455,6.518754426374436,13.0936L0.9005204263744354,10.2226C0.5924484263744354,10.0657,0.4028644263744354,9.77022,0.4028644263744354,9.44994L0.4028644263744354,3.7541C0.4028644263744354,3.43381,0.5942704263744354,3.13829,0.9023434263744354,2.98144L6.520574426374435,0.113711C6.817704426374435,-0.0381778,7.182294426374435,-0.0381778,7.481254426374435,0.115362Z" fill="#1296DB" fill-opacity="1"/></g><g><rect x="0" y="8" width="14" height="6" rx="3" fill="#F57C00" fill-opacity="1"/></g><g style="mix-blend-mode:passthrough"><path d="M3.58366,13.10417C4.48372,13.10417,5.00456,12.56055,5.00456,11.92253C5.00456,11.37565,4.72949,11.05339,4.268879999999999,10.8597L3.8050100000000002,10.66764C3.47461,10.53092,3.24349,10.44792,3.24349,10.22982C3.24349,10.02637,3.40951,9.91244,3.68457,9.91244C3.9742800000000003,9.91244,4.20378,10.01497,4.44954,10.20866L4.893879999999999,9.63737C4.569990000000001,9.31185,4.11426,9.14583,3.68457,9.14583C2.893555,9.14583,2.333659,9.64714,2.333659,10.28678C2.333659,10.84994,2.6998699999999998,11.18848,3.08887,11.34961L3.56413,11.55794C3.88477,11.699539999999999,4.089840000000001,11.77279,4.089840000000001,11.99577C4.089840000000001,12.2041,3.9335899999999997,12.33431,3.60482,12.33431C3.3085899999999997,12.33431,2.963542,12.17318,2.704753,11.9388L2.193685,12.57031C2.579427,12.92513,3.09863,13.10417,3.58366,13.10417ZM6.55404,10.94108L6.55404,9.96126L6.9528,9.96126C7.37923,9.96126,7.60872,10.07357,7.60872,10.41699C7.60872,10.76042,7.37923,10.94108,6.9528,10.94108L6.55404,10.94108ZM7.66895,13L8.668289999999999,13L7.83822,11.481449999999999C8.22396,11.30241,8.47786,10.950849999999999,8.47786,10.41699C8.47786,9.52507,7.81868,9.25,7.02279,9.25L5.65885,9.25L5.65885,13L6.55404,13L6.55404,11.64583L6.98372,11.64583L7.66895,13ZM9.919920000000001,13L10.8151,13L10.8151,9.99544L11.82585,9.99544L11.82585,9.25L8.91569,9.25L8.91569,9.99544L9.919920000000001,9.99544L9.919920000000001,13Z" fill="#FFFFFF" fill-opacity="1"/></g></g></svg>