<svg xmlns="http://www.w3.org/2000/svg" xmlns:xlink="http://www.w3.org/1999/xlink" fill="none" version="1.1" width="14" height="14" viewBox="0 0 14 14"><g><g><path d="M2.2330744263744355,3.46187C2.1510444263744355,3.50315,2.0835944263744355,3.56423,2.0380244263744354,3.63853C1.9013044263744354,3.85976,1.9906244263744355,4.14042,2.2348944263744355,4.26425L6.400264426374435,6.35932C6.702864426374435,6.51121,7.069274426374435,6.51286,7.375524426374436,6.36428L11.690364426374435,4.25929C11.774264426374435,4.21802,11.843464426374435,4.15693,11.890864426374435,4.08264C12.029464426374435,3.86141,11.943764426374436,3.58074,11.701264426374436,3.45527L7.499484426374435,1.28755C7.189584426374435,1.12741,6.810414426374435,1.12741,6.498694426374436,1.2859L2.2330744263744355,3.46187ZM7.481254426374435,0.115362L13.099464426374436,2.98309C13.407564426374435,3.13994,13.597164426374436,3.43546,13.598964426374435,3.7541L13.598964426374435,9.45159C13.598964426374435,9.77187,13.407564426374435,10.0657,13.101264426374435,10.2226L7.481254426374435,13.0936C7.182294426374435,13.2455,6.817704426374435,13.2455,6.518754426374436,13.0936L0.9005204263744354,10.2226C0.5924484263744354,10.0657,0.4028644263744354,9.77022,0.4028644263744354,9.44994L0.4028644263744354,3.7541C0.4028644263744354,3.43381,0.5942704263744354,3.13829,0.9023434263744354,2.98144L6.520574426374435,0.113711C6.817704426374435,-0.0381778,7.182294426374435,-0.0381778,7.481254426374435,0.115362Z" fill="#1296DB" fill-opacity="1"/></g><g><rect x="0" y="8" width="14" height="6" rx="3" fill="#F57C00" fill-opacity="1"/></g><g style="mix-blend-mode:passthrough"><path d="M4.58366,13.10417C5.48372,13.10417,6.00456,12.56055,6.00456,11.92253C6.00456,11.37565,5.72949,11.05339,5.268879999999999,10.8597L4.80501,10.66764C4.47461,10.53092,4.2434899999999995,10.44792,4.2434899999999995,10.22982C4.2434899999999995,10.02637,4.40951,9.91244,4.68457,9.91244C4.97428,9.91244,5.20378,10.01497,5.44954,10.20866L5.893879999999999,9.63737C5.569990000000001,9.31185,5.11426,9.14583,4.68457,9.14583C3.893555,9.14583,3.333659,9.64714,3.333659,10.28678C3.333659,10.84994,3.6998699999999998,11.18848,4.08887,11.34961L4.5641300000000005,11.55794C4.88477,11.699539999999999,5.089840000000001,11.77279,5.089840000000001,11.99577C5.089840000000001,12.2041,4.93359,12.33431,4.60482,12.33431C4.30859,12.33431,3.963542,12.17318,3.704753,11.9388L3.193685,12.57031C3.579427,12.92513,4.09863,13.10417,4.58366,13.10417ZM6.97786,13L8.08301,13L8.408529999999999,11.37402C8.46387,11.08594,8.50781,10.7832,8.55827,10.50163L8.5778,10.50163C8.613610000000001,10.7832,8.66406,11.08594,8.72428,11.37402L9.05794,13L10.184239999999999,13L10.82878,9.25L9.98405,9.25L9.73828,10.965489999999999C9.69434,11.35449,9.64388,11.751629999999999,9.59831,12.15527L9.573889999999999,12.15527C9.49902,11.751629999999999,9.43392,11.34961,9.35905,10.965489999999999L8.97331,9.25L8.2181,9.25L7.83887,10.965489999999999C7.764,11.35449,7.68913,11.751629999999999,7.61914,12.15527L7.59798,12.15527C7.54915,11.751629999999999,7.4987,11.35938,7.44824,10.965489999999999L7.21387,9.25L6.3040400000000005,9.25L6.97786,13Z" fill="#FFFFFF" fill-opacity="1"/></g></g></svg>