<svg xmlns="http://www.w3.org/2000/svg" xmlns:xlink="http://www.w3.org/1999/xlink" fill="none" version="1.1" width="14" height="14" viewBox="0 0 14 14"><g><g><path d="M1.9417,3.40748C1.85468,3.4481,1.78312,3.50823,1.73477,3.58135C1.58972,3.79911,1.68449,4.07536,1.94364,4.19724L6.36276,6.2594C6.6838,6.4089,7.07252,6.41052,7.39743,6.26427L11.9751,4.19236C12.0641,4.15174,12.1376,4.09161,12.1879,4.01849C12.3349,3.80073,12.244,3.52448,11.9867,3.40098L7.52894,1.26732C7.20017,1.10969,6.7979,1.10969,6.46719,1.26569L1.9417,3.40748ZM7.5096,0.113549L13.4701,2.93622C13.7969,3.0906,13.9981,3.38148,14,3.69511L14,9.30307C14,9.61832,13.7969,9.90758,13.472,10.062L7.5096,12.8879C7.19243,13.0374,6.80564,13.0374,6.48847,12.8879L0.527973,10.062C0.201133,9.90758,0,9.6167,0,9.30144L0,3.69511C0,3.37985,0.203067,3.08897,0.529907,2.93459L6.4904,0.111924C6.80564,-0.0375778,7.19243,-0.0375778,7.5096,0.113549Z" fill="#1296DB" fill-opacity="1"/></g><g style="mix-blend-mode:passthrough"><rect x="0" y="7" width="14" height="7" rx="2" fill="#F57C00" fill-opacity="1"/></g><g style="mix-blend-mode:passthrough"><path d="M3.91292,13.13542C5.08301,13.13542,5.76009,12.428709999999999,5.76009,11.59928C5.76009,10.888349999999999,5.40251,10.4694,4.80371,10.21761L4.20068,9.96794C3.77116,9.7902,3.4707,9.68229,3.4707,9.39876C3.4707,9.13428,3.68652,8.98617,4.04411,8.98617C4.42074,8.98617,4.71908,9.11947,5.03857,9.37126L5.61621,8.62858C5.19515,8.205400000000001,4.6027,7.98958,4.04411,7.98958C3.01579,7.98958,2.28792,8.64128,2.28792,9.47282C2.28792,10.204920000000001,2.764,10.645019999999999,3.26969,10.85449L3.88753,11.12533C4.30436,11.30941,4.57096,11.404620000000001,4.57096,11.6945C4.57096,11.96533,4.36784,12.134599999999999,3.94043,12.134599999999999C3.55534,12.134599999999999,3.10677,11.92513,2.77034,11.62044L2.10596,12.441410000000001C2.60742,12.90267,3.28239,13.13542,3.91292,13.13542ZM7.02539,13L8.46208,13L8.88525,10.886230000000001C8.95719,10.51172,9.01432,10.11816,9.07992,9.75212L9.10531,9.75212C9.15186,10.11816,9.21745,10.51172,9.29574,10.886230000000001L9.72949,13L11.1937,13L12.0316,8.125L10.9334,8.125L10.6139,10.355139999999999C10.5568,10.86084,10.4912,11.37712,10.432,11.90186L10.4002,11.90186C10.3029,11.37712,10.2183,10.85449,10.1209,10.355139999999999L9.61947,8.125L8.6377,8.125L8.14469,10.355139999999999C8.04736,10.86084,7.95003,11.37712,7.85905,11.90186L7.83154,11.90186C7.76807,11.37712,7.70247,10.86719,7.63688,10.355139999999999L7.33219,8.125L6.14941,8.125L7.02539,13Z" fill="#FFFFFF" fill-opacity="1"/></g></g></svg>