<svg xmlns="http://www.w3.org/2000/svg" xmlns:xlink="http://www.w3.org/1999/xlink"  viewBox="0 0 512 512" width="16" height="16">
    <defs>
        <svg id="base" viewBox="0 0 512 512" width="384" height="384">
            <path d="M234.5 5.7c13.9-5 29.1-5 43.1 0l192 68.6C495 83.4 512 107.5 512 134.6V377.4c0 27-17 51.2-42.5 60.3l-192 68.6c-13.9 5-29.1 5-43.1 0l-192-68.6C17 428.6 0 404.5 0 377.4V134.6c0-27 17-51.2 42.5-60.3l192-68.6zM256 66L82.3 128 256 190l173.7-62L256 66zm32 368.6l160-57.1v-188L288 246.6v188z"/>
        </svg>
        <svg id="action" viewBox="0 0 512 512" x="128" y="128" width="384" height="384">
            <path d="M403.8 34.4c12-5 25.7-2.2 34.9 6.9l64 64c6 6 9.4 14.1 9.4 22.6s-3.4 16.6-9.4 22.6l-64 64c-9.2 9.2-22.9 11.9-34.9 6.9s-19.8-16.6-19.8-29.6V160H352c-10.1 0-19.6 4.7-25.6 12.8L284 229.3 244 176l31.2-41.6C293.3 110.2 321.8 96 352 96h32V64c0-12.9 7.8-24.6 19.8-29.6zM164 282.7L204 336l-31.2 41.6C154.7 401.8 126.2 416 96 416H32c-17.7 0-32-14.3-32-32s14.3-32 32-32H96c10.1 0 19.6-4.7 25.6-12.8L164 282.7zm274.6 188c-9.2 9.2-22.9 11.9-34.9 6.9s-19.8-16.6-19.8-29.6V416H352c-30.2 0-58.7-14.2-76.8-38.4L121.6 172.8c-6-8.1-15.5-12.8-25.6-12.8H32c-17.7 0-32-14.3-32-32s14.3-32 32-32H96c30.2 0 58.7 14.2 76.8 38.4L326.4 339.2c6 8.1 15.5 12.8 25.6 12.8h32V320c0-12.9 7.8-24.6 19.8-29.6s25.7-2.2 34.9 6.9l64 64c6 6 9.4 14.1 9.4 22.6s-3.4 16.6-9.4 22.6l-64 64z"/>        </svg>
        <mask id="mask">
            <use fill="#fff" xlink:href="#base"></use>
            <use stroke="#000" stroke-width="128" fill="#000" xlink:href="#action"></use>
            <use fill="#fff" xlink:href="#action"></use>
        </mask>
    </defs>
    <g mask="url(#mask)">
        <use fill="#689f38" fill-opacity="0.8" xlink:href="#base"></use>
        <use fill="#87939a" xlink:href="#action"></use>
    </g>
</svg>