<?xml version="1.0" standalone="no"?><!DOCTYPE svg PUBLIC "-//W3C//DTD SVG 1.1//EN" "http://www.w3.org/Graphics/SVG/1.1/DTD/svg11.dtd"><svg t="1652781298832" class="icon" viewBox="0 0 1024 1024" version="1.1" xmlns="http://www.w3.org/2000/svg" p-id="9575" xmlns:xlink="http://www.w3.org/1999/xlink" width="13" height="13"><defs><style type="text/css"></style></defs><path d="M264.192 374.784l241.664 116.736 180.224-407.552c0 0 4.096-34.816-26.624-57.344-30.72-22.528-73.728 30.72-73.728 30.72L264.192 374.784zM759.808 649.216l-241.664-116.736-180.224 407.552c0 0-4.096 34.816 26.624 57.344 30.72 22.528 73.728-30.72 73.728-30.72L759.808 649.216zM649.216 264.192l-116.736 241.664 407.552 180.224c0 0 34.816 4.096 57.344-26.624 22.528-30.72-30.72-73.728-30.72-73.728L649.216 264.192zM374.784 759.808l116.736-241.664L83.968 337.92c0 0-34.816-4.096-57.344 26.624s30.72 73.728 30.72 73.728L374.784 759.808z" p-id="9576" data-spm-anchor-id="a313x.7781069.0.i71" class="selected" fill="#e01e5a"></path></svg>