<svg xmlns="http://www.w3.org/2000/svg" xmlns:xlink="http://www.w3.org/1999/xlink" fill="none" version="1.1" width="14" height="14" viewBox="0 0 14 14"><g><g><path d="M1.9417,3.40748C1.85468,3.4481,1.78312,3.50823,1.73477,3.58135C1.58972,3.79911,1.68449,4.07536,1.94364,4.19724L6.36276,6.2594C6.6838,6.4089,7.07252,6.41052,7.39743,6.26427L11.9751,4.19236C12.0641,4.15174,12.1376,4.09161,12.1879,4.01849C12.3349,3.80073,12.244,3.52448,11.9867,3.40098L7.52894,1.26732C7.20017,1.10969,6.7979,1.10969,6.46719,1.26569L1.9417,3.40748ZM7.5096,0.113549L13.4701,2.93622C13.7969,3.0906,13.9981,3.38148,14,3.69511L14,9.30307C14,9.61832,13.7969,9.90758,13.472,10.062L7.5096,12.8879C7.19243,13.0374,6.80564,13.0374,6.48847,12.8879L0.527973,10.062C0.201133,9.90758,0,9.6167,0,9.30144L0,3.69511C0,3.37985,0.203067,3.08897,0.529907,2.93459L6.4904,0.111924C6.80564,-0.0375778,7.19243,-0.0375778,7.5096,0.113549Z" fill="#1296DB" fill-opacity="1"/></g><g><rect x="0" y="7" width="14" height="7" rx="0" fill="#F57C00" fill-opacity="1"/></g><g style="mix-blend-mode:passthrough"><path d="M1.27018,13L2.70687,13L3.13005,10.886230000000001C3.20199,10.51172,3.25911,10.11816,3.32471,9.75212L3.3501,9.75212C3.39665,10.11816,3.46224,10.51172,3.54053,10.886230000000001L3.97428,13L5.43848,13L6.27637,8.125L5.17822,8.125L4.85872,10.355139999999999C4.8016,10.86084,4.736,11.37712,4.67676,11.90186L4.64502,11.90186C4.54769,11.37712,4.46305,10.85449,4.36572,10.355139999999999L3.86426,8.125L2.88249,8.125L2.38949,10.355139999999999C2.29216,10.86084,2.19482,11.37712,2.10384,11.90186L2.07633,11.90186C2.01286,11.37712,1.94727,10.86719,1.88167,10.355139999999999L1.57699,8.125L0.394206,8.125L1.27018,13ZM6.94922,13L8.11296,13L8.11296,10.96875L9.7041,10.96875L9.7041,13L10.8615,13L10.8615,8.125L9.7041,8.125L9.7041,9.961590000000001L8.11296,9.961590000000001L8.11296,8.125L6.94922,8.125L6.94922,13ZM11.9596,13L13.1234,13L13.1234,8.125L11.9596,8.125L11.9596,13Z" fill="#FFFFFF" fill-opacity="1"/></g></g></svg>