<svg xmlns="http://www.w3.org/2000/svg" xmlns:xlink="http://www.w3.org/1999/xlink" fill="none" version="1.1" width="14" height="14" viewBox="0 0 14 14"><g><g><path d="M2.2330744263744355,3.46187C2.1510444263744355,3.50315,2.0835944263744355,3.56423,2.0380244263744354,3.63853C1.9013044263744354,3.85976,1.9906244263744355,4.14042,2.2348944263744355,4.26425L6.400264426374435,6.35932C6.702864426374435,6.51121,7.069274426374435,6.51286,7.375524426374436,6.36428L11.690364426374435,4.25929C11.774264426374435,4.21802,11.843464426374435,4.15693,11.890864426374435,4.08264C12.029464426374435,3.86141,11.943764426374436,3.58074,11.701264426374436,3.45527L7.499484426374435,1.28755C7.189584426374435,1.12741,6.810414426374435,1.12741,6.498694426374436,1.2859L2.2330744263744355,3.46187ZM7.481254426374435,0.115362L13.099464426374436,2.98309C13.407564426374435,3.13994,13.597164426374436,3.43546,13.598964426374435,3.7541L13.598964426374435,9.45159C13.598964426374435,9.77187,13.407564426374435,10.0657,13.101264426374435,10.2226L7.481254426374435,13.0936C7.182294426374435,13.2455,6.817704426374435,13.2455,6.518754426374436,13.0936L0.9005204263744354,10.2226C0.5924484263744354,10.0657,0.4028644263744354,9.77022,0.4028644263744354,9.44994L0.4028644263744354,3.7541C0.4028644263744354,3.43381,0.5942704263744354,3.13829,0.9023434263744354,2.98144L6.520574426374435,0.113711C6.817704426374435,-0.0381778,7.182294426374435,-0.0381778,7.481254426374435,0.115362Z" fill="#1296DB" fill-opacity="1"/></g><g><rect x="0" y="8" width="14" height="6" rx="3" fill="#F57C00" fill-opacity="1"/></g><g style="mix-blend-mode:passthrough"><path d="M1.748698,13L2.85384,13L3.17936,11.37402C3.2347,11.08594,3.27865,10.7832,3.3291,10.50163L3.34863,10.50163C3.38444,10.7832,3.4349,11.08594,3.49512,11.37402L3.82878,13L4.955080000000001,13L5.59961,9.25L4.75488,9.25L4.50911,10.965489999999999C4.4651700000000005,11.35449,4.4147099999999995,11.751629999999999,4.36914,12.15527L4.34473,12.15527C4.2698599999999995,11.751629999999999,4.204750000000001,11.34961,4.12988,10.965489999999999L3.74414,9.25L2.98893,9.25L2.6097,10.965489999999999C2.53483,11.35449,2.4599599999999997,11.751629999999999,2.38997,12.15527L2.36882,12.15527C2.3199899999999998,11.751629999999999,2.26953,11.35938,2.21908,10.965489999999999L1.984701,9.25L1.0748698,9.25L1.748698,13ZM6.11719,13L7.01237,13L7.01237,11.4375L8.236329999999999,11.4375L8.236329999999999,13L9.12663,13L9.12663,9.25L8.236329999999999,9.25L8.236329999999999,10.66276L7.01237,10.66276L7.01237,9.25L6.11719,9.25L6.11719,13ZM9.97135,13L12.3167,13L12.3167,12.2513L10.86654,12.2513L10.86654,9.25L9.97135,9.25L9.97135,13Z" fill="#FFFFFF" fill-opacity="1"/></g></g></svg>