<svg xmlns="http://www.w3.org/2000/svg" xmlns:xlink="http://www.w3.org/1999/xlink" fill="none" version="1.1" width="16" height="14" viewBox="0 0 16 14"><g><g><path d="M2.9417,3.40748C2.85468,3.4481,2.7831200000000003,3.50823,2.73477,3.58135C2.58972,3.79911,2.6844900000000003,4.07536,2.9436400000000003,4.19724L7.36276,6.2594C7.6838,6.4089,8.07252,6.41052,8.39743,6.26427L12.9751,4.19236C13.0641,4.15174,13.1376,4.09161,13.1879,4.01849C13.3349,3.80073,13.244,3.52448,12.9867,3.40098L8.52894,1.26732C8.20017,1.10969,7.7979,1.10969,7.46719,1.26569L2.9417,3.40748ZM8.509599999999999,0.113549L14.4701,2.93622C14.7969,3.0906,14.9981,3.38148,15,3.69511L15,9.30307C15,9.61832,14.7969,9.90758,14.472,10.062L8.509599999999999,12.8879C8.19243,13.0374,7.80564,13.0374,7.48847,12.8879L1.527973,10.062C1.201133,9.90758,1,9.6167,1,9.30144L1,3.69511C1,3.37985,1.2030669999999999,3.08897,1.5299070000000001,2.93459L7.4904,0.111924C7.80564,-0.0375778,8.19243,-0.0375778,8.509599999999999,0.113549Z" fill="#1296DB" fill-opacity="1"/></g><g><rect x="1" y="7" width="14" height="7" rx="2" fill="#F57C00" fill-opacity="1"/></g><g style="mix-blend-mode:passthrough"><path d="M2.27018,13L3.70687,13L4.13005,10.886230000000001C4.20199,10.51172,4.25911,10.11816,4.32471,9.75212L4.3501,9.75212C4.39665,10.11816,4.46224,10.51172,4.54053,10.886230000000001L4.97428,13L6.43848,13L7.27637,8.125L6.17822,8.125L5.85872,10.355139999999999C5.8016,10.86084,5.736,11.37712,5.67676,11.90186L5.64502,11.90186C5.54769,11.37712,5.46305,10.85449,5.36572,10.355139999999999L4.86426,8.125L3.88249,8.125L3.38949,10.355139999999999C3.29216,10.86084,3.19482,11.37712,3.10384,11.90186L3.07633,11.90186C3.01286,11.37712,2.94727,10.86719,2.88167,10.355139999999999L2.57699,8.125L1.39421,8.125L2.27018,13ZM7.94922,13L9.11296,13L9.11296,10.96875L10.7041,10.96875L10.7041,13L11.8615,13L11.8615,8.125L10.7041,8.125L10.7041,9.961590000000001L9.11296,9.961590000000001L9.11296,8.125L7.94922,8.125L7.94922,13ZM12.9596,13L14.1234,13L14.1234,8.125L12.9596,8.125L12.9596,13Z" fill="#FFFFFF" fill-opacity="1"/></g></g></svg>