<svg xmlns="http://www.w3.org/2000/svg" xmlns:xlink="http://www.w3.org/1999/xlink" fill="none" version="1.1" width="16" height="16" viewBox="0 0 11 14"><g style="mix-blend-mode:passthrough"><g style="mix-blend-mode:passthrough"><path d="M0,3L0,14L11,14L11,0L3,0L0,3Z" fill-rule="evenodd" fill="#1296DB" fill-opacity="1"/></g><g style="mix-blend-mode:passthrough"><path d="M0,3L3,3L3,0L0,3Z" fill="#D8D8D8" fill-opacity="1"/></g><g style="mix-blend-mode:passthrough"><path d="M0.930989,10L3.58789,10L3.58789,9.17643L1.91569,9.17643L1.91569,8.28125L3.28532,8.28125L3.28532,7.45768L1.91569,7.45768L1.91569,6.694990000000001L3.52702,6.694990000000001L3.52702,5.875L0.930989,5.875L0.930989,10ZM4.36849,10L6.9484,10L6.9484,9.17643L5.35319,9.17643L5.35319,5.875L4.36849,5.875L4.36849,10ZM7.69141,10L8.67611,10L8.67611,8.41374L10.0726,8.41374L10.0726,7.59375L8.67611,7.59375L8.67611,6.694990000000001L10.3035,6.694990000000001L10.3035,5.875L7.69141,5.875L7.69141,10Z" fill="#FFFFFF" fill-opacity="1"/></g></g></svg>