<?xml version="1.0" standalone="no"?><!DOCTYPE svg PUBLIC "-//W3C//DTD SVG 1.1//EN" "http://www.w3.org/Graphics/SVG/1.1/DTD/svg11.dtd"><svg t="1652880380243" class="icon" viewBox="0 0 1024 1024" version="1.1" xmlns="http://www.w3.org/2000/svg" p-id="3077" xmlns:xlink="http://www.w3.org/1999/xlink" width="128" height="128"><defs><style type="text/css"></style></defs><path d="M512 241.777778m-139.377778 0a139.377778 139.377778 0 1 0 278.755556 0 139.377778 139.377778 0 1 0-278.755556 0Z" fill="#ffcf5d" p-id="3078"></path><path d="M230.4 731.363556m-139.377778 0a139.377778 139.377778 0 1 0 278.755556 0 139.377778 139.377778 0 1 0-278.755556 0Z" fill="#ffcf5d" p-id="3079"></path><path d="M221.639111 500.622222l-53.816889-12.401778A351.573333 351.573333 0 0 1 512 213.560889v55.296A296.846222 296.846222 0 0 0 221.639111 500.622222zM788.48 787.114667l-43.235556-34.133334A295.822222 295.822222 0 0 0 718.620444 352.711111l38.343112-39.936a350.776889 350.776889 0 0 1 31.516444 474.339556z" fill="#ffcf5d" p-id="3080"></path><path d="M793.6 730.794667m-139.377778 0a139.377778 139.377778 0 1 0 278.755556 0 139.377778 139.377778 0 1 0-278.755556 0Z" fill="#ffcf5d" p-id="3081"></path><path d="M520.078222 921.6a353.848889 353.848889 0 0 1-306.289778-176.469333L261.688889 717.596444A297.984 297.984 0 0 0 608.028444 853.333333l16.611556 52.679111A344.974222 344.974222 0 0 1 520.078222 921.6z" fill="#ffcf5d" p-id="3082"></path></svg>