<?xml version="1.0" standalone="no"?><!DOCTYPE svg PUBLIC "-//W3C//DTD SVG 1.1//EN" "http://www.w3.org/Graphics/SVG/1.1/DTD/svg11.dtd"><svg t="1653012728785" class="icon" viewBox="0 0 1024 1024" version="1.1" xmlns="http://www.w3.org/2000/svg" p-id="921" xmlns:xlink="http://www.w3.org/1999/xlink" width="128" height="128"><defs><style type="text/css">@font-face { font-family: feedback-iconfont; src: url("//at.alicdn.com/t/font_1031158_u69w8yhxdu.woff2?t=1630033759944") format("woff2"), url("//at.alicdn.com/t/font_1031158_u69w8yhxdu.woff?t=1630033759944") format("woff"), url("//at.alicdn.com/t/font_1031158_u69w8yhxdu.ttf?t=1630033759944") format("truetype"); }
</style></defs><path d="M250.5 321.7c-4.5 2.5-8.2 6.2-10.7 10.7-7.5 13.4-2.6 30.4 10.8 37.9l228.5 126.9c16.6 9.2 36.7 9.3 53.5 0.3L769.3 370c4.6-2.5 8.4-6.2 11-10.7 7.6-13.4 2.9-30.4-10.4-38L539.4 190c-17-9.7-37.8-9.7-54.9-0.1l-234 131.8zM538.4 119l308.2 173.7c16.9 9.5 27.3 27.4 27.4 46.7v345.1c0 19.4-10.5 37.2-27.3 46.7L538.4 905.1c-16.4 9.2-36.4 9.2-52.8 0L177.4 731.2c-16.9-9.5-27.3-27.4-27.3-46.8v-345c0-19.4 10.5-37.3 27.4-46.8l308.2-173.7c16.3-9.2 36.3-9.2 52.7 0.1z" p-id="922" fill="#6db23f"></path></svg>