<svg xmlns="http://www.w3.org/2000/svg" xmlns:xlink="http://www.w3.org/1999/xlink" fill="none" version="1.1" width="16" height="16" viewBox="0 0 16 16"><defs><clipPath id="master_svg0_5_0919"><rect x="0" y="0" width="16" height="16" rx="0"/></clipPath><clipPath id="master_svg1_5_0926"><rect x="4" y="4" width="8" height="8" rx="0"/></clipPath></defs><g clip-path="url(#master_svg0_5_0919)"><g><ellipse cx="8" cy="8" rx="7" ry="7" fill="#FFF7F7" fill-opacity="1"/><ellipse cx="8" cy="8" rx="6.5" ry="6.5" fill-opacity="0" stroke-opacity="1" stroke="#E55766" fill="none" stroke-width="1"/></g><g clip-path="url(#master_svg1_5_0926)"><g><path d="M11.5,10.5L11.5,8.83333Q11.5,8.784089999999999,11.49039,8.73579Q11.480789999999999,8.68749,11.46194,8.64199Q11.44309,8.59649,11.41573,8.55555Q11.38837,8.5146,11.35355,8.47978Q11.31873,8.44496,11.27778,8.4176Q11.23684,8.39024,11.19134,8.37139Q11.14584,8.35255,11.09755,8.34294Q11.04925,8.33333,11,8.33333Q10.95075,8.33333,10.90245,8.34294Q10.85416,8.35255,10.80866,8.37139Q10.76316,8.39024,10.72221,8.4176Q10.68127,8.44496,10.64645,8.47978Q10.61162,8.5146,10.58426,8.55555Q10.55691,8.59649,10.53806,8.64199Q10.519210000000001,8.68749,10.50961,8.73579Q10.5,8.784089999999999,10.5,8.83333L10.5,10.5L5.5,10.5L5.5,5.5L7.16667,5.5Q7.21591,5.5,7.26421,5.490393Q7.31251,5.480785,7.35801,5.46194Q7.40351,5.443094,7.44445,5.415735Q7.4854,5.388375,7.52022,5.353553Q7.55504,5.318731,7.5824,5.277785Q7.60976,5.236839,7.62861,5.191342Q7.64745,5.145845,7.6570599999999995,5.0975451Q7.66667,5.0492457,7.66667,5Q7.66667,4.9507543,7.6570599999999995,4.9024549Q7.64745,4.854155,7.62861,4.808658Q7.60976,4.763161,7.5824,4.722215Q7.55504,4.681269,7.52022,4.646447Q7.4854,4.611625,7.44445,4.584265Q7.40351,4.556906,7.35801,4.53806Q7.31251,4.519215,7.26421,4.509607Q7.21591,4.5,7.16667,4.5L5.5,4.5Q5.085787,4.5,4.792893,4.792893Q4.5,5.085787,4.5,5.5L4.5,10.5Q4.5,10.91422,4.792895,11.20711Q5.0857874,11.5,5.5,11.5L10.5,11.5Q10.91422,11.5,11.20711,11.20711Q11.5,10.91422,11.5,10.5Z" fill-rule="evenodd" fill="#E55766" fill-opacity="1"/></g><g><path d="M10.17520298828125,4.69234501171875L8.17519898828125,5.35901201171875Q8.10053198828125,5.38390101171875,8.03712198828125,5.43052501171875Q7.97371198828125,5.47714901171875,7.92769198828125,5.54099901171875Q7.88167198828125,5.60484801171875,7.85749198828125,5.67974801171875Q7.83331298828125,5.75464801171875,7.83331298828125,5.83335401171875L7.83339998828125,5.84268301171875Q7.83482498828125,5.91902801171875,7.85897098828125,5.99146801171875Q7.89042198828125,6.08582001171875,7.95558598828125,6.16095501171875Q8.02074998828125,6.23608701171875,8.10970598828125,6.28056701171875Q8.21527898828125,6.33335701171875,8.33331298828125,6.33335701171875L8.33511750828125,6.33334701171875Q8.41533008828125,6.33305701171875,8.49142698828125,6.30769701171875L8.49154998828125,6.30765701171875L10.017082988281249,5.79914301171875L10.52564298828125,7.324797011718751Q10.55052298828125,7.39946701171875,10.59715298828125,7.46287701171875Q10.643772988281249,7.52628701171875,10.70762298828125,7.57230701171875Q10.77147298828125,7.618327011718749,10.84637298828125,7.642507011718751Q10.921272988281249,7.66668701171875,10.99998298828125,7.66668701171875L11.00931298828125,7.66659701171875Q11.08565298828125,7.66517701171875,11.15809298828125,7.64102701171875Q11.23276298828125,7.616137011718751,11.29617298828125,7.56951701171875Q11.35958298828125,7.522887011718749,11.40560298828125,7.45904701171875Q11.451622988281251,7.39519701171875,11.47580298828125,7.3202970117187505Q11.49998298828125,7.24539701171875,11.49998298828125,7.16668701171875L11.49989298828125,7.15735701171875Q11.49847298828125,7.08101701171875,11.47432298828125,7.00857701171875L10.80765298828125,5.00857301171875Q10.79208298828125,4.96185501171875,10.76769298828125,4.91907201171875Q10.74330298828125,4.87628901171875,10.71104298828125,4.83908601171875Q10.67877298828125,4.80188301171875,10.639872988281251,4.77169001171875Q10.60096298828125,4.74149701171875,10.55692298828125,4.71947301171875Q10.51287298828125,4.69745001171875,10.46537298828125,4.68444301171875Q10.41788298828125,4.67143601171875,10.36875298828125,4.66794501171875Q10.31963298828125,4.66445401171875,10.27077298828125,4.67061301171875Q10.22191298828125,4.67677301171875,10.17520298828125,4.69234501171875Z" fill-rule="evenodd" fill="#E55766" fill-opacity="1"/></g><g><path d="M8.76296298828125,7.36592701171875Q8.31126598828125,7.9036570117187495,7.14761798828125,8.36911701171875Q7.07803098828125,8.39694701171875,7.01966398828125,8.443967011718751Q6.96129698828125,8.49097701171875,6.91927898828125,8.55303701171875Q6.87726198828125,8.615097011718749,6.85528698828125,8.68675701171875Q6.83331298828125,8.75840701171875,6.83331298828125,8.83335701171875L6.8333159882812495,8.83512701171875Q6.83365398828125,8.93049701171875,6.86907498828125,9.019047011718751Q6.90601198828125,9.11139701171875,6.97547498828125,9.18256701171875Q7.04493898828125,9.253747011718751,7.13635298828125,9.29292701171875Q7.23068398828125,9.33335701171875,7.33331298828125,9.33335701171875L7.33964782828125,9.33331701171875Q7.43265058828125,9.33213701171875,7.51900798828125,9.29759701171875L7.51916298828125,9.29752701171875L7.52024398828125,9.297097011718751Q8.91587298828125,8.73862701171875,9.52866298828125,8.00911701171875Q10.16558298828125,7.25088701171875,10.80750298828125,5.32526501171875L10.80765298828125,5.32480101171875Q10.83331298828125,5.24782631171875,10.83331298828125,5.16668801110175L10.83320298828125,5.15607251171875Q10.83081298828125,5.04365301171875,10.78052298828125,4.94308001171875Q10.73605298828125,4.85412401171875,10.66091298828125,4.78896001171875Q10.58578298828125,4.72379601171875,10.49142298828125,4.69234501171875Q10.41445298828125,4.66668701171875,10.33331298828125,4.66668701171875Q10.31950298828125,4.66668701171875,10.30572298828125,4.66744901171875Q10.23066298828125,4.67159701171875,10.160142988281251,4.69763301171875Q10.08962298828125,4.72366801171875,10.02987298828125,4.76929001171875Q9.97012298828125,4.81491101171875,9.926432988281249,4.87608401171875Q9.882742988281251,4.93725701171875,9.85897298828125,5.00857301171875Q9.27728298828125,6.75363701171875,8.76296298828125,7.36592701171875Z" fill-rule="evenodd" fill="#E55766" fill-opacity="1"/></g></g></g></svg>