<svg xmlns="http://www.w3.org/2000/svg" xmlns:xlink="http://www.w3.org/1999/xlink" fill="none" version="1.1" width="16" height="16" viewBox="0 0 16 16"><defs><clipPath id="master_svg0_5_1023"><rect x="0" y="0" width="16" height="16" rx="0"/></clipPath><clipPath id="master_svg1_5_1025"><rect x="3" y="3" width="10" height="10" rx="0"/></clipPath></defs><g clip-path="url(#master_svg0_5_1023)"><g><ellipse cx="8" cy="8" rx="7" ry="7" fill="#45322B" fill-opacity="1"/><ellipse cx="8" cy="8" rx="6.5" ry="6.5" fill-opacity="0" stroke-opacity="1" stroke="#C87D55" fill="none" stroke-width="1"/></g><g clip-path="url(#master_svg1_5_1025)"><g><path d="M6.33331298828125,6.208343505859375L12.16664298828125,6.208343505859375Q12.21589298828125,6.208343505859375,12.26419298828125,6.198736505859375Q12.31249298828125,6.189128505859375,12.35798298828125,6.170283505859375Q12.40348298828125,6.151437505859375,12.44443298828125,6.124078505859375Q12.48537298828125,6.096718505859375,12.52020298828125,6.061896505859375Q12.55502298828125,6.027074505859375,12.58238298828125,5.986128505859375Q12.60974298828125,5.945182505859375,12.62858298828125,5.899685505859375Q12.64743298828125,5.854188505859375,12.65703298828125,5.805888605859375Q12.66664298828125,5.757589205859375,12.66664298828125,5.708343505859375Q12.66664298828125,5.659097805859375,12.65703298828125,5.610798405859375Q12.64743298828125,5.562498505859375,12.62858298828125,5.517001505859375Q12.60974298828125,5.471504505859375,12.58238298828125,5.430558505859375Q12.55502298828125,5.389612505859375,12.52020298828125,5.354790505859375Q12.48537298828125,5.319968505859375,12.44443298828125,5.292608505859375Q12.40348298828125,5.265249505859375,12.35798298828125,5.246403505859375Q12.31249298828125,5.227558505859375,12.26419298828125,5.217950505859375Q12.21589298828125,5.208343505859375,12.16664298828125,5.208343505859375L6.33331298828125,5.208343505859375Q5.09310298828125,5.208343505859375,4.21430998828125,6.084806505859375Q3.33331298828125,6.963473505859375,3.33331298828125,8.208343505859375Q3.33331298828125,9.456893505859375,4.21466698828125,10.334423505859375Q5.09239298828125,11.208343505859375,6.33331298828125,11.208343505859375L9.24998298828125,11.208343505859375Q10.90386298828125,11.208343505859375,11.93094298828125,9.909883505859375Q12.30229298828125,9.440453505859375,12.49118298828125,8.874993505859376Q12.57946298828125,8.610803505859375,12.62355298828125,8.335393505859376Q12.62983298828125,8.296133505859375,12.62983298828125,8.256363505859376L12.62968298828125,8.244233505859375Q12.62863298828125,8.200773505859376,12.62009298828125,8.158143505859375Q12.61155298828125,8.115513505859376,12.59577298828125,8.074993505859375Q12.58000298828125,8.034473505859374,12.55747298828125,7.997293505859375Q12.53495298828125,7.960103505859375,12.50634298828125,7.927363505859375Q12.47773298828125,7.894623505859375,12.44390298828125,7.867313505859375Q12.41007298828125,7.840003505859375,12.37203298828125,7.818943505859375Q12.33399298828125,7.7978835058593745,12.29289298828125,7.783703505859375Q12.25179298828125,7.769523505859375,12.20886298828125,7.762653505859375Q12.16960298828125,7.756363505859375,12.12983298828125,7.756363505859375Q12.12090298828125,7.756363505859375,12.11198298828125,7.756683505859375Q11.95988298828125,7.762113505859375,11.83661298828125,7.8513735058593745Q11.756052988281251,7.909693505859375,11.70394298828125,7.9944135058593755Q11.651842988281249,8.079123505859375,11.636122988281251,8.177333505859375Q11.60500298828125,8.371703505859376,11.54269298828125,8.558153505859375Q11.40931298828125,8.957453505859375,11.14664298828125,9.289503505859376Q10.41984298828125,10.208343505859375,9.24998298828125,10.208343505859375L6.33331298828125,10.208343505859375Q5.50533298828125,10.208343505859375,4.92023298828125,9.625783505859374Q4.33331298828125,9.041403505859375,4.33331298828125,8.208343505859375Q4.33331298828125,7.378463505859375,4.92048298828125,6.792853505859375Q5.50653298828125,6.208343505859375,6.33331298828125,6.208343505859375Z" fill-rule="evenodd" fill="#C87D55" fill-opacity="1"/></g><g><path d="M10.56332101171875,6.604603505859375L10.56313401171875,6.604793505859375Q10.49280701171875,6.675113505859375,10.45474701171875,6.767003505859375Q10.41668701171875,6.8588835058593745,10.41668701171875,6.958343505859375Q10.41668701171875,7.0578035058593755,10.45474701171875,7.149683505859375Q10.49280701171875,7.241573505859375,10.56313401171875,7.311893505859375Q10.63346001171875,7.3822235058593755,10.72534501171875,7.420283505859375Q10.81723081171875,7.458343505859375,10.91668701171875,7.458343505859375Q11.01614321171875,7.458343505859375,11.10802901171875,7.420283505859375Q11.19991401171875,7.3822235058593755,11.27024001171875,7.311893505859375L11.27042801171875,7.311713505859375L12.52023701171875,6.061893505859375Q12.55506701171875,6.027073505859375,12.58241701171875,5.9861335058593745Q12.60977701171875,5.945183505859375,12.62862701171875,5.899683505859375Q12.64747701171875,5.854183505859375,12.65707701171875,5.805893505859375Q12.66668701171875,5.757593505859375,12.66668701171875,5.708343505859375Q12.66668701171875,5.659093505859375,12.65707701171875,5.610793505859375Q12.64747701171875,5.562503505859375,12.62862701171875,5.517003505859375Q12.60977701171875,5.471503505859375,12.58241701171875,5.430558505859375Q12.55506701171875,5.389612505859375,12.52023701171875,5.354790505859375L11.27030001171875,4.1048495058593755L11.27024001171875,4.104790505859375Q11.19991401171875,4.034463505859375,11.10802901171875,3.9964035058593748Q11.01614321171875,3.958343505859375,10.91668701171875,3.958343505859375Q10.81723081171875,3.958343505859375,10.72534501171875,3.9964035058593748Q10.63346001171875,4.034463505859375,10.56313401171875,4.104790505859375Q10.49280701171875,4.175116505859375,10.45474701171875,4.267001505859375Q10.41668701171875,4.358887305859375,10.41668701171875,4.458343505859375Q10.41668701171875,4.557799705859375,10.45474701171875,4.649685505859375Q10.49280701171875,4.741570505859375,10.56313401171875,4.811896505859375L10.56319301171875,4.811956505859375L11.45958001171875,5.708343505859375L10.56332101171875,6.604603505859375Z" fill-rule="evenodd" fill="#C87D55" fill-opacity="1"/></g><g><path d="M7.5,6.958343505859375L7.5,9.458343505859375Q7.5,9.507593505859376,7.509607,9.555883505859375Q7.519215,9.604183505859375,7.53806,9.649683505859375Q7.556906,9.695183505859376,7.584265,9.736123505859375Q7.611625,9.777073505859375,7.646447,9.811893505859375Q7.681269,9.846713505859375,7.722215,9.874073505859375Q7.763161,9.901433505859375,7.808658,9.920283505859375Q7.854155,9.939123505859374,7.9024549,9.948733505859375Q7.9507543,9.958343505859375,8,9.958343505859375Q8.0492457,9.958343505859375,8.0975451,9.948733505859375Q8.145845,9.939123505859374,8.191342,9.920283505859375Q8.236839,9.901433505859375,8.277785,9.874073505859375Q8.318731,9.846713505859375,8.353553,9.811893505859375Q8.388375,9.777073505859375,8.415735,9.736123505859375Q8.443094,9.695183505859376,8.46194,9.649683505859375Q8.480785000000001,9.604183505859375,8.490393,9.555883505859375Q8.5,9.507593505859376,8.5,9.458343505859375L8.5,6.958343505859375Q8.5,6.909097805859375,8.490393,6.860798405859375Q8.480785000000001,6.812498505859375,8.46194,6.767001505859375Q8.443094,6.721504505859375,8.415735,6.680558505859375Q8.388375,6.639612505859375,8.353553,6.604790505859375Q8.318731,6.569968505859375,8.277785,6.542608505859375Q8.236839,6.515249505859375,8.191342,6.496403505859375Q8.145845,6.477558505859375,8.0975451,6.467950505859375Q8.0492457,6.458343505859375,8,6.458343505859375Q7.9507543,6.458343505859375,7.9024549,6.467950505859375Q7.854155,6.477558505859375,7.808658,6.496403505859375Q7.763161,6.515249505859375,7.722215,6.542608505859375Q7.681269,6.569968505859375,7.646447,6.604790505859375Q7.611625,6.639612505859375,7.584265,6.680558505859375Q7.556906,6.721504505859375,7.53806,6.767001505859375Q7.519215,6.812498505859375,7.509607,6.860798405859375Q7.5,6.909097805859375,7.5,6.958343505859375Z" fill-rule="evenodd" fill="#C87D55" fill-opacity="1"/></g><g><path d="M6.709065,7.5421715058593755L6.708947,7.542290505859375Q6.63862,7.612616505859375,6.60056,7.704501505859375Q6.5625,7.796387505859375,6.5625,7.895843505859375Q6.5625,7.9953035058593755,6.60056,8.087183505859375Q6.638621,8.179073505859375,6.708947,8.249393505859375Q6.779273,8.319723505859375,6.871158,8.357783505859375Q6.9630438,8.395843505859375,7.0625,8.395843505859375Q7.1619562,8.395843505859375,7.253842,8.357783505859375Q7.345727,8.319723505859375,7.416053,8.249393505859375L7.4161719999999995,8.249273505859374L7.728553,7.936896505859375L8.35355,7.311896505859375Q8.42388,7.241570505859375,8.46194,7.149685505859375Q8.5,7.057799705859375,8.5,6.958343505859375Q8.5,6.858887305859375,8.46194,6.767001505859375Q8.42388,6.675116505859375,8.35355,6.604790505859375Q8.28323,6.534463505859375,8.19134,6.496403505859375Q8.09946,6.458343505859375,8,6.458343505859375Q7.900544,6.458343505859375,7.808658,6.496403505859375Q7.716773,6.534463505859375,7.646447,6.604790505859375L7.0214466,7.229790505859375L6.709065,7.5421715058593755Z" fill-rule="evenodd" fill="#C87D55" fill-opacity="1"/></g></g></g></svg>