<svg xmlns="http://www.w3.org/2000/svg" xmlns:xlink="http://www.w3.org/1999/xlink" fill="none" version="1.1" width="16" height="16" viewBox="0 0 16 16"><defs><clipPath id="master_svg0_5_1043"><rect x="0" y="0" width="16" height="16" rx="0"/></clipPath><clipPath id="master_svg1_5_1045"><rect x="3.5" y="13" width="9" height="9" rx="0"/></clipPath></defs><g clip-path="url(#master_svg0_5_1043)"><g><ellipse cx="8" cy="8" rx="7" ry="7" fill="#253627" fill-opacity="1"/><ellipse cx="8" cy="8" rx="6.5" ry="6.5" fill-opacity="0" stroke-opacity="1" stroke="#57965D" fill="none" stroke-width="1"/></g><g transform="matrix(0,-1,1,0,-9.5,16.5)" clip-path="url(#master_svg1_5_1045)"><g><path d="M5.4375,18.625L5.4375,21.25Q5.4375,21.29925,5.447107,21.34755Q5.456715,21.39584,5.47556,21.44134Q5.494406,21.48684,5.521765,21.52778Q5.549125,21.568730000000002,5.583947,21.60355Q5.618769,21.638379999999998,5.659715,21.66573Q5.700661,21.693089999999998,5.746158,21.71194Q5.791655,21.73079,5.8399549,21.740389999999998Q5.8882543,21.75,5.9375,21.75Q5.9867457,21.75,6.0350451,21.740389999999998Q6.083345,21.73079,6.128842,21.71194Q6.174339,21.693089999999998,6.215285,21.66573Q6.256231,21.638379999999998,6.291053,21.60355Q6.325875,21.568730000000002,6.353235,21.52778Q6.380594,21.48684,6.39944,21.44134Q6.418285,21.39584,6.427893,21.34755Q6.4375,21.29925,6.4375,21.25L6.4375,18.625Q6.4375,18.21079,6.730393,17.917897Q7.02329,17.625,7.4375,17.625L10.4375,17.625Q10.48675,17.625,10.53505,17.615393Q10.58334,17.605785,10.62884,17.58694Q10.67434,17.568094,10.71528,17.540735Q10.75623,17.513375,10.79105,17.478553Q10.82587,17.443731,10.85323,17.402785Q10.88059,17.361839,10.89944,17.316342Q10.91828,17.270845,10.92789,17.2225451Q10.9375,17.1742457,10.9375,17.125Q10.9375,17.0757543,10.92789,17.0274549Q10.91828,16.979155,10.89944,16.933658Q10.88059,16.888161,10.85323,16.847215Q10.82587,16.806269,10.79105,16.771447Q10.75623,16.736625,10.71528,16.709265Q10.67434,16.681906,10.62884,16.66306Q10.58334,16.644215,10.53505,16.634607Q10.48675,16.625,10.4375,16.625L7.4375,16.625Q6.609072,16.625,6.0232833,17.2107935Q5.4375,17.796582,5.4375,18.625Z" fill-rule="evenodd" fill="#57965D" fill-opacity="1"/></g><g transform="matrix(0,-1,1,0,-6.1143798828125,25.1143798828125)"><ellipse cx="10.43750011920929" cy="16.5518798828125" rx="0.9375001192092896" ry="0.9375" fill="#57965D" fill-opacity="1"/><ellipse cx="10.43750011920929" cy="16.5518798828125" rx="0.9375001192092896" ry="0.9375" fill-opacity="0" stroke-opacity="1" stroke="#57965D" fill="none" stroke-width="1"/></g><g><path d="M9.9375,15.625L9.9375,21.0625Q9.9375,21.11175,9.947107,21.160040000000002Q9.956714999999999,21.20834,9.97556,21.25384Q9.994406,21.29934,10.021765,21.34028Q10.049125,21.381230000000002,10.083947,21.41605Q10.118769,21.450870000000002,10.159715,21.47823Q10.200661,21.505589999999998,10.246158,21.52444Q10.291655,21.54328,10.3399549,21.552889999999998Q10.3882543,21.5625,10.4375,21.5625Q10.4867457,21.5625,10.5350451,21.552889999999998Q10.583345,21.54328,10.628842,21.52444Q10.674339,21.505589999999998,10.715285,21.47823Q10.756231,21.450870000000002,10.791053,21.41605Q10.825875,21.381230000000002,10.853235,21.34028Q10.880594,21.29934,10.89944,21.25384Q10.918285000000001,21.20834,10.927893,21.160040000000002Q10.9375,21.11175,10.9375,21.0625L10.9375,15.625Q10.9375,15.5757543,10.927893,15.5274549Q10.918285000000001,15.479155,10.89944,15.433658Q10.880594,15.388161,10.853235,15.347215Q10.825875,15.306269,10.791053,15.271447Q10.756231,15.236625,10.715285,15.209265Q10.674339,15.181906,10.628842,15.16306Q10.583345,15.144214999999999,10.5350451,15.134607Q10.4867457,15.125,10.4375,15.125Q10.3882543,15.125,10.3399549,15.134607Q10.291655,15.144214999999999,10.246158,15.16306Q10.200661,15.181906,10.159715,15.209265Q10.118769,15.236625,10.083947,15.271447Q10.049125,15.306269,10.021765,15.347215Q9.994406,15.388161,9.97556,15.433658Q9.956714999999999,15.479155,9.947107,15.5274549Q9.9375,15.5757543,9.9375,15.625Z" fill-rule="evenodd" fill="#57965D" fill-opacity="1"/></g><g><path d="M10.4375,20.542893L9.853553,19.958947Q9.783227,19.88862,9.691342,19.85056Q9.5994562,19.8125,9.5,19.8125Q9.4005438,19.8125,9.308658,19.85056Q9.216773,19.88862,9.146447,19.958947Q9.07612,20.029273,9.03806,20.121158Q9,20.2130438,9,20.3125Q9,20.4119562,9.03806,20.503842Q9.07612,20.595727,9.146447,20.666053L10.083947,21.60355Q10.118769,21.63838,10.159715,21.66573Q10.200661,21.69309,10.246158,21.71194Q10.291655,21.73079,10.339955,21.74039Q10.388254,21.75,10.4375,21.75Q10.486746,21.75,10.53505,21.74039Q10.58334,21.73079,10.62884,21.71194Q10.67434,21.69309,10.71529,21.66573Q10.75623,21.63838,10.79105,21.60355L11.72837,20.666241L11.72855,20.666053Q11.79888,20.595727,11.83694,20.503842Q11.875,20.4119562,11.875,20.3124999912711Q11.875,20.2130438,11.83694,20.121158Q11.79888,20.029273,11.72855,19.958947Q11.65823,19.88862,11.56634,19.85056Q11.47446,19.8125,11.375,19.8125Q11.27554,19.8125,11.18366,19.85056Q11.09177,19.88862,11.02145,19.958947L10.4375,20.542893Z" fill-rule="evenodd" fill="#57965D" fill-opacity="1"/></g><g><path d="M5.9375,20.542893L5.353553,19.958947Q5.283227,19.88862,5.191342,19.85056Q5.0994562,19.8125,5,19.8125Q4.9005438,19.8125,4.808658,19.85056Q4.716773,19.88862,4.646447,19.958947Q4.57612,20.029273,4.53806,20.121158Q4.5,20.2130438,4.5,20.3125Q4.5,20.4119562,4.53806,20.503842Q4.57612,20.595727,4.646447,20.666053L5.583947,21.60355Q5.618769,21.63838,5.659715,21.66573Q5.700661,21.69309,5.746158,21.71194Q5.791655,21.73079,5.839955,21.74039Q5.888254,21.75,5.9375,21.75Q5.986746,21.75,6.03505,21.74039Q6.08334,21.73079,6.12884,21.71194Q6.17434,21.69309,6.2152899999999995,21.66573Q6.25623,21.63838,6.29105,21.60355L7.22837,20.666241L7.22855,20.666053Q7.2988800000000005,20.595727,7.33694,20.503842Q7.375,20.4119562,7.375,20.3124999912711Q7.375,20.2130438,7.33694,20.121158Q7.2988800000000005,20.029273,7.22855,19.958947Q7.15823,19.88862,7.06634,19.85056Q6.9744600000000005,19.8125,6.875,19.8125Q6.7755399999999995,19.8125,6.68366,19.85056Q6.59177,19.88862,6.52145,19.958947L5.9375,20.542893Z" fill-rule="evenodd" fill="#57965D" fill-opacity="1"/></g></g></g></svg>