<svg xmlns="http://www.w3.org/2000/svg" xmlns:xlink="http://www.w3.org/1999/xlink" fill="none" version="1.1" width="16" height="16" viewBox="0 0 16 16"><defs><clipPath id="master_svg0_5_0902"><rect x="0" y="0" width="16" height="16" rx="0"/></clipPath><clipPath id="master_svg1_5_0909"><rect x="3" y="3" width="10" height="10" rx="0"/></clipPath></defs><g clip-path="url(#master_svg0_5_0902)"><g><ellipse cx="8" cy="8" rx="7" ry="7" fill="#FCE9DA" fill-opacity="1"/><ellipse cx="8" cy="8" rx="6.5" ry="6.5" fill-opacity="0" stroke-opacity="1" stroke="#E66D17" fill="none" stroke-width="1"/></g><g clip-path="url(#master_svg1_5_0909)"><g><path d="M5.3947670703125,10.5833740234375L6.1249770703125,10.5833740234375Q6.1742270703125,10.5833740234375,6.2225270703125,10.5737670234375Q6.2708270703124995,10.564159023437501,6.3163270703125,10.5453140234375Q6.3618170703125,10.5264680234375,6.4027670703125,10.4991090234375Q6.443707070312501,10.4717490234375,6.4785370703125,10.4369270234375Q6.5133570703125,10.4021050234375,6.5407170703125,10.3611590234375Q6.5680770703124995,10.3202130234375,6.5869170703125,10.2747160234375Q6.6057670703125,10.2292190234375,6.615377070312499,10.1809191234375Q6.6249770703125,10.1326197234375,6.6249770703125,10.0833740234375Q6.6249770703125,10.0341283234375,6.615377070312499,9.9858289234375Q6.6057670703125,9.9375290234375,6.5869170703125,9.8920320234375Q6.5680770703124995,9.8465350234375,6.5407170703125,9.8055890234375Q6.5133570703125,9.7646430234375,6.4785370703125,9.7298210234375Q6.443707070312501,9.6949990234375,6.4027670703125,9.6676390234375Q6.3618170703125,9.6402800234375,6.3163170703125004,9.6214340234375Q6.2708270703124995,9.602589023437499,6.2225270703125,9.5929810234375Q6.1742270703125,9.5833740234375,6.1249770703125,9.5833740234375L4.3907470703125,9.5833740234375Q4.3415013703125,9.5833740234375,4.2932019703125,9.5929810234375Q4.2449020703125,9.602589023437499,4.1994050703125,9.6214340234375Q4.1539080703125,9.6402800234375,4.1129620703125,9.6676390234375Q4.0720160703125,9.6949990234375,4.0371940703125,9.7298210234375Q4.0023720703125,9.7646430234375,3.9750120703125,9.8055890234375Q3.9476530703125,9.8465350234375,3.9288070703124998,9.8920320234375Q3.9099620703125,9.9375290234375,3.9003540703125,9.9858289234375Q3.8907470703125,10.0341283234375,3.8907470703125,10.0833740234375Q3.8907470703125,10.2175710234375,3.9579420703125,10.3337330234375Q4.5737120703125,11.3982340234375,5.6332770703125,12.0228040234375Q6.7256270703125,12.6667040234375,7.9999770703125,12.6667040234375Q9.5544670703125,12.6667040234375,10.7985970703125,11.737534023437501L10.7991570703125,11.737114023437499L10.7992370703125,11.737064023437501Q10.8939870703125,11.666264023437499,10.946987070312499,11.5605240234375Q10.9999770703125,11.454784023437501,10.9999770703125,11.3364940234375L10.999947070312501,11.3308740234375Q10.9981170703125,11.1678540234375,10.900537070312499,11.0372470234375Q10.8410170703125,10.9575710234375,10.7555270703125,10.9067380234375Q10.6700470703125,10.8559060234375,10.571617070312499,10.8416570234375Q10.535987070312501,10.8364990234375,10.4999870703125,10.8364990234375L10.499197070312501,10.8365000234375Q10.3334870703125,10.8367580234375,10.2007270703125,10.9359420234375L10.2000770703125,10.9364240234375Q9.2221670703125,11.6667040234375,7.9999770703125,11.6667040234375Q6.9984270703125,11.6667040234375,6.1410770703125,11.161334023437501Q5.7242570703125,10.9156360234375,5.3947670703125,10.5833740234375Z" fill-rule="evenodd" fill="#E66D17" fill-opacity="1"/></g><g><path d="M9.8669289765625,3.7219287109375Q11.122075976562499,4.2703654109375,11.8843959765625,5.4129137109375005Q12.6666259765625,6.5853237109375,12.6666259765625,8.0000237109375Q12.6666259765625,9.2539537109375,12.0420159765625,10.3337237109375Q11.9750559765625,10.4494637109375,11.8592559765625,10.5163437109375Q11.8166059765625,10.5409637109375,11.769975976562499,10.556803710937501Q11.7233459765625,10.572633710937499,11.6745259765625,10.5790737109375Q11.6256959765625,10.5855037109375,11.5765559765625,10.5822837109375Q11.5274159765625,10.5790737109375,11.4798459765625,10.5663337109375Q11.4322759765625,10.553583710937499,11.3881059765625,10.531813710937499Q11.3439459765625,10.510033710937499,11.3048659765625,10.4800637109375Q11.2657959765625,10.4500837109375,11.2333259765625,10.4130637109375Q11.2008459765625,10.3760437109375,11.1762259765625,10.3333937109375L10.3342009765625,8.875313710937501L10.3340559765625,8.8750637109375Q10.2712639765625,8.7663337109375,10.2672929765625,8.6408337109375Q10.2670429765625,8.6329237109375,10.2670429765625,8.6250237109375Q10.2670429765625,8.5592237109375,10.2840669765625,8.4956637109375Q10.3097989765625,8.3995937109375,10.3703359765625,8.3206837109375Q10.4308729765625,8.241773710937501,10.5169989765625,8.192033710937501Q10.6257329765625,8.1292437109375,10.7512359765625,8.125273710937499Q10.7591359765625,8.1250237109375,10.7670459765625,8.1250237109375Q10.8328459765625,8.1250237109375,10.8964059765625,8.1420437109375Q10.992475976562499,8.1677737109375,11.0713859765625,8.228313710937499Q11.1502959765625,8.288853710937499,11.2000259765625,8.3749737109375L11.2002159765625,8.3752937109375L11.5404459765625,8.964463710937501Q11.6666259765625,8.5000137109375,11.6666259765625,8.0000237109375Q11.6666259765625,6.8883037109375,11.0525459765625,5.9679237109375Q10.4529519765625,5.0692567109375,9.4664399765625,4.6382297109375Q9.3996009765625,4.6090267109375,9.3438899765625,4.5619457109375Q9.2881789765625,4.5148647109375,9.2482399765625,4.4538297109375Q9.2083019765625,4.3927957109375,9.1874639765625,4.3228947109375Q9.1666259765625,4.2529942109375,9.1666259765625,4.1800537109375Q9.1666259765625,4.0846819109375,9.2017319765625,3.9960067109375Q9.2049499765625,3.9878777109375,9.2084499765625,3.9798667109375Q9.2480879765625,3.8891447109375,9.3193069765625,3.8203737109375Q9.3905259765625,3.7516017109375,9.4825789765625,3.7151597109375L9.4841999765625,3.7145207109375002Q9.5721566765625,3.6800537109375,9.6666259765625,3.6800537109375Q9.7619977765625,3.6800537109375,9.8506729765625,3.7151597109375Q9.8588019765625,3.7183777109375002,9.8668129765625,3.7218777109375L9.8669289765625,3.7219287109375Z" fill-rule="evenodd" fill="#E66D17" fill-opacity="1"/></g><g><path d="M7.0698840234375,4.4442680234375L6.7249040234374995,5.0416640234375Q6.6578940234375,5.1577040234375,6.6578940234375,5.2917040234375Q6.6578940234375,5.3055440234375,6.6586640234375,5.3193640234375Q6.6621040234375,5.3815740234375,6.6807140234375,5.4410340234375Q6.6993240234375,5.5004940234375,6.7319540234375,5.5535740234375Q6.7645840234375,5.6066440234375,6.8092440234375005,5.6500940234375Q6.8539040234375,5.6935440234375,6.907854023437499,5.7246940234375Q7.023894023437499,5.7917040234375,7.1578940234375,5.7917040234375L7.1668540234375,5.7916240234375Q7.2280940234374995,5.7905340234375,7.2872640234374995,5.7746840234375Q7.3833340234375004,5.7489540234375,7.4622440234375,5.6884140234375Q7.5411540234375,5.6278740234375,7.5908840234375,5.5417440234375L8.4330340234375,4.0834130234375Q8.457654023437499,4.0407670234375,8.4734940234375,3.9941370234375Q8.4893240234375,3.9475060234375,8.495754023437499,3.8986820234375Q8.5021940234375,3.8498582234375,8.498974023437501,3.8007176234375Q8.495754023437499,3.7515771234375,8.4830140234375,3.7040080234375Q8.4702740234375,3.6564390234375,8.448494023437501,3.6122700234375Q8.426724023437501,3.5681010234375,8.396744023437499,3.5290290234375Q8.3667740234375,3.4899570234375,8.329744023437499,3.4574840234375Q8.2927240234375,3.4250110234375,8.2500840234375,3.4003840234375Q8.1340440234375,3.3333740234375,8.0000440234375,3.3333740234375Q6.0670440234375,3.3333740234375,4.7002090234375,4.7002090234375Q3.3333740234375,6.0670440234375,3.3333740234375,8.0000440234375Q3.3333740234375,8.2342540234375,3.3563930234375,8.466104023437499Q3.3609500234375,8.5120040234375,3.3738280234375,8.5562940234375Q3.3867050234375,8.6005840234375,3.4074670234375,8.641774023437499Q3.4282300234375,8.6829640234375,3.4561770234375,8.7196540234375Q3.4841250234375,8.756354023437499,3.5183130234375,8.7873140234375Q3.5525020234375,8.8182740234375,3.5917780234375,8.8424640234375Q3.6310540234375,8.8666440234375,3.6740910234375,8.8832440234375Q3.7171290234375,8.8998340234375,3.7624753234375,8.9082640234375Q3.8078219234375,8.9167040234375,3.8539469234375,8.9167040234375L3.8584396234375,8.9166840234375Q3.8809478234375,8.9164840234375,3.9033468234375,8.9142640234375Q4.0023160234375,8.9044340234375,4.0899920234375,8.8574840234375Q4.1776680234375,8.8105340234375,4.2407010234375,8.7336040234375Q4.3539470234375,8.5953940234375,4.3539470234375,8.4167040234375L4.3539450234375,8.4154840234375Q4.3538860234375,8.3913340234375,4.3515010234375,8.3673040234375L4.3514930234375,8.3672340234375L4.3513780234375,8.3660740234375Q4.3333740234375,8.1841140234375,4.3333740234375,8.0000440234375Q4.3333740234375,6.4812540234375,5.4073140234375,5.4073140234375Q6.1361540234375,4.6784730234375,7.0698840234375,4.4442680234375Z" fill-rule="evenodd" fill="#E66D17" fill-opacity="1"/></g><g><path d="M9.25,8Q9.25,8.06141,9.24398,8.12252Q9.237960000000001,8.18363,9.22598,8.24386Q9.214,8.30409,9.19618,8.36286Q9.17835,8.42162,9.15485,8.47835Q9.13135,8.53509,9.1024,8.58925Q9.07345,8.6434,9.03934,8.69446Q9.00522,8.745519999999999,8.96626,8.79299Q8.92731,8.84046,8.88388,8.88388Q8.84046,8.92731,8.79299,8.96626Q8.745519999999999,9.00522,8.69446,9.03934Q8.6434,9.07345,8.58925,9.1024Q8.53509,9.13135,8.47835,9.15485Q8.42162,9.17835,8.36286,9.19618Q8.30409,9.214,8.24386,9.22598Q8.18363,9.237960000000001,8.12252,9.24398Q8.06141,9.25,8,9.25Q7.93859,9.25,7.87748,9.24398Q7.81637,9.237960000000001,7.75614,9.22598Q7.695908,9.214,7.637144,9.19618Q7.57838,9.17835,7.5216460000000005,9.15485Q7.464912,9.13135,7.410754,9.1024Q7.356597,9.07345,7.305537,9.03934Q7.254478,9.00522,7.207008,8.96626Q7.159539,8.92731,7.116116,8.88388Q7.072694,8.84046,7.033737,8.79299Q6.99478,8.745519999999999,6.960663,8.69446Q6.926546,8.6434,6.897598,8.58925Q6.868651,8.53509,6.8451506,8.47835Q6.8216505,8.42162,6.8038246000000004,8.36286Q6.7859986,8.30409,6.7740184,8.24386Q6.7620382,8.18363,6.75601909,8.12252Q6.75,8.06141,6.75,8Q6.75,7.93859,6.75601909,7.87748Q6.7620382,7.81637,6.7740184,7.75614Q6.7859986,7.695908,6.8038246000000004,7.637144Q6.8216505,7.57838,6.8451506,7.5216460000000005Q6.868651,7.464912,6.897598,7.410754Q6.926546,7.356597,6.960663,7.305537Q6.99478,7.254478,7.033737,7.207008Q7.072694,7.159539,7.116116,7.116116Q7.159539,7.072694,7.207008,7.033737Q7.254478,6.99478,7.305537,6.960663Q7.356597,6.926546,7.410754,6.897598Q7.464912,6.868651,7.5216460000000005,6.8451506Q7.57838,6.8216505,7.637144,6.8038246000000004Q7.695908,6.7859986,7.75614,6.7740184Q7.81637,6.7620382,7.87748,6.75601909Q7.93859,6.75,8,6.75Q8.06141,6.75,8.12252,6.75601909Q8.18363,6.7620382,8.24386,6.7740184Q8.30409,6.7859986,8.36286,6.8038246000000004Q8.42162,6.8216505,8.47835,6.8451506Q8.53509,6.868651,8.58925,6.897598Q8.6434,6.926546,8.69446,6.960663Q8.745519999999999,6.99478,8.79299,7.033737Q8.84046,7.072694,8.88388,7.116116Q8.92731,7.159539,8.96626,7.207008Q9.00522,7.254478,9.03934,7.305537Q9.07345,7.356597,9.1024,7.410754Q9.13135,7.464912,9.15485,7.5216460000000005Q9.17835,7.57838,9.19618,7.637144Q9.214,7.695908,9.22598,7.75614Q9.237960000000001,7.81637,9.24398,7.87748Q9.25,7.93859,9.25,8Z" fill="#E66D17" fill-opacity="1"/><path d="M6.7625639,6.7625639Q6.25,7.2751280000000005,6.25,8Q6.25,8.72487,6.7625639,9.23744Q7.2751280000000005,9.75,8,9.75Q8.72487,9.75,9.23744,9.23744Q9.75,8.72487,9.75,8Q9.75,7.2751280000000005,9.23744,6.7625639Q8.72487,6.25,8,6.25Q7.2751280000000005,6.25,6.7625639,6.7625639ZM7.469671,8.53033Q7.25,8.31066,7.25,8Q7.25,7.689341,7.469671,7.469671Q7.689341,7.25,8,7.25Q8.31066,7.25,8.53033,7.469671Q8.75,7.689341,8.75,8Q8.75,8.31066,8.53033,8.53033Q8.31066,8.75,8,8.75Q7.689341,8.75,7.469671,8.53033Z" fill-rule="evenodd" fill="#E66D17" fill-opacity="1"/></g></g></g></svg>