<svg xmlns="http://www.w3.org/2000/svg" xmlns:xlink="http://www.w3.org/1999/xlink" fill="none" version="1.1" width="16" height="16" viewBox="0 0 16 16"><defs><clipPath id="master_svg0_5_0831"><rect x="0" y="0" width="16" height="16" rx="0"/></clipPath><clipPath id="master_svg1_5_0838"><rect x="3" y="3" width="9" height="9" rx="0"/></clipPath></defs><g clip-path="url(#master_svg0_5_0831)"><g><ellipse cx="8" cy="8" rx="7" ry="7" fill="#F2FCF3" fill-opacity="1"/><ellipse cx="8" cy="8" rx="6.5" ry="6.5" fill-opacity="0" stroke-opacity="1" stroke="#56A76A" fill="none" stroke-width="1"/></g><g clip-path="url(#master_svg1_5_0838)"><g><path d="M4.7868040703125,6.9510014062500005Q4.4524225703125,7.48601140625,4.2139500703125,7.65246140625Q4.1323950703125,7.7093814062499995,4.0788310703125,7.7931814062499996Q4.0252670703125,7.87698140625,4.0078490703125,7.97490140625Q4.0001220703125,8.01834140625,4.0001220703125,8.06246140625L4.0002070703125,8.07166140625Q4.0030070703125,8.22383140625,4.0901150703125,8.34863140625Q4.1470380703125,8.43019140625,4.2308380703125,8.48375140625Q4.3146380703125,8.53732140625,4.4125574703125,8.554741406249999Q4.4559987703125,8.56246140625,4.5001220703125,8.56246140625L4.5093223303125,8.562381406250001Q4.6614920703125,8.55958140625,4.7862940703125,8.47247140625Q5.1922020703125,8.189161406250001,5.6348020703124995,7.48100140625Q6.1490920703125,6.65813140625,6.3040020703124995,5.83470140625Q6.3856520703125,5.40069140625,6.6505820703125,5.26866740625Q6.8089420703125,5.18975340625,7.1127720703125,5.18994640625L7.1251220703125,5.18995140625L7.1251820703124995,5.18995140625Q7.2246420703125,5.18993940625,7.3165220703125,5.15186840625Q7.4084020703124995,5.11379740625,7.4787220703125,5.04346240625Q7.5490220703125,4.97313940625,7.5870720703125,4.88126640625Q7.6251220703125,4.78939310625,7.6251220703125,4.68995285275Q7.6251120703125,4.64070490625,7.6155020703125,4.59240420625Q7.6058920703125,4.54410340625,7.5870420703125,4.49860640625Q7.5681920703125005,4.45310840625,7.5408320703125,4.41216240625Q7.5134720703125,4.37121640625,7.4786520703125,4.33639440625Q7.443832070312499,4.30157340625,7.4028920703125,4.27421440625Q7.3619420703125,4.24685540625,7.3164520703125,4.22801040625Q7.2709520703125,4.20916540625,7.2226620703125,4.19955840625Q7.1743620703125,4.18995140625,7.1251220703125,4.18995140625L7.1250620703125005,4.18995140625L7.1249120703125,4.18995140625L7.1134020703125,4.18994640625Q5.5960620703125,4.18898440625,5.3212410703125,5.64981640625Q5.2011870703125,6.28799140625,4.7868040703125,6.9510014062500005Z" fill-rule="evenodd" fill="#56A76A" fill-opacity="1"/></g><g><path d="M5.6348220703125005,8.64415703515625Q5.1921850703125,7.93585303515625,4.7862940703125,7.65255403515625Q4.6573580703125,7.56256103515625,4.5001223315045,7.56256103515625Q4.4819699703125,7.56256103515625,4.4638657703125,7.56387703515625Q4.3511900703125,7.57206903515625,4.2529820703125,7.62791003515625Q4.1547740703125005,7.68375003515625,4.0901150703125,7.77638903515625Q4.0001220703125,7.90532503515625,4.0001220703125,8.06256103515625Q4.0001220703125,8.08071293515625,4.0014380703125,8.09881733515625Q4.0096300703125,8.21149303515625,4.0654710703125,8.30970103515625Q4.1213110703125,8.40790903515625,4.2139500703125,8.47256803515625Q4.4523808703125,8.63898503515625,4.7867890703125,9.17411103515625Q5.2011810703125,9.83722103515625,5.3212410703125,10.47542103515625Q5.5965220703125,11.938711035156249,7.1154620703125,11.93757103515625L7.125232070312499,11.93756103515625Q7.1744720703125004,11.93755103515625,7.2227620703125,11.92793103515625Q7.2710520703125,11.91832103515625,7.3165420703125,11.89947103515625Q7.3620320703125,11.88062103515625,7.402962070312499,11.85325103515625Q7.4439020703125,11.82589103515625,7.4787120703125005,11.79107103515625Q7.5135320703125,11.75625103515625,7.540882070312501,11.715311035156251Q7.5682320703125,11.67437103515625,7.5870720703125,11.628881035156251Q7.6059120703125,11.58338103515625,7.6155220703125,11.535091035156249Q7.6251220703125,11.486801035156251,7.6251220703125,11.43756103515625L7.6251220703125,11.43745103515625Q7.6251120703125,11.38821103515625,7.6154920703125,11.33992103515625Q7.6058820703125,11.29163103515625,7.5870320703125,11.24614103515625Q7.5681820703125,11.20065103515625,7.5408120703125,11.15972103515625Q7.5134520703125,11.11878103515625,7.4786320703125,11.08397103515625Q7.4438120703125,11.04915103515625,7.4028720703125,11.02180103515625Q7.3619320703125,10.99445103515625,7.3164420703125,10.97561103515625Q7.2709420703125005,10.956771035156251,7.2226520703125,10.947161035156249Q7.1743620703125,10.93756103515625,7.1251220703125,10.93756103515625L7.125012070312501,10.93756103515625L7.1147020703125,10.93757103515625Q6.8113320703125,10.93779103515625,6.652322070312501,10.85859103515625Q6.3859020703125005,10.72588103515625,6.3040020703124995,10.29054103515625Q6.1490920703125,9.46711103515625,5.6348220703125005,8.64415703515625Z" fill-rule="evenodd" fill="#56A76A" fill-opacity="1"/></g><g><ellipse cx="4.4998779296875" cy="8.062561094760895" rx="0.75" ry="0.8437500596046448" fill="#56A76A" fill-opacity="1"/></g><g><path d="M4.5001220703125,8.5625L7.1251220703125,8.5625Q7.1743720703125,8.5625,7.2226720703125,8.552893Q7.2709620703125,8.543285000000001,7.3164620703125,8.52444Q7.3619620703125,8.505594,7.4029120703124995,8.478235Q7.4438520703125,8.450875,7.4786720703125,8.416053Q7.5135020703125,8.381231,7.5408520703125,8.340285Q7.5682120703125,8.299339,7.5870620703125,8.253842Q7.6059120703125,8.208345,7.6155120703125,8.1600451Q7.6251220703125,8.1117457,7.6251220703125,8.0625Q7.6251220703125,8.0132543,7.6155120703125,7.9649549Q7.6059120703125,7.916655,7.5870620703125,7.871158Q7.5682120703125,7.825661,7.5408520703125,7.784715Q7.5135020703125,7.743769,7.4786720703125,7.708947Q7.4438520703125,7.674125,7.4029120703124995,7.646765Q7.3619620703125,7.619406,7.3164620703125,7.60056Q7.2709620703125,7.581715,7.2226720703125,7.572107Q7.1743720703125,7.5625,7.1251220703125,7.5625L4.5001220703125,7.5625Q4.4508763703125,7.5625,4.4025769703125,7.572107Q4.3542770703125,7.581715,4.3087800703125,7.60056Q4.2632830703125,7.619406,4.2223370703125,7.646765Q4.1813910703125,7.674125,4.1465690703125,7.708947Q4.1117470703125,7.743769,4.0843870703125,7.784715Q4.0570280703125,7.825661,4.0381820703125,7.871158Q4.0193370703125,7.916655,4.0097290703125,7.9649549Q4.0001220703125,8.0132543,4.0001220703125,8.0625Q4.0001220703125,8.1117457,4.0097290703125,8.1600451Q4.0193370703125,8.208345,4.0381820703125,8.253842Q4.0570280703125,8.299339,4.0843870703125,8.340285Q4.1117470703125,8.381231,4.1465690703125,8.416053Q4.1813910703125,8.450875,4.2223370703125,8.478235Q4.2632830703125,8.505594,4.3087800703125,8.52444Q4.3542770703125,8.543285000000001,4.4025769703125,8.552893Q4.4508763703125,8.5625,4.5001220703125,8.5625Z" fill-rule="evenodd" fill="#56A76A" fill-opacity="1"/></g><g><path d="M8.625,8.56256103515625L10.875,8.56256103515625Q10.92425,8.56256103515625,10.97255,8.55295403515625Q11.02084,8.543346035156251,11.06634,8.52450103515625Q11.11184,8.50565503515625,11.15278,8.47829603515625Q11.19373,8.45093603515625,11.22855,8.41611403515625Q11.26338,8.38129203515625,11.29073,8.34034603515625Q11.31809,8.29940003515625,11.33694,8.25390303515625Q11.35578,8.20840603515625,11.36539,8.16010613515625Q11.375,8.11180673515625,11.375,8.06256103515625Q11.375,8.01331533515625,11.36539,7.96501593515625Q11.35578,7.91671603515625,11.33694,7.87121903515625Q11.31809,7.82572203515625,11.29073,7.78477603515625Q11.26338,7.74383003515625,11.22855,7.70900803515625Q11.19373,7.67418603515625,11.15279,7.64682603515625Q11.11184,7.61946703515625,11.06634,7.60062103515625Q11.02084,7.58177603515625,10.97255,7.57216803515625Q10.92425,7.56256103515625,10.875,7.56256103515625L8.625,7.56256103515625Q8.5757543,7.56256103515625,8.5274549,7.57216803515625Q8.479155,7.58177603515625,8.433658,7.60062103515625Q8.388161,7.61946703515625,8.347215,7.64682603515625Q8.306269,7.67418603515625,8.271447,7.70900803515625Q8.236625,7.74383003515625,8.209265,7.78477603515625Q8.181906,7.82572203515625,8.16306,7.87121903515625Q8.144214999999999,7.91671603515625,8.134607,7.96501593515625Q8.125,8.01331533515625,8.125,8.06256103515625Q8.125,8.11180673515625,8.134607,8.16010613515625Q8.144214999999999,8.20840603515625,8.16306,8.25390303515625Q8.181906,8.29940003515625,8.209265,8.34034603515625Q8.236625,8.38129203515625,8.271447,8.41611403515625Q8.306269,8.45093603515625,8.347215,8.47829603515625Q8.388161,8.50565503515625,8.433658,8.52450103515625Q8.479155,8.543346035156251,8.5274549,8.55295403515625Q8.5757543,8.56256103515625,8.625,8.56256103515625Z" fill-rule="evenodd" fill="#56A76A" fill-opacity="1"/></g><g><path d="M8.625,5.187744140625L10.875,5.187744140625Q10.92425,5.187744140625,10.97255,5.178137140625Q11.02084,5.168529140625,11.06634,5.149684140625Q11.11184,5.130838140625,11.15278,5.103479140625Q11.19373,5.076119140625,11.22855,5.041297140625Q11.26338,5.006475140625,11.29073,4.965529140625Q11.31809,4.924583140625,11.33694,4.879086140625Q11.35578,4.833589140625,11.36539,4.785289240625Q11.375,4.736989840625,11.375,4.687744140625Q11.375,4.638498440625,11.36539,4.590199040625Q11.35578,4.541899140625,11.33694,4.496402140625Q11.31809,4.450905140625,11.29073,4.409959140625Q11.26338,4.369013140625,11.22855,4.334191140625Q11.19373,4.299369140625,11.15279,4.272009140625Q11.11184,4.244650140625,11.06634,4.225804140625Q11.02084,4.206959140625,10.97255,4.197351140625Q10.92425,4.187744140625,10.875,4.187744140625L8.625,4.187744140625Q8.5757543,4.187744140625,8.5274549,4.197351140625Q8.479155,4.206959140625,8.433658,4.225804140625Q8.388161,4.244650140625,8.347215,4.272009140625Q8.306269,4.299369140625,8.271447,4.334191140625Q8.236625,4.369013140625,8.209265,4.409959140625Q8.181906,4.450905140625,8.16306,4.496402140625Q8.144214999999999,4.541899140625,8.134607,4.590199040625Q8.125,4.638498440625,8.125,4.687744140625Q8.125,4.736989840625,8.134607,4.785289240625Q8.144214999999999,4.833589140625,8.16306,4.879086140625Q8.181906,4.924583140625,8.209265,4.965529140625Q8.236625,5.006475140625,8.271447,5.041297140625Q8.306269,5.076119140625,8.347215,5.103479140625Q8.388161,5.130838140625,8.433658,5.149684140625Q8.479155,5.168529140625,8.5274549,5.178137140625Q8.5757543,5.187744140625,8.625,5.187744140625Z" fill-rule="evenodd" fill="#56A76A" fill-opacity="1"/></g><g><path d="M8.625,11.937744140625L10.875,11.937744140625Q10.92425,11.937744140625,10.97255,11.928137140625Q11.02084,11.918529140625001,11.06634,11.899684140625Q11.11184,11.880838140625,11.15278,11.853479140625Q11.19373,11.826119140625,11.22855,11.791297140625Q11.26338,11.756475140625,11.29073,11.715529140625Q11.31809,11.674583140625,11.33694,11.629086140625Q11.35578,11.583589140625,11.36539,11.535289240625Q11.375,11.486989840625,11.375,11.437744140625Q11.375,11.388498440625,11.36539,11.340199040625Q11.35578,11.291899140625,11.33694,11.246402140625Q11.31809,11.200905140625,11.29073,11.159959140625Q11.26338,11.119013140625,11.22855,11.084191140625Q11.19373,11.049369140625,11.15279,11.022009140625Q11.11184,10.994650140625,11.06634,10.975804140625Q11.02084,10.956959140624999,10.97255,10.947351140625Q10.92425,10.937744140625,10.875,10.937744140625L8.625,10.937744140625Q8.5757543,10.937744140625,8.5274549,10.947351140625Q8.479155,10.956959140624999,8.433658,10.975804140625Q8.388161,10.994650140625,8.347215,11.022009140625Q8.306269,11.049369140625,8.271447,11.084191140625Q8.236625,11.119013140625,8.209265,11.159959140625Q8.181906,11.200905140625,8.16306,11.246402140625Q8.144214999999999,11.291899140625,8.134607,11.340199040625Q8.125,11.388498440625,8.125,11.437744140625Q8.125,11.486989840625,8.134607,11.535289240625Q8.144214999999999,11.583589140625,8.16306,11.629086140625Q8.181906,11.674583140625,8.209265,11.715529140625Q8.236625,11.756475140625,8.271447,11.791297140625Q8.306269,11.826119140625,8.347215,11.853479140625Q8.388161,11.880838140625,8.433658,11.899684140625Q8.479155,11.918529140625001,8.5274549,11.928137140625Q8.5757543,11.937744140625,8.625,11.937744140625Z" fill-rule="evenodd" fill="#56A76A" fill-opacity="1"/></g></g></g></svg>