<svg xmlns="http://www.w3.org/2000/svg" xmlns:xlink="http://www.w3.org/1999/xlink" fill="none" version="1.1" width="16" height="16" viewBox="0 0 16 16"><defs><clipPath id="master_svg0_5_1031"><rect x="0" y="0" width="16" height="16" rx="0"/></clipPath><clipPath id="master_svg1_5_1034"><rect x="3" y="3" width="10" height="11" rx="0"/></clipPath></defs><g clip-path="url(#master_svg0_5_1031)"><g><ellipse cx="8" cy="8" rx="7" ry="7" fill="#45322B" fill-opacity="1"/><ellipse cx="8" cy="8" rx="6.5" ry="6.5" fill-opacity="0" stroke-opacity="1" stroke="#C87D55" fill="none" stroke-width="1"/></g><g clip-path="url(#master_svg1_5_1034)"><g><path d="M10.2917040234375,9.42594734375L9.4583740234375,9.42594734375Q9.4091240234375,9.42594734375,9.3608240234375,9.43554734375Q9.3125240234375,9.445157343750001,9.2670340234375,9.46400734375Q9.2215340234375,9.48284734375,9.1805840234375,9.51020734375Q9.1396440234375,9.53756734375,9.1048240234375,9.57238734375Q9.0699940234375,9.60720734375,9.0426340234375,9.64815734375Q9.0152840234375,9.689107343749999,8.9964340234375,9.73459734375Q8.977584023437501,9.78009734375,8.9679840234375,9.82839734375Q8.9583740234375,9.87669734375,8.9583740234375,9.92594734375Q8.9583740234375,9.97181734375,8.9667240234375,10.01692734375Q8.974634023437499,10.05967734375,8.9898040234375,10.100427343749999Q9.0049740234375,10.14116734375,9.0269540234375,10.17868734375Q9.0489340234375,10.21619734375,9.077054023437501,10.249357343749999Q9.105174023437499,10.282517343750001,9.1386040234375,10.31031734375Q9.172024023437501,10.33812734375,9.2097440234375,10.35974734375Q9.2474640234375,10.38136734375,9.288354023437499,10.39614734375Q9.3292440234375,10.41093734375,9.3720740234375,10.41843734375Q9.414894023437501,10.42594734375,9.4583740234375,10.42594734375L10.2917040234375,10.42594734375Q11.2721840234375,10.42594734375,11.9670940234375,9.74647734375Q12.6667040234375,9.06240734375,12.6667040234375,8.09260734375Q12.6667040234375,7.12280834375,11.9670940234375,6.43874234375Q11.2721840234375,5.75927734375,10.2917040234375,5.75927734375Q9.3103440234375,5.75927734375,8.615254023437501,6.43979734375Q8.2370040234375,6.81011234375,7.5807640234375,7.82020734375Q6.9830540234375,8.74138734375,6.6817940234375,9.03425734375Q6.2788440234375,9.42594734375,5.7083740234375,9.42594734375Q5.1355440234375,9.42594734375,4.7321070234375,9.03146734375Q4.3333740234375,8.64159734375,4.3333740234375,8.09260734375Q4.3333740234375,7.54361734375,4.7321070234375,7.15374934375Q5.1355440234375,6.75927734375,5.7083740234375,6.75927734375L6.5417040234375,6.75927734375Q6.5909540234375,6.75927734375,6.6392540234375,6.74967034375Q6.6875540234374995,6.74006234375,6.7330440234375,6.72121734375Q6.7785440234375,6.70237134375,6.8194940234375,6.67501234375Q6.8604340234375005,6.64765234375,6.8952640234375,6.61283034375Q6.9300840234375,6.57800834375,6.9574440234375,6.53706234375Q6.9848040234374995,6.49611634375,7.0036440234375,6.45061934375Q7.0224940234375,6.40512234375,7.032104023437499,6.35682244375Q7.0417040234375,6.30852304375,7.0417040234375,6.25927734375Q7.0417040234375,6.21003164375,7.032104023437499,6.16173224375Q7.0224940234375,6.11343234375,7.0036440234375,6.06793534375Q6.9848040234374995,6.02243834375,6.9574440234375,5.98149234375Q6.9300840234375,5.94054634375,6.8952640234375,5.90572434375Q6.8604340234375005,5.87090234375,6.8194940234375,5.84354234375Q6.7785440234375,5.81618334375,6.7330440234375,5.79733734375Q6.6875540234374995,5.77849234375,6.6392540234375,5.76888434375Q6.5909540234375,5.75927734375,6.5417040234375,5.75927734375L5.7083740234375,5.75927734375Q4.7278990234375,5.75927734375,4.0329910234375,6.43874134375Q3.3333740234375,7.12280934375,3.3333740234375,8.09260734375Q3.3333740234375,9.06240734375,4.0329910234375,9.74647734375Q4.7279000234375,10.42594734375,5.7083740234375,10.42594734375Q6.6847840234375,10.42594734375,7.3788340234375,9.75128734375Q7.7607340234375,9.38003734375,8.4193240234375,8.36501734375Q9.0154440234375,7.4474673437500005,9.3148340234375,7.1543533437499995Q9.7183640234375,6.75927734375,10.2917040234375,6.75927734375Q10.8645440234375,6.75927734375,11.2679740234375,7.15374834375Q11.6667040234375,7.54361734375,11.6667040234375,8.09260734375Q11.6667040234375,8.64160734375,11.2679740234375,9.03147734375Q10.8645440234375,9.42594734375,10.2917040234375,9.42594734375Z" fill-rule="evenodd" fill="#C87D55" fill-opacity="1"/></g><g><path d="M10.6412640234375,9.468586984375Q10.6432740234375,9.466623984375,10.6452640234375,9.464636984375Q10.7155840234375,9.394310984375,10.7536440234375,9.302425984375Q10.7917040234375,9.210540184375,10.7917040234375,9.111083984374995Q10.7917040234375,9.013086984375,10.7547140234375,8.922339984375Q10.7177240234375,8.831593984375,10.6492140234375,8.761524984375Q10.6472440234375,8.759516984375,10.6452640234375,8.757530984375Q10.5759640234375,8.688235984375,10.4856440234375,8.650225984375Q10.3953160234375,8.612216984375,10.2973250234375,8.611115984375L10.2972440234375,8.611114984375L10.2917070234375,8.611083984375Q10.1937100234375,8.611083984375,10.1029640234375,8.648076984375Q10.0122170234375,8.685068984375,9.9421490234375,8.753580984375L9.9420570234375,8.753669984375L9.1088150234375,9.568395984375Q9.1047980234375,9.572322984375,9.1008710234375,9.576339984375Q9.0664420234375,9.611550984375,9.0395440234375,9.652801984375Q9.0126470234375,9.694052984375,8.9943140234375,9.739758984375Q8.9759810234375,9.785464984375,8.9669160234375,9.833868984375Q8.9578520234375,9.882273984375,8.9584060234375,9.931515984375Q8.9589590234375,9.980758984375,8.9691080234375,10.028946984375Q8.9792580234375,10.077135984375,8.9986130234375,10.122413984375001Q9.0179690234375,10.167703984375,9.0457860234375,10.208333984375Q9.0736040234375,10.248973984375,9.1088150234375,10.283403984375L9.9421490234375,11.098213984375Q10.0122170234375,11.166723984375,10.1029640234375,11.203723984375Q10.1937100234375,11.240713984375,10.2917070234375,11.240713984375L10.2973250234375,11.240683984375Q10.3967750234375,11.239563984375,10.4882240234375,11.200473984375Q10.5796840234375,11.161383984375,10.6492140234375,11.090273984375Q10.7177240234375,11.020203984375,10.7547140234375,10.929453984375Q10.7917040234375,10.838713984375,10.7917040234375,10.740713984375L10.7916740234375,10.735093984375Q10.7905540234375,10.635643984375,10.7514640234375,10.544193984375Q10.7123740234375,10.452743984375001,10.6412640234375,10.383213984375L10.6411240234375,10.383063984375L10.1735610234375,9.925898984375L10.6412640234375,9.468586984375Z" fill-rule="evenodd" fill="#C87D55" fill-opacity="1"/></g><g><path d="M6.0580240234375005,5.0870440078125L6.8912640234375,5.9017700078125Q6.8952840234375,5.9056970078125,6.8992140234375,5.9097140078125Q6.9336440234375,5.9449250078125,6.9605340234375,5.9861760078125Q6.9874340234375,6.0274270078125,7.0057640234375,6.0731330078125Q7.0241040234375,6.1188390078125,7.0331640234375,6.1672430078125Q7.0422240234375,6.2156480078125,7.0416740234374995,6.2648900078125Q7.0411240234375,6.3141330078125,7.0309740234374996,6.3623210078125Q7.0208240234375,6.4105100078125,7.0014640234375,6.4557880078125Q6.9821140234375,6.5010780078125,6.9542940234375,6.5417080078125Q6.9264740234375,6.5823480078125005,6.8912640234375,6.6167780078125L6.0579330234375,7.4315880078125005Q5.9916180234375,7.4964280078125,5.9064610234375,7.5331780078125Q5.8213040234375,7.5699180078125,5.7286333234375,7.5736780078125Q5.7185078234375,7.574088007812501,5.708374023437506,7.574088007812501Q5.6074570234375,7.574088007812501,5.5144400234375,7.5349480078125Q5.4214240234375,7.4957980078125,5.3508710234375,7.4236480078125Q5.2860300234375,7.3573280078125,5.2492860234375,7.2721780078125Q5.2125430234375,7.1870180078125,5.2087850234375,7.0943480078125Q5.2083740234375,7.0842180078125,5.2083740234375,7.0740880078125Q5.2083740234375,6.9731680078125,5.2475160234375,6.8801580078125Q5.2866590234375,6.7871380078125,5.3588150234375,6.7165880078125L5.3589930234375,6.7164080078125L5.8265200234375,6.2592730078125L5.3589070234375,5.8020510078125L5.3588150234375,5.8019610078125Q5.2866590234375,5.7314080078125,5.2475160234375,5.6383920078125Q5.2083740234375,5.5453750078125,5.2083740234375,5.444458007812494Q5.2083740234375,5.3466828078125,5.2452060234375,5.2561100078125Q5.2820370234375,5.1655370078125,5.3502740234375,5.0955110078125L5.3508710234375,5.0948990078125Q5.4214240234375,5.0227430078125,5.5144400234375,4.9836000078125Q5.6074570234375,4.9444580078125,5.7083740234375,4.9444580078125Q5.8061492234375,4.9444580078125,5.8967220234375,4.9812900078125Q5.9872950234375,5.0181210078125,6.0573210234375,5.0863580078125L6.0579330234375,5.0869550078125L6.0580240234375005,5.0870440078125Z" fill-rule="evenodd" fill="#C87D55" fill-opacity="1"/></g></g></g></svg>