<svg xmlns="http://www.w3.org/2000/svg" xmlns:xlink="http://www.w3.org/1999/xlink" viewBox="0 0 508.44 498.04"><defs><style>.cls-1{fill:none;}.cls-2{fill:#21222c;}.cls-3{clip-path:url(#clip-path);}.cls-4{fill:#fff;}.cls-5{fill:#e01e5a;}</style><clipPath id="clip-path" transform="translate(61.26 61.19)"><circle class="cls-1" cx="187.75" cy="187.83" r="187.5"/></clipPath></defs><title>资源 10</title><g id="图层_2" data-name="图层 2"><g id="图层_1-2" data-name="图层 1"><rect class="cls-2" x="61.26" y="61.19" width="375" height="375" rx="187.5"/><g class="cls-3"><rect class="cls-4" x="-3.41" y="27.29" width="111.65" height="234.34" rx="20.87" transform="translate(-25.53 140.56) rotate(-45)"/><rect class="cls-4" x="267.27" y="114.04" width="111.65" height="234.34" rx="20.87" transform="translate(-7.6 357.37) rotate(-45)"/><rect class="cls-4" x="113.96" y="-3.33" width="234.34" height="111.65" rx="20.87" transform="translate(91.84 240) rotate(-45)"/><rect class="cls-4" x="27.21" y="267.35" width="234.34" height="111.65" rx="20.87" transform="translate(-124.96 257.93) rotate(-45)"/><rect class="cls-1" x="91.98" y="91.98" width="314.08" height="314.08"/><path class="cls-5" d="M93,80.13l-75-75C13.65.77,91-35,97.18-35l67-23c6.19,0,77.77-1,73.39,3.39L102.85,80.13A7,7,0,0,1,93,80.13Z" transform="translate(61.26 61.19)"/><path class="cls-5" d="M295.52,93.05,381.87,6.71c4.38-4.39,24.31,50.1,24.31,56.3l41,128c0,6.2-21.89,41.65-26.27,37.27L295.52,102.89A7,7,0,0,1,295.52,93.05Z" transform="translate(61.26 61.19)"/><path class="cls-5" d="M282.22,295.33l83.32,83.32c4.38,4.38-13.17,8.36-19.36,8.36l-141,42c-6.2,0-71.12,4.64-66.74.26L272.38,295.33A7,7,0,0,1,282.22,295.33Z" transform="translate(61.26 61.19)"/><path class="cls-5" d="M80.05,282.57,10.39,352.23c-4.38,4.38-7.21-9-7.21-15.22l-36-150c0-6.19-5.31-32.46-.93-28.07L80.05,272.73A7,7,0,0,1,80.05,282.57Z" transform="translate(61.26 61.19)"/></g></g></g></svg>