<?xml version="1.0" standalone="no"?><!DOCTYPE svg PUBLIC "-//W3C//DTD SVG 1.1//EN" "http://www.w3.org/Graphics/SVG/1.1/DTD/svg11.dtd"><svg t="1653009809587" class="icon" viewBox="0 0 1024 1024" version="1.1" xmlns="http://www.w3.org/2000/svg" p-id="10045" xmlns:xlink="http://www.w3.org/1999/xlink" width="128" height="128"><defs><style type="text/css">@font-face { font-family: feedback-iconfont; src: url("//at.alicdn.com/t/font_1031158_u69w8yhxdu.woff2?t=1630033759944") format("woff2"), url("//at.alicdn.com/t/font_1031158_u69w8yhxdu.woff?t=1630033759944") format("woff"), url("//at.alicdn.com/t/font_1031158_u69w8yhxdu.ttf?t=1630033759944") format("truetype"); }
</style></defs><path d="M858.2 766.3V616.7c-22.1 19.3-47 35.2-73.7 47.2-86.5 38-180 57.2-274.5 56.3-122 7.1-242.8-27-343.1-96.7v150.7C173.7 840 318.8 912 512.3 912c193.5 0 337.5-72.6 345.9-138.9v-6.8z" p-id="10046" data-spm-anchor-id="a313x.7781069.0.i0" class="selected" fill="#6db23f"></path><path d="M858.2 507v-2.8 6.8c-8.4 66.4-152.4 138.9-345.9 138.9-193.5 0-338.6-72-345.4-137.8V361.3C267.2 431.1 388 465.1 510 458c94.5 0.9 188-18.2 274.5-56.3 26.7-12.1 51.6-28 73.7-47.2V507z" p-id="10047" data-spm-anchor-id="a313x.7781069.0.i1" class="selected" fill="#6db23f"></path><path d="M762.6 160.5c57.4 25.3 91.7 61.3 91.7 93.4 0 31.5-35.4 66.4-91.7 93.4-80 34-166.2 50.7-253.1 48.9-196.9 0-343.7-74.8-343.7-141.7s147.4-142.3 344.8-142.3c86.5-1.9 172.3 14.6 252 48.3z" p-id="10048" data-spm-anchor-id="a313x.7781069.0.i2" class="selected" fill="#6db23f"></path></svg>