<?xml version="1.0" standalone="no"?><!DOCTYPE svg PUBLIC "-//W3C//DTD SVG 1.1//EN" "http://www.w3.org/Graphics/SVG/1.1/DTD/svg11.dtd"><svg t="1652884560783" class="icon" viewBox="0 0 1024 1024" version="1.1" xmlns="http://www.w3.org/2000/svg" p-id="17192" xmlns:xlink="http://www.w3.org/1999/xlink" width="128" height="128"><defs><style type="text/css"></style></defs><path d="M512 0C229.234286 0 0 229.234286 0 512s229.234286 512 512 512 512-229.234286 512-512S794.777143 0 512 0z m263.051429 382.171429a24.731429 24.731429 0 0 0-6.342858 20.171428 230.068571 230.068571 0 0 1 2.057143 24.674286c1.074286 39.348571-8.48 73.417143-28.342857 101.382857-34.457143 48.285714-89.691429 63.794286-129.954286 75.097143-27.348571 7.634286-47.062857 9.622857-62.948571 11.154286-17.417143 1.76-26.205714 2.594286-38.662857 9.782857-2.445714 1.451429-4.891429 2.971429-7.257143 4.662857-22.537143 16.24-35.405714 42.525714-35.405714 70.274286v21.851428a24.582857 24.582857 0 0 0 11.005714 20.32 85.714286 85.714286 0 1 1-95.188571-0.08 24.434286 24.434286 0 0 0 10.777142-20.24V292.857143a24.594286 24.594286 0 0 0-11.005714-20.32 85.44 85.44 0 0 1-37.897143-72.274286c0.605714-46.068571 38.194286-83.657143 84.342857-84.342857a85.565714 85.565714 0 0 1 48.662858 156.777143 24.434286 24.434286 0 0 0-10.777143 20.251428v264.388572a4.08 4.08 0 0 0 6.114285 3.52h0.08c26.205714-15.051429 47.44-17.142857 68-19.177143 14.365714-1.371429 29.257143-2.902857 50.342858-8.788571 33.085714-9.245714 70.594286-19.782857 90.08-47.062858 12.994286-18.182857 15.737143-40.8 14.594285-60.811428a24.525714 24.525714 0 0 0-15.588571-21.474286 85.645714 85.645714 0 0 1-54.708572-80.445714c0.308571-47.142857 39.188571-85.337143 86.331429-84.96a85.565714 85.565714 0 0 1 61.714286 144z" p-id="17193" fill="#6db23f"></path></svg>