<svg xmlns="http://www.w3.org/2000/svg" xmlns:xlink="http://www.w3.org/1999/xlink" fill="none" version="1.1" width="14" height="14" viewBox="0 0 14 14"><defs><clipPath id="master_svg0_18_2236"><rect x="0" y="0" width="14" height="14" rx="0"/></clipPath></defs><g><g style="mix-blend-mode:passthrough"><rect x="0" y="0" width="14" height="14" rx="0" fill="#1296DB" fill-opacity="1"/></g><g clip-path="url(#master_svg0_18_2236)"><g><path d="M9.075499907226561,2.9005889892578125C9.094749907226563,2.9058390292578125,9.113129907226561,2.9110890892578123,9.132379907226563,2.9163388892578124C9.407129907226562,2.9933389892578126,9.535749907226563,3.3074639892578124,9.394879907226564,3.5524639892578125C9.133249907226563,4.009208989257813,8.868999907226563,4.464218989257812,8.605629907226563,4.919208989257813C7.541629907226563,6.762838989257812,6.477619907226563,8.605588989257813,5.413624907226563,10.450088989257813C5.370749907226562,10.524468989257812,5.3199999072265625,10.589218989257812,5.246499907226562,10.633838989257812C5.199249907226562,10.662718989257812,5.146749907226562,10.680218989257813,5.093374907226562,10.693338989257812C5.0863749072265625,10.695088989257812,5.079374907226563,10.698588989257813,5.073249907226563,10.702088989257813C5.035624907226563,10.702088989257813,4.997999907226562,10.702088989257813,4.960374907226562,10.702088989257813C4.946374907226563,10.696838989257813,4.932374907226563,10.691588989257813,4.918374907226562,10.688088989257812C4.707499907226563,10.636468989257812,4.568374567226562,10.453588989257813,4.577999711226562,10.238338989257812C4.580624517226562,10.170088989257813,4.599874807226563,10.105338989257813,4.633999807226562,10.044968989257812C5.420624907226562,8.681718989257813,6.208119907226562,7.319338989257813,6.994749907226563,5.956088989257813C7.5363799072265625,5.017218989257812,8.078879907226563,4.079218989257813,8.619629907226562,3.1403399892578125C8.672129907226562,3.0493399892578124,8.740379907226561,2.9775894892578125,8.837499907226562,2.9373396892578123C8.869869907226562,2.9242145892578124,8.903999907226563,2.9172146892578126,8.938129907226562,2.9075897292578126C8.944249907226563,2.9058396492578127,8.949499907226564,2.9032146292578127,8.954749907226564,2.9005898237228127C8.994999907226562,2.9005889892578125,9.035249907226563,2.9005889892578125,9.075499907226561,2.9005889892578125Z" fill="#FFFFFF" fill-opacity="1"/></g><g><path d="M0.8758697509765625,6.78996482421875C0.8811197909765625,6.7785848242187505,0.8881197509765625,6.76808482421875,0.8907447509765625,6.75671482421875C0.9099946509765625,6.67096482421875,0.9519947509765625,6.59833482421875,1.0132447509765625,6.53708482421875C1.7736197509765625,5.77671482421875,2.5339897509765628,5.01546082421875,3.2952497509765624,4.25596082421875C3.4203697509765627,4.13083523421875,3.5743697509765626,4.09496032421875,3.7414997509765624,4.14921012421875C3.9103697509765625,4.20346002421875,4.010989750976563,4.32420982421875,4.038999750976563,4.49920982421875C4.0617497509765625,4.64358482421875,4.019749750976562,4.77220982421875,3.9147497509765623,4.87721082421875C3.3871197509765625,5.40483482421875,2.8586197509765627,5.93246482421875,2.3301197509765625,6.46096482421875C2.1831197509765623,6.60796482421875,2.0361197509765625,6.754964824218749,1.8891197509765625,6.9028348242187505C1.8821197509765626,6.90983482421875,1.8751197509765625,6.91683482421875,1.8672447509765626,6.92558482421875C1.8768697509765624,6.93696482421875,1.8856197509765624,6.94658482421875,1.8952397509765626,6.956214824218749C2.5681197509765625,7.62908482421875,3.2409997509765627,8.30196482421875,3.9138697509765623,8.97483482421875C4.154499750976562,9.21546482421875,4.050369750976563,9.62146482421875,3.7222397509765623,9.709834824218749C3.5612397509765623,9.75358482421875,3.4159997509765625,9.71596482421875,3.2961197509765623,9.59783482421875C3.1534897509765627,9.456964824218751,3.0126197509765626,9.31433482421875,2.8708697509765626,9.172584824218749C2.2574997509765624,8.55833482421875,1.6432447509765624,7.94408482421875,1.0281197509765625,7.32983482421875C0.9581197509765625,7.26071482421875,0.9082446509765625,7.18371482421875,0.8889947509765626,7.08658482421875C0.8872447509765625,7.077834824218749,0.8802447509765625,7.06908482421875,0.8758697509765625,7.06121482421875C0.8758697509765625,6.9702148242187505,0.8758697509765625,6.88008482421875,0.8758697509765625,6.78996482421875Z" fill="#FFFFFF" fill-opacity="1"/></g><g><path d="M13.107501230468749,7.083124907226562C13.10312123046875,7.098004907226562,13.09875123046875,7.1137549072265625,13.09437123046875,7.128624907226563C13.07337123046875,7.198624907226563,13.03662123046875,7.258124907226563,12.98500123046875,7.310624907226563C12.72775123046875,7.567874907226562,12.47137123046875,7.8260049072265625,12.21500123046875,8.083254907226562C12.12837123046875,8.170754907226563,12.04175123046875,8.257374907226563,11.95512123046875,8.344874907226561C11.65062123046875,8.650254907226563,11.34612123046875,8.955624907226563,11.041621230468749,9.261004907226562C10.92962323046875,9.373874907226561,10.81937423046875,9.488504907226563,10.70474823046875,9.599624907226563C10.57699823046875,9.723004907226564,10.42387323046875,9.758004907226564,10.25674823046875,9.702874907226562C10.08787323046875,9.646874907226563,9.98812333046875,9.524374907226562,9.96187353046875,9.346754907226561C9.94087343046875,9.201504907226562,9.98637343046875,9.077254907226562,10.08962323046875,8.974004907226561C10.42212323046875,8.639754907226562,10.75462423046875,8.306374907226562,11.08712123046875,7.972134907226563C11.37325123046875,7.685124907226562,11.658501230468751,7.3981249072265625,11.94462123046875,7.1111249072265625C12.00500123046875,7.050754907226562,12.066251230468751,6.992124907226563,12.130121230468749,6.929124907226562C12.11875123046875,6.916874907226562,12.11087123046875,6.908124907226563,12.10212123046875,6.899374907226562C11.95337123046875,6.749754907226563,11.80462123046875,6.601004907226562,11.65675123046875,6.451374907226563C11.27262123046875,6.066374907226562,10.88849823046875,5.680504907226562,10.504373230468751,5.2955049072265625C10.36349823046875,5.154624907226562,10.22087323046875,5.014628907226562,10.08262323046875,4.871128907226563C9.96449793046875,4.748628907226562,9.92687273046875,4.600753907226562,9.97674783046875,4.437128907226563C10.02662303046875,4.274378907226563,10.13949823046875,4.171129107226562,10.30574823046875,4.135254207226563C10.46149823046875,4.102004107226563,10.59887323046875,4.145754307226563,10.71174823046875,4.258628907226562C11.01800123046875,4.565753907226562,11.32425123046875,4.873753907226563,11.63050123046875,5.1808749072265625C11.97087123046875,5.523004907226563,12.312121230468751,5.865124907226562,12.65250123046875,6.206374907226563C12.764501230468749,6.319254907226563,12.87737123046875,6.431254907226562,12.98937123046875,6.545004907226563C13.04712123046875,6.604504907226563,13.08825123046875,6.6736249072265625,13.10050123046875,6.757624907226562C13.10137123046875,6.761124907226563,13.10487123046875,6.763754907226563,13.10662123046875,6.766374907226563C13.107501230468749,6.872254907226562,13.107501230468749,6.9781249072265625,13.107501230468749,7.083124907226562Z" fill="#FFFFFF" fill-opacity="1"/></g></g></g></svg>