<svg xmlns="http://www.w3.org/2000/svg" xmlns:xlink="http://www.w3.org/1999/xlink" fill="none" version="1.1" width="14" height="14" viewBox="0 0 14 14"><defs><clipPath id="master_svg0_18_444"><rect x="2" y="0" width="10" height="7" rx="0"/></clipPath></defs><g><g style="mix-blend-mode:passthrough"><rect x="0" y="0" width="14" height="14" rx="0" fill="#1296DB" fill-opacity="1"/></g><g clip-path="url(#master_svg0_18_444)"><g><path d="M8.482508579101562,1.4503021240234375C8.496258579101562,1.4529271440234375,8.509378579101563,1.4555521640234375,8.523128579101563,1.4581770740234374C8.719378579101562,1.4966771240234376,8.811258579101562,1.6537391240234376,8.710628579101563,1.7762391240234374C8.523758579101562,2.0046141240234374,8.335008579101562,2.2321151240234376,8.146878579101562,2.4596121240234377C7.3868785791015625,3.3814321240234375,6.626878579101563,4.3028021240234375,5.866879579101562,5.2250521240234375C5.8362545791015625,5.262242124023437,5.800004579101563,5.294612124023438,5.747504579101562,5.316932124023437C5.713754579101563,5.331362124023437,5.676254579101562,5.340112124023438,5.638128579101562,5.346682124023438C5.6331295791015625,5.347552124023437,5.628129579101563,5.3493021240234375,5.623754579101562,5.351052124023438C5.5968785791015625,5.351052124023438,5.570004579101562,5.351052124023438,5.5431285791015625,5.351052124023438C5.533129579101563,5.348432124023438,5.523128579101563,5.345802124023438,5.513129579101562,5.344052124023437C5.362503979101563,5.318242124023437,5.263129049101562,5.226802124023438,5.270004153101563,5.119172124023438C5.271879019101562,5.085052124023438,5.285629179101562,5.052672124023438,5.3100042791015625,5.0224921240234375C5.871879579101563,4.340862124023437,6.434378579101562,3.6596821240234374,6.996258579101562,2.9780521240234377C7.383128579101562,2.5086121240234376,7.770628579101563,2.0396151240234373,8.156878579101562,1.5701771240234375C8.194378579101564,1.5246774240234375,8.243128579101562,1.4888023240234376,8.312508579101562,1.4686774240234375C8.335628579101563,1.4621149240234375,8.360008579101562,1.4586149640234376,8.384378579101563,1.4538024940234375C8.388758579101562,1.4529274540234376,8.392508579101563,1.4516149440234376,8.396258579101563,1.4503025412564374C8.425008579101561,1.4503021240234375,8.453758579101562,1.4503021240234375,8.482508579101562,1.4503021240234375Z" fill="#FFFFFF" fill-opacity="1"/></g><g><path d="M2.6256256103515625,3.394977412109375C2.6293756403515625,3.389297412109375,2.6343756503515623,3.384047412109375,2.6362506103515626,3.378357412109375C2.6500005103515627,3.335477412109375,2.6800006103515623,3.299167412109375,2.7237506103515625,3.268547412109375C3.2668756103515624,2.888355412109375,3.8099956103515624,2.507730412109375,4.353745610351563,2.127980212109375C4.443125610351562,2.065417622109375,4.553125610351563,2.047480212109375,4.672505610351562,2.074605112109375C4.793125610351563,2.101730012109375,4.864995610351563,2.1621050121093752,4.885005610351563,2.249605412109375C4.9012456103515625,2.321792412109375,4.871255610351563,2.3861054121093748,4.796245610351562,2.438605412109375C4.419375610351563,2.702417412109375,4.041875610351562,2.966230412109375,3.664375610351563,3.2304774121093747C3.5593756103515624,3.303977412109375,3.4543756103515624,3.377477412109375,3.3493756103515624,3.4514174121093752C3.3443756103515625,3.454917412109375,3.3393756103515626,3.458417412109375,3.3337506103515624,3.462797412109375C3.3406256103515624,3.468477412109375,3.3468756103515624,3.4732974121093747,3.3537506103515624,3.4781074121093747C3.8343756103515627,3.814547412109375,4.315005610351562,4.150977412109375,4.795625610351562,4.487417412109375C4.967495610351563,4.607727412109375,4.893125610351563,4.810727412109375,4.658745610351563,4.8549174121093746C4.5437456103515625,4.876797412109375,4.440005610351562,4.857977412109375,4.354375610351562,4.798917412109375C4.252495610351563,4.728477412109375,4.151875610351563,4.657167412109375,4.050625610351562,4.586297412109375C3.6125006103515624,4.279167412109375,3.1737506103515623,3.972047412109375,2.7343756103515626,3.664917412109375C2.6843756103515624,3.630357412109375,2.6487506103515623,3.591857412109375,2.6350006003515625,3.543297412109375C2.6337506203515626,3.5389174121093747,2.6287506103515623,3.534547412109375,2.6256256103515625,3.530607412109375C2.6256256103515625,3.4851074121093752,2.6256256103515625,3.440047412109375,2.6256256103515625,3.394977412109375Z" fill="#FFFFFF" fill-opacity="1"/></g><g><path d="M11.36250087890625,3.54155482421875C11.359370878906251,3.5489948242187497,11.35625087890625,3.55686482421875,11.35312087890625,3.56430482421875C11.338120878906249,3.59930482421875,11.31187087890625,3.62905482421875,11.27500087890625,3.6553048242187502C11.09125087890625,3.78393482421875,10.90812087890625,3.91299482421875,10.72500087890625,4.04161482421875C10.66312087890625,4.08536482421875,10.60125087890625,4.12868482421875,10.53937087890625,4.17243482421875C10.32187087890625,4.325114824218749,10.10437387890625,4.47780482421875,9.88687387890625,4.63049482421875C9.80687387890625,4.68693482421875,9.72812387890625,4.74424482421875,9.64624887890625,4.79980482421875C9.55499887890625,4.861494824218751,9.44562387890625,4.878994824218751,9.32624887890625,4.8514348242187495C9.20562397890625,4.82343482421875,9.13437377890625,4.76218482421875,9.11562394890625,4.6733648242187495C9.10062387890625,4.60074482421875,9.13312387890625,4.538624824218751,9.20687387890625,4.486994824218749C9.44437387890625,4.31986482421875,9.68187387890625,4.15318482421875,9.91937387890625,3.98605482421875C10.12375087890625,3.84255482421875,10.32750087890625,3.69905482421875,10.53187087890625,3.55555482421875C10.57500087890625,3.52536482421875,10.61875087890625,3.49605482421875,10.66437087890625,3.46455482421875C10.65625087890625,3.4584348242187497,10.650620878906249,3.4540548242187503,10.64437087890625,3.4496848242187497C10.53812087890625,3.37486482421875,10.431870878906249,3.3004948242187497,10.32625087890625,3.22568482421875C10.05187387890625,3.03318182421875,9.77749887890625,2.84024482421875,9.50312387890625,2.64774482421875C9.40249887890625,2.5773068242187502,9.30062387890625,2.50730682421875,9.20187367890625,2.43555682421875C9.11749851890625,2.37430682421875,9.09062337890625,2.30036982421875,9.12624847890625,2.21855682421875C9.16187357890625,2.13718192421875,9.24249887890625,2.08555692421875,9.36124887890625,2.06761947421875C9.47249887890625,2.05099442421875,9.57062387890625,2.07286952421875,9.65124887890625,2.12930692421875C9.86999887890625,2.28286882421875,10.08874887890625,2.43686982421875,10.30750087890625,2.59043182421875C10.55062087890625,2.76149482421875,10.79437087890625,2.93255682421875,11.03750087890625,3.10318482421875C11.11750087890625,3.15961482421875,11.19812087890625,3.2156148242187497,11.27812087890625,3.27249482421875C11.31937087890625,3.30224482421875,11.34875087890625,3.33680482421875,11.35750087890625,3.37880482421875C11.35812087890625,3.38055482421875,11.36062087890625,3.38186482421875,11.36187087890625,3.38318482421875C11.36250087890625,3.43611482421875,11.36250087890625,3.48905482421875,11.36250087890625,3.54155482421875Z" fill="#FFFFFF" fill-opacity="1"/></g></g><g style="mix-blend-mode:passthrough"><rect x="0" y="7" width="14" height="7" rx="0" fill="#F57C00" fill-opacity="1"/></g><g style="mix-blend-mode:passthrough"><path d="M4.8095300000000005,13L5.97327,13L5.97327,8.125L4.8095300000000005,8.125L4.8095300000000005,13ZM7.11161,13L8.27535,13L8.27535,11.12533L9.92574,11.12533L9.92574,10.15625L8.27535,10.15625L8.27535,9.09408L10.19869,9.09408L10.19869,8.125L7.11161,8.125L7.11161,13Z" fill="#FFFFFF" fill-opacity="1"/></g></g></svg>