<svg xmlns="http://www.w3.org/2000/svg" xmlns:xlink="http://www.w3.org/1999/xlink" fill="none" version="1.1" width="1869" height="500" viewBox="0 0 1869 500"><defs><linearGradient x1="0.5" y1="0" x2="0.5" y2="1" id="master_svg0_161_363"><stop offset="0%" stop-color="#FF5D34" stop-opacity="1"/><stop offset="100%" stop-color="#FF3466" stop-opacity="1"/></linearGradient><mask id="master_svg1_161_61"><g><path d="M265.318,-1.8081e-13C279.274,-1.8081e-13,292.978,1.04771,306.352,3.06665L306.35,255.313L306.124,255.314C300.393,391.392,185.124,500,43.7653,500C28.8539,500,14.2328,498.792,0.0000119648,496.47L-4.72215e-13,239.364L0.680409,239.362C10.4899,105.575,125.224,-1.8081e-13,265.318,-1.8081e-13Z" fill="#FFFFFF" fill-opacity="1"/></g></mask><mask id="master_svg2_161_66"><g><path d="M265.318,-1.8081e-13C279.274,-1.8081e-13,292.978,1.04771,306.352,3.06665L306.35,255.313L306.124,255.314C300.393,391.392,185.124,500,43.7653,500C28.8539,500,14.2328,498.792,0.0000119648,496.47L-4.72215e-13,239.364L0.680409,239.362C10.4899,105.575,125.224,-1.8081e-13,265.318,-1.8081e-13Z" fill="#FFFFFF" fill-opacity="1"/></g></mask></defs><g><g><g><path d="M265.318,-1.8081e-13C279.274,-1.8081e-13,292.978,1.04771,306.352,3.06665L306.35,255.313L306.124,255.314C300.393,391.392,185.124,500,43.7653,500C28.8539,500,14.2328,498.792,0.0000119648,496.47L-4.72215e-13,239.364L0.680409,239.362C10.4899,105.575,125.224,-1.8081e-13,265.318,-1.8081e-13Z" fill-rule="evenodd" fill="url(#master_svg0_161_363)" fill-opacity="1"/></g><g mask="url(#master_svg1_161_61)"><g><path d="M87.9116671875,39.115234375L87.9116671875,266.630234375C87.9116671875,296.006234375,112.40366718749999,319.820234375,142.6162671875,319.820234375C149.01736718749999,319.820234375,155.3628671875,318.728234375,161.36686718750002,316.598234375L163.35486718750002,315.850234375L336.6068671875,246.837234375L349.0498671875,276.369234375L175.7968671875,345.382234375C165.2668671875,349.576234375,153.99616718750002,351.734234375,142.6162671875,351.734234375C94.8516671875,351.734234375,56.0231961875,314.533234375,55.1054772875,268.30423437499996L55.0888671875,266.630234375L55.0888671875,39.115234375L87.9116671875,39.115234375Z" fill="#FFFFFF" fill-opacity="1"/></g></g><g mask="url(#master_svg2_161_66)"><g><path d="M337.09060546875,84.450439453125L348.56660546875,114.350439453125L236.17620546875,155.131839453125C200.42280546875,168.105139453125,176.51430546875,200.964439453125,175.71410546875,237.932439453125L175.69340546875,239.848439453125L175.69340546875,511.436439453125L142.87060546875,511.436439453125L142.87060546875,239.848439453125C142.87060546875,189.500439453125,174.58160546875,144.37473945312502,222.63110546874998,126.002739453125L224.70030546875,125.231739453125L337.09060546875,84.450439453125Z" fill="#FFFFFF" fill-opacity="1"/></g></g></g><g><path d="M392.2344,394.24L551.688,394.24L551.688,343.256L453.0938,343.256L453.0938,141.24L392.2344,141.24L392.2344,394.24ZM590.469,394.24L650.9839999999999,394.24L650.9839999999999,201.24L590.469,201.24L590.469,394.24ZM620.7339999999999,174.474C640.797,174.474,654.3910000000001,162.224,654.3910000000001,143.193C654.3910000000001,124.49,640.797,112.24,620.7339999999999,112.24C600.328,112.24,587.078,124.49,587.078,143.193C587.078,162.224,600.328,174.474,620.7339999999999,174.474ZM775.625,399.24C795.344,399.24,809.297,395.162,819.4839999999999,392.115L809.969,348.256C805.203,349.959,798.406,351.99,792.297,351.99C778.0160000000001,351.99,767.812,343.506,767.812,322.131L767.812,248.506L813.375,248.506L813.375,201.24L767.812,201.24L767.812,149.912L717.828,149.912L711.031,201.24L681.1089999999999,203.631L681.1089999999999,248.506L707.297,248.506L707.297,322.802C707.297,368.302,727.0160000000001,399.24,775.625,399.24ZM938.188,399.24C960.625,399.24,987.156,391.427,1007.203,377.146L987.156,340.646C973.203,348.896,960.297,353.006,946.344,353.006C921.875,353.006,903.516,342.021,898.078,315.24L1011.625,315.24C1012.984,310.49,1014.344,299.943,1014.344,289.068C1014.344,236.709,987.156,196.24,931.391,196.24C884.812,196.24,839.594,235.006,839.594,297.224C839.594,361.849,882.438,399.24,938.188,399.24ZM897.047,275.474C901.125,252.927,915.75,242.49,932.406,242.49C954.516,242.49,963.016,256.615,963.016,275.474L897.047,275.474ZM1058.234,394.24L1119.094,394.24L1119.094,297.912L1205.453,297.912L1205.453,247.24L1119.094,247.24L1119.094,191.912L1219.734,191.912L1219.734,141.24L1058.234,141.24L1058.234,394.24ZM1313.547,399.24C1327.156,399.24,1337.016,396.865,1343.469,394.146L1336.328,349.615C1332.938,350.287,1331.578,350.287,1329.531,350.287C1324.766,350.287,1318.984,346.552,1318.984,333.631L1318.984,122.834L1258.469,122.834L1258.469,331.584C1258.469,372.052,1272.078,399.24,1313.547,399.24ZM1455.45,399.24C1504.41,399.24,1549.97,361.849,1549.97,297.584C1549.97,233.646,1504.41,196.24,1455.45,196.24C1406.16,196.24,1360.594,233.646,1360.594,297.584C1360.594,361.849,1406.16,399.24,1455.45,399.24ZM1455.45,350.287C1432.67,350.287,1422.47,329.881,1422.47,297.584C1422.47,265.615,1432.67,245.209,1455.45,245.209C1477.89,245.209,1488.09,265.615,1488.09,297.584C1488.09,329.881,1477.89,350.287,1455.45,350.287ZM1621.11,394.24L1690.12,394.24L1705.77,320.552C1709.17,302.693,1711.89,285.115,1714.95,264.146L1716.66,264.146C1720.05,285.115,1723.11,302.693,1726.84,320.615L1743.17,394.24L1813.89,394.24L1859.45,201.24L1803.34,201.24L1786.69,287.474C1783.3,306.74,1781.25,325.677,1778.19,345.287L1776.48,345.287C1772.41,325.677,1769.02,306.74,1764.59,287.474L1743.84,201.24L1691.83,201.24L1671.77,287.474C1667.02,306.412,1663.95,325.677,1660.55,345.287L1658.84,345.287C1655.8,325.677,1653.75,306.74,1650.69,287.474L1633.34,201.24L1573.52,201.24L1621.11,394.24Z" fill="#FF3860" fill-opacity="1"/></g></g></svg>