<svg xmlns="http://www.w3.org/2000/svg" xmlns:xlink="http://www.w3.org/1999/xlink" fill="none" version="1.1" width="306.35211181640625" height="500" viewBox="0 0 306.35211181640625 500"><defs><linearGradient x1="0.5" y1="0" x2="0.5" y2="1" id="master_svg0_161_363"><stop offset="0%" stop-color="#FF5D34" stop-opacity="1"/><stop offset="100%" stop-color="#FF3466" stop-opacity="1"/></linearGradient><mask id="master_svg1_161_61"><g><path d="M265.318,-1.8081e-13C279.274,-1.8081e-13,292.978,1.04771,306.352,3.06665L306.35,255.313L306.124,255.314C300.393,391.392,185.124,500,43.7653,500C28.8539,500,14.2328,498.792,0.0000119648,496.47L-4.72215e-13,239.364L0.680409,239.362C10.4899,105.575,125.224,-1.8081e-13,265.318,-1.8081e-13Z" fill="#FFFFFF" fill-opacity="1"/></g></mask><mask id="master_svg2_161_66"><g><path d="M265.318,-1.8081e-13C279.274,-1.8081e-13,292.978,1.04771,306.352,3.06665L306.35,255.313L306.124,255.314C300.393,391.392,185.124,500,43.7653,500C28.8539,500,14.2328,498.792,0.0000119648,496.47L-4.72215e-13,239.364L0.680409,239.362C10.4899,105.575,125.224,-1.8081e-13,265.318,-1.8081e-13Z" fill="#FFFFFF" fill-opacity="1"/></g></mask></defs><g><g><g><path d="M265.318,-1.8081e-13C279.274,-1.8081e-13,292.978,1.04771,306.352,3.06665L306.35,255.313L306.124,255.314C300.393,391.392,185.124,500,43.7653,500C28.8539,500,14.2328,498.792,0.0000119648,496.47L-4.72215e-13,239.364L0.680409,239.362C10.4899,105.575,125.224,-1.8081e-13,265.318,-1.8081e-13Z" fill-rule="evenodd" fill="url(#master_svg0_161_363)" fill-opacity="1"/></g><g mask="url(#master_svg1_161_61)"><g><path d="M87.91152985839844,39.11527633666992L87.91152985839844,266.6302763366699C87.91152985839844,296.00627633666994,112.40352985839843,319.8202763366699,142.61612985839844,319.8202763366699C149.01722985839842,319.8202763366699,155.36272985839844,318.7282763366699,161.36672985839846,316.5982763366699L163.35472985839846,315.85027633666994L336.6067298583984,246.83727633666993L349.04972985839845,276.36927633666994L175.79672985839844,345.3822763366699C165.26672985839843,349.57627633666993,153.99602985839846,351.73427633666995,142.61612985839844,351.73427633666995C94.85152985839844,351.73427633666995,56.023058858398436,314.5332763366699,55.10533995839844,268.3042763366699L55.08872985839844,266.6302763366699L55.08872985839844,39.11527633666992L87.91152985839844,39.11527633666992Z" fill="#FFFFFF" fill-opacity="1"/></g></g><g mask="url(#master_svg2_161_66)"><g><path d="M337.0904528808594,84.45040893554688L348.5664528808594,114.35040893554688L236.17605288085937,155.13180893554687C200.42265288085937,168.10510893554687,176.51415288085937,200.96440893554689,175.71395288085938,237.93240893554687L175.69325288085938,239.84840893554687L175.69325288085938,511.43640893554686L142.87045288085938,511.43640893554686L142.87045288085938,239.84840893554687C142.87045288085938,189.5004089355469,174.5814528808594,144.3747089355469,222.63095288085935,126.00270893554688L224.70015288085938,125.23170893554688L337.0904528808594,84.45040893554688Z" fill="#FFFFFF" fill-opacity="1"/></g></g></g></g></svg>