<svg xmlns="http://www.w3.org/2000/svg" xmlns:xlink="http://www.w3.org/1999/xlink" fill="none" version="1.1" width="13" height="13" viewBox="0 0 13 13"><defs><clipPath id="master_svg0_18_97"><rect x="0" y="0" width="13" height="13" rx="0"/></clipPath><clipPath id="master_svg1_18_42"><rect x="1" y="0" width="8" height="13" rx="0"/></clipPath><linearGradient x1="0.5" y1="0" x2="0.5" y2="1" id="master_svg2_18_001"><stop offset="0%" stop-color="#FF5D34" stop-opacity="1"/><stop offset="100%" stop-color="#FF3466" stop-opacity="1"/></linearGradient><mask id="master_svg3_18_52"><g><g><path d="M7.92845,-4.70106e-15C8.29289,-4.70106e-15,8.65075,0.0272405,9,0.0797329L8.99995,6.63814L8.99404,6.63816C8.84439,10.1762,5.83428,13,2.14288,13C1.7534830000000001,13,1.371672,12.9686,1.000000312446,12.9082L0.9999999999999877,6.22346L1.017768,6.22341C1.273931,2.74495,4.2700700000000005,-4.70106e-15,7.92845,-4.70106e-15Z" fill="#FFFFFF" fill-opacity="1"/></g></g></mask><mask id="master_svg4_18_60"><g><g><path d="M7.92845,-4.70106e-15C8.29289,-4.70106e-15,8.65075,0.0272405,9,0.0797329L8.99995,6.63814L8.99404,6.63816C8.84439,10.1762,5.83428,13,2.14288,13C1.7534830000000001,13,1.371672,12.9686,1.000000312446,12.9082L0.9999999999999877,6.22346L1.017768,6.22341C1.273931,2.74495,4.2700700000000005,-4.70106e-15,7.92845,-4.70106e-15Z" fill="#FFFFFF" fill-opacity="1"/></g></g></mask><clipPath id="master_svg5_18_65"><rect x="5" y="5" width="8" height="8" rx="0"/></clipPath></defs><g clip-path="url(#master_svg0_18_97)"><g clip-path="url(#master_svg1_18_42)"><g><g><g><g><path d="M7.92845,-4.70106e-15C8.29289,-4.70106e-15,8.65075,0.0272405,9,0.0797329L8.99995,6.63814L8.99404,6.63816C8.84439,10.1762,5.83428,13,2.14288,13C1.7534830000000001,13,1.371672,12.9686,1.000000312446,12.9082L0.9999999999999877,6.22346L1.017768,6.22341C1.273931,2.74495,4.2700700000000005,-4.70106e-15,7.92845,-4.70106e-15Z" fill-rule="evenodd" fill="url(#master_svg2_18_001)" fill-opacity="1"/></g></g><g mask="url(#master_svg3_18_52)"><g><g><g><path d="M3.29566359765625,1.01702880859375L3.29566359765625,6.93241880859375C3.29566359765625,7.69619880859375,3.9352375976562497,8.31535880859375,4.72420759765625,8.31535880859375C4.89135759765625,8.31535880859375,5.05706759765625,8.28696880859375,5.21385759765625,8.231588808593749L5.26576759765625,8.21213880859375L9.79002759765625,6.41779880859375L10.11495759765625,7.18562880859375L5.59067759765625,8.97996880859375C5.31569759765625,9.08901880859375,5.02137759765625,9.14511880859375,4.72420759765625,9.14511880859375C3.47689759765625,9.14511880859375,2.46293649765625,8.17789880859375,2.43897132565625,6.97593880859375L2.43853759765625,6.93241880859375L2.43853759765625,1.01702880859375L3.29566359765625,1.01702880859375Z" fill="#FFFFFF" fill-opacity="1"/></g></g></g></g><g mask="url(#master_svg4_18_60)"><g><g><g><path d="M9.8026449609375,2.1956787109375L10.1023249609375,2.9730787109375L7.1673949609375,4.0333987109375C6.2337349609375,4.3706987109375,5.6093979609375,5.2250387109375005,5.5885019609375,6.1862087109375L5.5879609609375,6.2360287109375L5.5879609609375,13.2972787109375L4.7308349609375,13.2972787109375L4.7308349609375,6.2360287109375C4.7308349609375,4.9269787109375,5.5589279609375,3.7537087109375,6.8136749609375,3.2760387109374998L6.8677149609375,3.2559887109375003L9.8026449609375,2.1956787109375Z" fill="#FFFFFF" fill-opacity="1"/></g></g></g></g></g></g></g><g clip-path="url(#master_svg5_18_65)"><g><path d="M11.85711669921875,8.50513609375C12.23808669921875,8.72507609375,12.23808669921875,9.27493609375,11.85711669921875,9.494876093750001L6.71425969921875,12.46411609375C6.33330569921875,12.68405609375,5.85711669921875,12.40914609375,5.85711669921875,11.969256093750001L5.85711669921875,6.03077709375C5.85711669921875,5.59089109375,6.33330569921875,5.31596309375,6.71425969921875,5.53590549375L11.85711669921875,8.50513609375Z" fill="#F2FCF3" fill-opacity="1"/><path d="M12.10711669921875,8.07212609375L6.96425669921875,5.10289309375Q6.42854369921875,4.79359809375,5.89283019921875,5.10289309375Q5.35711669921875,5.41218729375,5.35711669921875,6.03077709375L5.35711669921875,11.969256093750001Q5.35711669921875,12.58785609375,5.89283749921875,12.89713609375Q6.4285476992187505,13.20641609375,6.96425669921875,12.89712609375L12.10710669921875,9.92789609375Q12.642846699218751,9.61860609375,12.642846699218751,9.00000609375Q12.642846699218751,8.38141609375,12.10711669921875,8.07212609375ZM6.3928306992187505,5.96891809375Q6.42854469921875,5.94829909375,6.46425969921875,5.96891809375L6.46426069921875,5.96891909375L11.60711669921875,8.93814609375Q11.642846699218751,8.95877609375,11.642846699218751,9.00000609375Q11.642846699218751,9.04123609375,11.60712669921875,9.06186609375L6.46425969921875,12.031106093750001Q6.42853869921875,12.05172609375,6.39282269921875,12.031106093750001Q6.35711669921875,12.01048609375,6.35711669921875,11.969256093750001L6.35711669921875,6.03077709375Q6.35711669921875,5.98953709375,6.3928306992187505,5.96891809375Z" fill-rule="evenodd" fill="#208A3C" fill-opacity="1"/></g></g></g></svg>